<ttFont>
<head>
    <!-- Most of this table will be recalculated by the compiler -->
    <tableVersion value="1.0"/>
    <fontRevision value="2.004"/>
    <checkSumAdjustment value="0xd020737e"/>
    <magicNumber value="0x5f0f3cf5"/>
    <flags value="00000000 00000011"/>
    <unitsPerEm value="1000"/>
    <created value="Thu Oct  8 10:01:48 2009"/>
    <modified value="Thu Oct  8 10:01:48 2009"/>
    <xMin value="-451"/>
    <yMin value="-318"/>
    <xMax value="734"/>
    <yMax value="1016"/>
    <macStyle value="00000000 00000000"/>
    <lowestRecPPEM value="3"/>
    <fontDirectionHint value="2"/>
    <indexToLocFormat value="0"/>
    <glyphDataFormat value="0"/>
  </head>
          <CharString index="0">
            rmoveto
            25 -12 24 -21 15 vhcurveto
            14 -21 -24 4 -26 hhcurveto
            -3 hlineto
            -46 -44 -33 -48 -17 14 -13 16 8 8 3 5 6 hvcurveto
            6 6 2 8 8 vvcurveto
            2 vlineto
            10 2 11 9 18 hhcurveto
            18 13 -2 -6 9 hvcurveto
            4 -3 2 -5 -5 vvcurveto
            0 -1 -4 -3 -2 vhcurveto
            -40 -22 -32 -31 -45 vvcurveto
            -17 vlineto
            -16 13 -14 17 16 14 14 16 vhcurveto
            18 vlineto
            14 13 15 28 16 vhcurveto
            20 11 15 22 24 vvcurveto
            endchar
          </CharString>
          <CharString index="1">
            rmoveto
            -118 43 -6 2 -7 0 -6 -2 rlinecurve
            -118 -43 -36 -13 18 -54 36 11 rlinecurve
            109 33 109 -33 36 -11 18 54 -35 13 rlinecurve
            return
          </CharString>
          <CharString index="2">
            rmoveto
            13 -8 18 -25 -29 -4 -29 0 vhcurveto
            -12 -26 -36 0 -50 hhcurveto
            -50 -36 0 12 -26 hvcurveto
            0 -4 29 -29 -23 -10 -15 -17 -77 108 0 70 72 106 0 78 vhcurveto
            return
          </CharString>
          <CharString index="3">
            519 33 rmoveto
            32 -27 0 -16 -15 -21 0 7 -19 vhcurveto
            211 vlineto
            78 -60 78 -140 -46 -101 0 -75 -29 22 -18 24 16 31 6 48 vhcurveto
            3 28 18 0 9 hhcurveto
            79 46 -33 -61 hvcurveto
            -167 -2 -132 -47 -98 vvcurveto
            return
          </CharString>
          <CharString index="4">
            59 callgsubr
            26 0 16 hvcurveto
            return
          </CharString>
          <CharString index="5">
            28 -23 23 -28 -28 -23 -23 -28 -28 23 -23 28 28 23 23 28 vhcurveto
            return
          </CharString>
          <CharString index="6">
            26 -21 20 -25 -25 -21 -20 -26 -25 21 -21 25 25 21 21 25 vhcurveto
            return
          </CharString>
          <CharString index="7">
            hlineto
            -15 -28 -70 callsubr
            27 0 16 hvcurveto
            return
          </CharString>
          <CharString index="8">
            rmoveto
            44 -28 32 -35 -29 -19 -22 -25 -28 20 -20 28 vhcurveto
            5 5 1 2 hhcurveto
            -4 -16 -13 -29 -39 -12 rrcurveto
            -6 -3 -14 -4 -17 vvcurveto
            -11 11 -13 15 24 77 39 84 vhcurveto
            endchar
          </CharString>
          <CharString index="9">
            500 138 callgsubr
            -28 0 -17 vhcurveto
            -114 hlineto
            -17 -28 0 -32 -13 6 -14 15 -4 hvcurveto
            -2 5 27 0 16 hhcurveto
            -49 -150 -28 -86 -11 -34 -5 -20 rlinecurve
            -1 hlineto
            -7 29 -20 52 -26 70 -23 60 -7 15 -24 64 rrcurveto
            15 25 0 2 6 hvcurveto
            13 5 7 11 15 vvcurveto
            32 -27 0 -18 vhcurveto
            -114 hlineto
            -16 -29 0 -32 -19 12 -9 9 -3 hvcurveto
            -2 5 29 0 18 hhcurveto
            137 -351 rlineto
            1 -2 4 -13 0 vvcurveto
            0 -23 -80 -15 -29 vhcurveto
            -22 -40 -29 -11 -25 -2 7 19 rcurveline
            35 -2 -25 10 -18 hhcurveto
            -28 -18 -19 -27 -40 31 -43 52 70 54 62 86 29 hvcurveto
            149 445 rlineto
            17 28 0 2 5 hvcurveto
            8 2 14 7 22 vvcurveto
            return
          </CharString>
          <CharString index="10">
            -37 callgsubr
            -469 -1 hlineto
            -48 140 -129 356 rlineto
            38 -14 -21 0 -22 hhcurveto
            -71 -66 callsubr
            -481 -48 callsubr
            108 -54 callsubr
            469 1 hlineto
            48 -140 129 -356 rlineto
            -38 14 21 0 24 hhcurveto
            27 18 1 41 hvcurveto
            504 24 vlineto
            -23 callgsubr
            32 hvcurveto
            return
          </CharString>
          <CharString index="11">
            hlineto
            -14 -28 -70 callsubr
            -21 callsubr
            return
          </CharString>
          <CharString index="12">
            469 216 rmoveto
            124 -94 99 -113 -113 -94 -99 -124 -124 95 -97 112 112 95 97 124 vhcurveto
            -74 7 rmoveto
            -90 -60 -73 -73 -73 -60 73 90 89 64 62 69 70 63 -62 -89 vhcurveto
            return
          </CharString>
          <CharString index="13">
            33 -8 9 -34 -89 callgsubr
            return
          </CharString>
          <CharString index="14">
            -12 12 20 -21 34 hhcurveto
            24 27 12 21 28 hvcurveto
            47 37 2 10 10 vvcurveto
            endchar
          </CharString>
          <CharString index="15">
            460 15 callsubr
            -105 1 callsubr
            -145 -100 callsubr
            113 -301 -122 -96 callsubr
            301 -4 callgsubr
            hvcurveto
            return
          </CharString>
          <CharString index="16">
            -84 -77 -12 -34 -77 0 29 31 vhcurveto
            269 -76 callgsubr
            -251 hlineto
            -94 67 -26 77 35 40 5 30 43 vhcurveto
            return
          </CharString>
          <CharString index="17">
            506 32 -55 callsubr
            -24 481 24 -74 callsubr
            -122 56 callsubr
            24 -196 -208 196 24 -74 callsubr
            -122 -66 callsubr
            -481 -48 callsubr
            122 -54 callsubr
            220 208 -220 -22 callsubr
            return
          </CharString>
          <CharString index="18">
            rmoveto
            34 -26 0 -16 vhcurveto
            -294 hlineto
            -15 -27 0 -33 -34 26 0 17 hvcurveto
            293 hlineto
            15 27 45 callgsubr
          </CharString>
          <CharString index="19">
            512 8 callsubr
            -5 callsubr
            24 hlineto
            -42 -318 -7 -55 -6 -43 -3 -49 rlinecurve
            -1 hlineto
            -2 62 -44 194 -7 12 rrcurveto
            18 -10 -20 0 -10 hhcurveto
            -10 -20 0 -18 -10 hvcurveto
            -6 -11 -45 -193 -2 -64 -3 39 -6 45 -6 46 -43 335 rcurveline
            23 hlineto
            -68 callgsubr
            -80 hlineto
            -16 -26 -29 callgsubr
            9 hvcurveto
            1 hlineto
            70 -514 rlineto
            -20 3 3 -21 37 hhcurveto
            9 22 0 24 10 hvcurveto
            3 7 51 224 4 41 4 -41 50 -224 4 -8 rrcurveto
            -23 10 23 0 8 hhcurveto
            38 3 22 18 2 hvcurveto
            70 515 rlineto
            10 -33 callsubr
            hvcurveto
            return
          </CharString>
          <CharString index="20">
            rmoveto
            -101 callsubr
            169 -84 callsubr
            return
          </CharString>
          <CharString index="21">
            -32 callgsubr
            hintmask 0001000001000000
            -9 -16 -10 -26 -26 vvcurveto
            hintmask 1100000100010100
            -42 21 -28 2 -2 vhcurveto
            -68 -42 -3 -65 -15 vvcurveto
            -88 106 -60 127 126 107 60 88 143 -184 0 -29 vhcurveto
            -71 hlineto
            hintmask 0010000000100000
            -8 -13 0 3 -8 hvcurveto
            -16 -4 0 12 -11 hvcurveto
            hintmask 1001100001001000
            -83 callgsubr
            vhcurveto
            hintmask 0010000100010100
            -98 -73 41 43 37 32 41 51 4 hvcurveto
            60 hlineto
            90 109 0 -83 hvcurveto
            return
          </CharString>
          <CharString index="22">
            -31 callsubr
            106 rmoveto
            -20 -15 -22 -21 -6 -8 2 3 -6 vhcurveto
            -126 51 rlineto
            -13 5 -19 8 25 vvcurveto
            18 14 19 23 7 4 -2 -3 8 vhcurveto
            131 -53 rlineto
            13 -5 14 -6 -20 vvcurveto
            endchar
          </CharString>
          <CharString index="23">
            hmoveto
            -101 callsubr
            return
          </CharString>
          <CharString index="24">
            rmoveto
            36 13 -18 54 -36 -11 -109 -33 rcurveline
            -109 33 -36 11 -18 -54 35 -13 rlinecurve
            118 -43 6 -2 7 0 6 2 rlinecurve
            endchar
          </CharString>
          <CharString index="25">
            488 42 rmoveto
            92 vlineto
            19 0 24 -37 -37 0 -24 -19 vhcurveto
            -69 -234 481 -41 callgsubr
            -481 -36 hlineto
            -11 callgsubr
            return
          </CharString>
          <CharString index="26">
            hlineto
            -88 callgsubr
            return
          </CharString>
          <CharString index="27">
            -34 24 54 0 33 hhcurveto
            28 55 callsubr
            -172 108 rmoveto
            -23 0 -21 -40 -20 vhcurveto
            return
          </CharString>
          <CharString index="28">
            rmoveto
            -15 15 -23 1 -15 -15 -72 -69 rcurveline
            -14 -14 -1 -24 14 -14 15 -15 23 -1 15 15 72 69 rcurveline
            14 14 1 24 -14 14 rrcurveto
            194 hmoveto
            -15 15 -23 1 -15 -15 -72 -69 rcurveline
            -14 -14 -1 -24 14 -14 15 -15 23 -1 15 15 72 69 rcurveline
            14 14 1 24 -14 14 rrcurveto
            endchar
          </CharString>
          <CharString index="29">
            11 callsubr
            504 28 callgsubr
            -162 -103 callsubr
            130 -481 -130 -103 callsubr
            334 -8 callgsubr
            return
          </CharString>
          <CharString index="30">
            527 644 rmoveto
            30 -10 38 -40 1 vhcurveto
            -2 hlineto
            -30 -1 -20 -24 -26 vvcurveto
            -18 9 -17 16 -9 vhcurveto
            -5 -4 -5 -4 -6 -2 rrcurveto
            2 -4 -5 1 -4 hhcurveto
            -86 hlineto
            -16 -14 -13 -17 hvcurveto
            -5 vlineto
            -16 14 -14 16 vhcurveto
            42 -342 hlineto
            -41 -12 -38 -24 -30 vhcurveto
            -26 -21 -29 -15 -30 hhcurveto
            -29 -29 15 26 -21 hvcurveto
            -24 30 -12 38 41 vvcurveto
            342 vlineto
            return
          </CharString>
          <CharString index="31">
            481 42 rmoveto
            96 vlineto
            -49 callgsubr
            -23 -19 vhcurveto
            -73 -264 vlineto
            323 478 rlineto
            10 15 0 6 10 vvcurveto
            37 -23 0 -20 vhcurveto
            -330 hlineto
            -34 -9 -8 -35 hvcurveto
            -76 -22 callgsubr
            54 247 vlineto
            -323 -478 rlineto
            -10 -15 0 -6 -10 vvcurveto
            -37 23 0 20 vhcurveto
            348 -1 callgsubr
            return
          </CharString>
          <CharString index="32">
            rmoveto
            33 21 -31 49 -33 -20 -103 -62 rcurveline
            -103 62 -33 20 -31 -48 33 -21 rlinecurve
            120 -76 9 -6 12 0 9 6 rlinecurve
            endchar
          </CharString>
          <CharString index="33">
            -62 callgsubr
            -26 0 -16 hvcurveto
            return
          </CharString>
          <CharString index="34">
            hlineto
            -94 callsubr
            return
          </CharString>
          <CharString index="35">
            7 9 -4 21 -8 7 -9 5 -22 -4 -6 -6 rrcurveto
            -16 -11 -23 -21 -20 hhcurveto
            -18 -26 15 24 return
          </CharString>
          <CharString index="36">
            -33 callsubr
            0 callsubr
            return
          </CharString>
          <CharString index="37">
            0 -32 -33 return
          </CharString>
          <CharString index="38">
            -53 callgsubr
            -112 -100 callsubr
            80 -301 -5 callsubr
            265 -63 callgsubr
            -111 119 hlineto
            return
          </CharString>
          <CharString index="39">
            -19 callgsubr
            -21 callsubr
            return
          </CharString>
          <CharString index="40">
            27 callgsubr
            55 0 63 -6 55 vhcurveto
            -11 90 -24 24 -38 15 rrcurveto
            16 54 0 2 3 vvcurveto
            18 -16 14 -18 -22 -6 -18 -10 -3 vhcurveto
            -6 -17 -8 -29 -1 -4 rrcurveto
            2 -22 -2 0 -39 hhcurveto
            -185 -21 -27 -290 -54 0 -63 6 -55 hvcurveto
            11 -90 24 -24 38 -15 rrcurveto
            -16 -54 0 -2 -3 vvcurveto
            -30 34 -2 0 22 6 18 10 3 vhcurveto
            6 17 8 29 1 4 rrcurveto
            -2 22 2 0 39 hhcurveto
            17 callgsubr
            hvcurveto
            -163 251 rmoveto
            -149 -482 rlineto
            -40 32 0 96 103 vvcurveto
            59 0 82 13 47 vhcurveto
            58 17 43 6 73 hhcurveto
            7 24 0 -1 12 hvcurveto
            103 -250 rmoveto
            -59 0 -82 -13 -47 vhcurveto
            -58 -17 -43 -6 -73 hhcurveto
            -7 -24 0 1 -12 hvcurveto
            148 482 rlineto
            21 -16 20 -15 -200 vvcurveto
            return
          </CharString>
          <CharString index="41">
            -103 callsubr
            24 return
          </CharString>
          <CharString index="42">
            449 129 rmoveto
            35 -26 0 -11 -16 -20 -2 -32 -1 vhcurveto
            -48 -2 -40 -22 -34 hhcurveto
            -74 0 54 24 hvcurveto
            228 159 1 callgsubr
            -159 81 86 callsubr
            vhcurveto
            return
          </CharString>
          <CharString index="43">
            41 hlineto
            17 13 14 16 hvcurveto
            5 vlineto
            17 -13 13 -17 vhcurveto
            -157 hlineto
            -16 -14 -13 -17 hvcurveto
            -5 vlineto
            -16 14 -14 16 vhcurveto
            42 -342 hlineto
            -56 18 -53 36 -41 vhcurveto
            -40 34 49 -25 52 hhcurveto
            52 49 25 40 35 hvcurveto
            35 41 19 53 56 vvcurveto
            341 vlineto
            43 14 33 38 47 vvcurveto
            return
          </CharString>
          <CharString index="44">
            -19 -56 callgsubr
            return
          </CharString>
          <CharString index="45">
            466 109 rmoveto
            21 -15 9 -22 -13 -14 0 -22 -9 vhcurveto
            -15 -7 -17 -42 -70 hhcurveto
            -85 -69 69 87 51 31 107 128 hvcurveto
            17 14 -1 4 hhcurveto
            20 -2 1 -1 1 -9 rrcurveto
            -34 3 27 -10 16 hhcurveto
            27 20 20 27 75 -102 0 -47 -173 -61 -135 -88 return
          </CharString>
          <CharString index="46">
            510 32 rmoveto
            33 -24 0 -30 vhcurveto
            481 vlineto
            30 24 23 callgsubr
            -58 hlineto
            -35 -10 -8 -30 -10 hvcurveto
            -59 -180 -13 -40 -13 -41 -6 -31 rlinecurve
            -1 hlineto
            -6 29 -10 31 -11 33 -65 199 rcurveline
            29 -10 -9 9 -36 hhcurveto
            -58 hlineto
            -15 -28 -70 callsubr
            24 0 30 hvcurveto
            -481 vlineto
            -30 -24 -29 callgsubr
            15 hvcurveto
            82 hlineto
            47 callsubr
            33 -24 0 -30 hvcurveto
            467 1 vlineto
            5 -24 9 -29 9 -29 68 -208 rcurveline
            -12 4 8 -26 30 hhcurveto
            30 8 26 12 4 hvcurveto
            63 193 rlineto
            0 23 73 5 24 vhcurveto
            1 -467 hlineto
            -30 -24 -29 callgsubr
            15 hvcurveto
            82 hlineto
            47 callsubr
            hvcurveto
            return
          </CharString>
          <CharString index="47">
            -227 65 528 65 hstemhm
            48 93 -46 93 109 74 hintmask 11101000
            371 -41 rmoveto
            430 -2 callgsubr
            -404 hlineto
            -16 0 -38 -26 -36 vhcurveto
            -34 -26 -29 0 -23 hhcurveto
            -14 -6 0 1 -15 hvcurveto
            -16 2 -1 1 8 vvcurveto
            hintmask 00010000
            39 -1 -33 9 -12 hhcurveto
            hintmask 00100000
            -22 -25 -16 -32 hvcurveto
            hintmask 10011000
            -77 100 0 40 145 38 118 68 vhcurveto
            return
          </CharString>
          <CharString index="48">
            484 169 rmoveto
            34 -27 0 -10 -5 -30 0 -26 -2 vhcurveto
            -121 -8 -105 -2 -11 hhcurveto
            -90 -82 107 144 149 85 103 86 22 84 -9 -124 19 hvcurveto
            -25 4 25 0 8 hhcurveto
            37 0 23 19 hvcurveto
            139 51 callgsubr
            vhcurveto
            return
          </CharString>
          <CharString index="49">
            483 541 rmoveto
            22 -22 10 -12 -17 -5 -9 -13 -9 vhcurveto
            -74 -128 rlineto
            13 -32 -29 3 -21 hhcurveto
            -121 -98 -101 -122 -78 40 -62 42 -32 hvcurveto
            -69 -120 rlineto
            -15 -25 0 -2 -7 vvcurveto
            -22 22 -10 12 17 6 10 12 8 vhcurveto
            75 130 rlineto
            -1 2 36 -14 43 hhcurveto
            120 99 98 123 73 -36 63 -45 37 hvcurveto
            66 114 rlineto
            17 28 0 2 8 vvcurveto
            -172 -175 rmoveto
            -155 -267 rlineto
            -33 30 -20 42 45 vvcurveto
            86 71 72 88 7 20 0 -8 22 vhcurveto
            110 -150 rmoveto
            -87 -72 -69 -87 -17 -19 3 4 -12 vhcurveto
            153 266 rlineto
            54 -44 0 -63 -10 vvcurveto
            return
          </CharString>
          <CharString index="50">
            498 492 rmoveto
            77 vlineto
            -53 callgsubr
            -387 hlineto
            -34 -9 -8 -35 hvcurveto
            -76 -22 callgsubr
            54 125 -481 return
          </CharString>
          <CharString index="51">
            37 37 0 23 19 vhcurveto
            return
          </CharString>
          <CharString index="52">
            rmoveto
            33 -26 0 -16 vhcurveto
            return
          </CharString>
          <CharString index="53">
            -74 callsubr
            -24 return
          </CharString>
          <CharString index="54">
            -51 callsubr
            145 -107 callgsubr
          </CharString>
          <CharString index="55">
            507 32 -55 callsubr
            -31 hlineto
            -145 189 119 112 rlineto
            35 -74 callsubr
            -156 -100 callsubr
            33 hlineto
            -152 -143 rlineto
            346 vlineto
            -53 callgsubr
            -66 -81 callsubr
            48 -481 -48 -81 callsubr
            156 -63 callgsubr
            -48 75 hlineto
            77 73 113 -148 rlineto
            -32 -24 -19 callgsubr
            29 0 14 hvcurveto
            120 -8 callgsubr
            return
          </CharString>
          <CharString index="56">
            -105 callsubr
            -71 return
          </CharString>
          <CharString index="57">
            459 126 rmoveto
            49 -31 31 -24 15 vhcurveto
            -40 25 -25 5 -94 15 rrcurveto
            -42 6 -66 11 37 vvcurveto
            26 32 28 91 91 3 -34 -22 1 vhcurveto
            -28 2 27 0 8 hhcurveto
            return
          </CharString>
          <CharString index="58">
            hstemhm
            238 -47 callgsubr
            return
          </CharString>
          <CharString index="59">
            -24 -103 callsubr
            return
          </CharString>
          <CharString index="60">
            -73 callgsubr
            endchar
          </CharString>
          <CharString index="61">
            475 42 rmoveto
            61 vlineto
            -49 callgsubr
            -23 -19 vhcurveto
            -38 -256 vlineto
            312 296 rlineto
            14 13 0 9 11 vvcurveto
            37 -23 0 -20 vhcurveto
            -336 hlineto
            -34 -9 -8 -35 hvcurveto
            -48 -22 callgsubr
            26 vlineto
            return
          </CharString>
          <CharString index="62">
            -88 callgsubr
            176 -63 callgsubr
            -51 481 125 73 callgsubr
            return
          </CharString>
          <CharString index="63">
            -5 65 62 65 2 64 0 64 57 65 hstemhm
            31 60 -4 61 -57 62 58 61 -40 62 149 61 -60 60 hintmask 1010100001010000
            504 109 rmoveto
            17 -13 13 -17 -23 -5 -19 -10 -2 vhcurveto
            -26 -8 -17 -24 -26 hhcurveto
            -44 -47 52 77 -8 hvcurveto
            168 hlineto
            33 9 8 34 141 -58 67 -68 hvcurveto
            hintmask 0001101010000000
            -26 -41 -9 -60 -39 hvcurveto
            39 -23 -36 30 -56 hhcurveto
            -57 -60 -18 -57 -27 20 -20 27 19 13 12 4 4 hvcurveto
            9 13 0 5 22 vvcurveto
            1 7 9 0 7 hhcurveto
            hintmask 0100010001000000
            45 32 -31 -62 hvcurveto
            -31 vlineto
            -103 -1 -98 -41 -86 vvcurveto
            hintmask 1001101001010000
            -56 39 -71 78 42 58 20 46 28 vhcurveto
            -13 9 40 -53 63 hhcurveto
            84 32 92 22 hvcurveto
            -61 144 rmoveto
            -149 hlineto
            65 9 36 56 39 hhcurveto
            hintmask 1101000110100000
            28 31 -30 -91 6 hvcurveto
            -211 -66 rmoveto
            -1 -12 0 -15 -19 vvcurveto
            -31 0 -11 -20 -18 vhcurveto
            -15 -16 -25 -6 -17 hhcurveto
            -41 -21 36 26 hvcurveto
            hintmask 0100000001000000
            53 106 11 35 1 vhcurveto
            endchar
          </CharString>
          <CharString index="64">
            -54 hlineto
            -63 callsubr
            return
          </CharString>
          <CharString index="65">
            479 -18 callgsubr
            -185 56 callsubr
            82 -407 hlineto
            -79 -78 -6 -20 -10 -44 1 21 -28 vhcurveto
            4 6 3 5 15 vvcurveto
            24 -18 22 -28 -28 -19 -20 -28 -66 67 -45 101 86 86 51 95 vhcurveto
            411 16 callsubr
            hvcurveto
            return
          </CharString>
          <CharString index="66">
            -69 callgsubr
            29 return
          </CharString>
          <CharString index="67">
            -36 callsubr
            endchar
          </CharString>
          <CharString index="68">
            -11 65 -54 76 callgsubr
            143 65 -11 65 -54 65 hstemhm
            29 60 173 60 113 60 -53 60 hintmask 0110100101000000
            502 69 callsubr
            -120 219 116 1 callgsubr
            -116 197 hlineto
            hintmask 0000100010000000
            113 hlineto
            hintmask 0001000010000000
            -54 vlineto
            -13 0 -29 30 30 0 29 13 vhcurveto
            77 vlineto
            hintmask 0000100000000000
            -53 callgsubr
            -154 hlineto
            -15 -6 0 5 -26 hvcurveto
            hintmask 1000011000000000
            6 -34 -3 0 -22 hhcurveto
            -93 -41 -20 -65 -15 hvcurveto
            -12 -53 -3 -52 -126 vvcurveto
            -81 0 -81 14 -63 vhcurveto
            -61 13 27 -31 110 hhcurveto
            19 8 0 6 31 hvcurveto
            hintmask 0100000001000000
            5 25 11 0 12 hhcurveto
            161 -1 callgsubr
            -240 131 rmoveto
            hintmask 1000011100000000
            -98 -14 -21 -49 -110 0 61 199 190 0 53 109 49 15 -19 -100 vhcurveto
            endchar
          </CharString>
          <CharString index="69">
            32 rmoveto
            37 callsubr
            vhcurveto
            return
          </CharString>
          <CharString index="70">
            -30 4 20 0 18 hhcurveto
            76 -15 callsubr
            hvcurveto
            return
          </CharString>
          <CharString index="71">
            38 -37 0 -12 vhcurveto
            -314 hlineto
            -11 -38 0 -37 -38 37 0 12 hvcurveto
            314 hlineto
            82 callgsubr
            hvcurveto
            return
          </CharString>
          <CharString index="72">
            -29 -70 callsubr
            return
          </CharString>
          <CharString index="73">
            16 callgsubr
            120 65 hstemhm
            109 74 0 84 -54 74 -74 84 95 74 -45 74 hintmask 0111101010000000
            495 175 rmoveto
            40 -9 104 -98 75 vhcurveto
            59 31 19 47 34 vvcurveto
            69 -86 41 -92 -50 -129 -16 -102 vhcurveto
            -67 -53 -21 callgsubr
            53 -301 -53 -81 callsubr
            85 -1 callgsubr
            451 vlineto
            18 0 13 36 15 vhcurveto
            10 23 26 2 19 hhcurveto
            61 44 -24 -22 -30 -41 -41 -72 -3 hvcurveto
            -14 -1 -24 -1 -31 vvcurveto
            hintmask 1010010001000000
            -26 22 -5 4 -1 vhcurveto
            27 -2 44 -3 42 -56 rrcurveto
            39 -52 2 -61 -17 vvcurveto
            -76 -61 -39 -47 vhcurveto
            hintmask 1000000101000000
            -10 -2 1 1 -4 hvcurveto
            23 0 4 -8 11 vhcurveto
            7 -6 -12 8 -15 hhcurveto
            -23 -20 -16 -28 -39 36 -37 64 90 92 70 110 hvcurveto
            endchar
          </CharString>
          <CharString index="74">
            28 0 32 return
          </CharString>
          <CharString index="75">
            -37 0 -23 -20 hvcurveto
            -80 -83 13 callsubr
            84 -232 hlineto
            -104 72 -35 71 86 69 60 74 vhcurveto
            return
          </CharString>
          <CharString index="76">
            -106 callsubr
            -21 return
          </CharString>
          <CharString index="77">
            33 9 8 34 hvcurveto
            return
          </CharString>
          <CharString index="78">
            16 callgsubr
            79 92 121 callsubr
            hintmask 0110001010000000
            -84 callgsubr
            hintmask 1010101010000000
            -91 callsubr
            hintmask 0100000000000000
            -37 callsubr
            hintmask 0001010100000000
            -292 -6 callgsubr
            return
          </CharString>
          <CharString index="79">
            0 65 114 65 40 65 197 65 hstemhm
            170 60 34 60 107 60 -52 60 hintmask 10110101
            499 69 callsubr
            -115 219 109 1 callgsubr
            -109 197 hlineto
            hintmask 11010110
            107 -54 hlineto
            -13 0 -29 30 30 0 29 13 vhcurveto
            77 vlineto
            -53 callgsubr
            -278 hlineto
            -15 -27 -29 callgsubr
            12 hvcurveto
            -96 -481 rlineto
            -25 -25 -29 callgsubr
            15 hvcurveto
            71 hlineto
            47 callsubr
            33 -26 0 -20 hvcurveto
            23 114 rlineto
            107 -114 hlineto
            -13 119 callgsubr
            26 0 16 hvcurveto
            191 hlineto
            hintmask 01011101
            -30 callsubr
            -235 202 rmoveto
            -94 hlineto
            60 302 rlineto
            34 hlineto
            endchar
          </CharString>
          <CharString index="80">
            556 -87 callsubr
            return
          </CharString>
          <CharString index="81">
            18 callgsubr
            hstemhm
            19 60 172 62 88 62 -19 61 -60 60 hintmask 00000001
            505 109 rmoveto
            17 -13 13 -17 -23 -5 -20 -9 -2 vhcurveto
            hintmask 11001100
            -30 -8 -16 -20 -20 hhcurveto
            -39 -42 53 76 -7 hvcurveto
            150 hlineto
            hintmask 11111001
            36 6 11 32 136 -50 71 -68 -38 -39 -23 -60 -30 hvcurveto
            60 -33 -42 23 -40 hhcurveto
            -79 -67 -93 -129 -129 67 -93 79 53 40 41 44 23 hvcurveto
            -32 17 38 -53 61 hhcurveto
            80 28 93 21 hvcurveto
            -61 144 rmoveto
            -131 hlineto
            66 8 33 55 33 hhcurveto
            hintmask 11111010
            31 23 -50 -71 3 hvcurveto
            -193 -30 rmoveto
            -94 -44 -69 -42 -42 -44 69 94 93 46 58 40 40 46 -58 -93 vhcurveto
            endchar
          </CharString>
          <CharString index="82">
            522 95 rmoveto
            34 -28 0 -9 -10 -26 0 -33 -1 vhcurveto
            -6 -2 -36 -15 return
          </CharString>
          <CharString index="83">
            rmoveto
            42 -51 12 -32 9 vhcurveto
            13 -49 -53 3 -51 hhcurveto
            -7 -8 0 -1 -7 hvcurveto
            -34 -5 -159 1 -75 vvcurveto
            -18 12 -14 25 34 -8 24 5 31 vhcurveto
            15 43 49 0 46 hhcurveto
            35 35 -3 -7 34 hvcurveto
            12 -2 15 -2 11 -6 6 -4 2 -8 5 -4 rrcurveto
            -6 7 9 -2 10 hhcurveto
            26 12 13 20 hvcurveto
            endchar
          </CharString>
          <CharString index="84">
            -5 65 -60 49 callsubr
            92 65 return
          </CharString>
          <CharString index="85">
            -24 hlineto
            -6 callsubr
            hvcurveto
            return
          </CharString>
          <CharString index="86">
            27 0 15 hvcurveto
            return
          </CharString>
          <CharString index="87">
            -4 callsubr
            hintmask 01000000
            -14 -15 -29 -24 -19 hhcurveto
            -10 -4 5 16 -17 hvcurveto
            hintmask 00100000
            12 -12 -20 21 -34 hhcurveto
            -24 -27 -12 -21 -28 hvcurveto
            -47 -37 -2 -10 -10 vvcurveto
            hintmask 01000000
            -17 16 -17 17 13 7 7 9 9 vhcurveto
            hintmask 00100000
            14 15 29 24 19 hhcurveto
            10 4 -5 -16 17 hvcurveto
            hintmask 01000000
            -93 callsubr
          </CharString>
          <CharString index="88">
            -26 callgsubr
            504 -73 callsubr
            -152 hlineto
            19 -22 -40 23 -53 hhcurveto
            -111 -96 -96 -125 hvcurveto
            return
          </CharString>
          <CharString index="89">
            65 301 65 return
          </CharString>
          <CharString index="90">
            65 481 65 return
          </CharString>
          <CharString index="91">
            -22 -6 -12 -34 -16 hvcurveto
            19 -23 -45 27 -59 hhcurveto
            -130 -111 -136 -180 -180 110 -137 132 113 89 85 95 hvcurveto
            return
          </CharString>
          <CharString index="92">
            hlineto
            37 callgsubr
            return
          </CharString>
          <CharString index="93">
            78 callsubr
            89 74 224 74 -53 74 hintmask 10111000
            482 168 rmoveto
            59 -37 69 -90 25 vhcurveto
            76 26 30 59 49 vvcurveto
            74 -61 82 -111 vhcurveto
            -226 -100 callsubr
            26 -481 -26 -100 callsubr
            246 hlineto
            hintmask 01110100
            114 59 91 77 hvcurveto
            -95 286 rmoveto
            -36 -27 -68 -97 vhcurveto
            -100 196 122 hlineto
            hintmask 11011000
            82 20 -61 -31 hvcurveto
            21 -284 rmoveto
            -48 -37 -57 -84 vhcurveto
            -124 220 135 hlineto
            hintmask 00000100
            82 28 -71 -44 hvcurveto
            endchar
          </CharString>
          <CharString index="94">
            -11 65 243 65 195 65 hstemhm
            44 74 -60 74 260 74 -60 74 hintmask 00101100
            480 175 rmoveto
            83 -76 54 -63 18 vhcurveto
            58 17 67 45 69 vvcurveto
            82 -84 79 -120 -120 -84 -79 -82 -69 67 -46 58 -16 vhcurveto
            hintmask 11010010
            -65 -19 -74 -55 -81 vvcurveto
            -98 92 -88 126 126 92 89 97 vhcurveto
            -88 285 rmoveto
            -55 -60 -43 -70 vhcurveto
            hintmask 10101100
            -70 -60 43 55 50 54 47 76 76 54 -47 -50 hvcurveto
            14 -284 rmoveto
            -66 -63 -56 -81 vhcurveto
            hintmask 01010010
            -81 -63 56 66 61 57 60 87 88 56 -60 -61 hvcurveto
            endchar
          </CharString>
          <CharString index="95">
            101 67 86 108 vhcurveto
            -37 3 28 -7 13 hhcurveto
            23 21 17 28 hvcurveto
            return
          </CharString>
          <CharString index="96">
            487 372 rmoveto
            19 -12 45 -83 -57 -63 -24 -54 -48 vhcurveto
            31 vlineto
            return
          </CharString>
          <CharString index="97">
            36 callgsubr
            hintmask 01010110
            -104 callsubr
            hintmask 10000000
            -42 callgsubr
            hintmask 01000000
            -80 callsubr
            hintmask 10100110
            -71 callgsubr
            hintmask 00001000
            return
          </CharString>
          <CharString index="98">
            66 callsubr
            hintmask 11011000
            -2 callsubr
            return
          </CharString>
          <CharString index="99">
            0 65 209 64 208 52 callgsubr
            -208 -27 hlineto
            -18 -14 -15 -17 103 callgsubr
            hvcurveto
            27 -209 56 callgsubr
            209 56 hlineto
            18 14 14 18 17 -14 15 -18 hvcurveto
            -56 208 117 callgsubr
          </CharString>
          <CharString index="100">
            -5 65 -60 62 callgsubr
            34 74 248 74 hintmask 01111100
            -19 callsubr
            hintmask 10000100
            5 callsubr
            hintmask 10101100
            25 callsubr
            return
          </CharString>
          <CharString index="101">
            -16 -26 -68 callsubr
            122 -60 callgsubr
            return
          </CharString>
          <CharString index="102">
            -80 -100 callsubr
            return
          </CharString>
          <CharString index="103">
            -105 callsubr
            -3 161 rmoveto
            17 -16 17 -17 -13 -7 -7 -9 -9 vhcurveto
            return
          </CharString>
          <CharString index="104">
            -47 -9 callgsubr
            -72 callsubr
            43 34 return
          </CharString>
          <CharString index="105">
            -95 callsubr
            hintmask 00100000
            return
          </CharString>
          <CharString index="106">
            -11 33 callsubr
            return
          </CharString>
          <CharString index="107">
            33 -27 0 return
          </CharString>
          <CharString index="108">
            324 28 callgsubr
            return
          </CharString>
          <CharString index="109">
            -2 hlineto
            -30 -1 -20 -24 -26 vvcurveto
            -17 9 -17 15 -9 vhcurveto
            -5 -5 -7 -4 -8 -2 rrcurveto
            return
          </CharString>
          <CharString index="110">
            469 216 rmoveto
            124 -94 99 -113 -113 -94 -99 -124 -112 77 -90 98 -16 vhcurveto
            -32 -27 -26 -39 -40 -9 callgsubr
            -72 callsubr
            45 23 40 37 22 hvcurveto
            99 15 79 91 113 vvcurveto
            -74 7 rmoveto
            -90 -60 -73 -73 -73 -60 73 90 89 64 62 69 70 63 -62 -89 vhcurveto
            return
          </CharString>
          <CharString index="111">
            -5 65 121 64 129 65 hstem
            53 76 257 78 vstem
            464 216 rmoveto
            124 -104 99 -128 -134 -45 -90 -24 -21 15 -9 22 14 13 0 22 9 vhcurveto
            57 24 64 0 11 hhcurveto
            58 84 -34 -95 20 hvcurveto
            -292 hlineto
            -20 -22 0 -38 -116 65 -96 129 122 95 102 119 hvcurveto
            -78 -35 rmoveto
            -82 -19 -63 -39 -57 hhcurveto
            -70 -41 46 75 -7 hvcurveto
            endchar
          </CharString>
          <CharString index="112">
            -123 90 -97 108 45 43 17 36 36 vhcurveto
            hintmask 01000000
            -31 0 -17 42 vhcurveto
            76 -15 callsubr
            hvcurveto
            -160 163 rmoveto
            return
          </CharString>
          <CharString index="113">
            rmoveto
            44 -28 32 -35 -29 -19 -22 -25 -28 20 -20 28 vhcurveto
            hintmask 01100000
            5 5 1 2 hhcurveto
            -4 -16 -13 -29 -39 -12 rrcurveto
            -6 -3 -14 -4 -17 vvcurveto
            -11 11 -13 15 24 77 39 84 vhcurveto
            endchar
          </CharString>
          <CharString index="114">
            209 530 rmoveto
            -101 callsubr
            199 -84 callsubr
            return
          </CharString>
          <CharString index="115">
            578 -55 callsubr
            return
          </CharString>
          <CharString index="116">
            133 rmoveto
            -101 callsubr
            199 -84 callsubr
            return
          </CharString>
          <CharString index="117">
            rmoveto
            34 -26 0 -16 vhcurveto
            -118 hlineto
            -15 -27 0 -33 -34 26 0 17 hvcurveto
            117 hlineto
            15 27 45 callgsubr
          </CharString>
          <CharString index="118">
            471 32 -55 callsubr
            -130 return
          </CharString>
          <CharString index="119">
            -38 -97 0 -38 -36 -26 0 -33 -21 14 -12 20 97 140 0 104 return
          </CharString>
          <CharString index="120">
            vlineto
            -16 -27 -68 callsubr
            return
          </CharString>
          <CharString index="121">
            rmoveto
            82 -62 56 -47 21 vhcurveto
            73 52 7 66 27 vvcurveto
            77 -76 66 -113 -123 -66 -49 -68 -30 22 -18 25 25 21 20 26 9 -3 11 -5 7 vhcurveto
            27 33 65 0 6 hhcurveto
            70 45 -37 -41 -28 -13 -41 -39 -25 hvcurveto
            -26 -17 -18 -1 -47 -3 rrcurveto
            -39 -2 -20 -2 -30 vvcurveto
            -33 27 0 15 vhcurveto
            return
          </CharString>
          <CharString index="122">
            32 rmoveto
            33 119 callsubr
            return
          </CharString>
          <CharString index="123">
            29 31 callsubr
            return
          </CharString>
          <CharString index="124">
            hstemhm
            29 62 -26 74 -62 62 -62 74 -51 74 153 74 32 62 return
          </CharString>
          <CharString index="125">
            450 15 callsubr
            -108 481 108 -63 callgsubr
            -290 -81 callsubr
            108 -481 -108 -81 callsubr
            117 hlineto
            57 callgsubr
            vhcurveto
            return
          </CharString>
          <CharString index="126">
            -25 callsubr
            -25 0 47 49 64 0 6 -9 24 vhcurveto
            -13 33 -29 23 -4 3 rrcurveto
            return
          </CharString>
          <CharString index="127">
            321 -21 209 102 hstem
            198 65 14 65 vstem
            342 496 rmoveto
            74 -35 41 -44 -36 -16 -29 -22 -6 2 -42 49 -3 vhcurveto
            13 hlineto
            2 -1 0 -6 -6 vvcurveto
            -27 -8 -65 -71 -42 vhcurveto
            -10 -5 -10 -6 -18 vvcurveto
            -18 17 -15 16 24 107 68 128 vhcurveto
            endchar
          </CharString>
          <CharString index="128">
            370 102 209 -20 hstem
            182 65 14 65 vstem
            346 648 rmoveto
            18 -17 15 -16 -24 -107 -68 -128 -74 35 -41 44 36 16 29 22 6 -2 42 -49 3 vhcurveto
            -13 hlineto
            -2 1 0 6 6 vvcurveto
            27 8 65 71 42 vhcurveto
            10 5 10 6 18 vvcurveto
            endchar
          </CharString>
          <CharString index="129">
            70 callsubr
            481 65 hstemhm
            return
          </CharString>
          <CharString index="130">
            129 64 121 65 return
          </CharString>
          <CharString index="131">
            21 -16 16 -21 126 callsubr
            vhcurveto
            -315 -571 rlineto
            -3 -5 -2 -7 -6 vvcurveto
            -20 17 -17 20 14 12 8 11 7 vhcurveto
            return
          </CharString>
          <CharString index="132">
            -54 -45 -81 -75 -69 -59 68 87 89 65 67 73 60 50 -52 -54 vhcurveto
            return
          </CharString>
          <CharString index="133">
            76 callgsubr
            197 65 return
          </CharString>
          <CharString index="134">
            hstemhm
            94 74 70 74 44 74 return
          </CharString>
          <CharString index="135">
            103 44 -70 -51 -63 -57 -59 -86 -26 -76 4 48 -35 hvcurveto
            2 3 6 9 0 2 2 10 rlinecurve
            0 1 3 4 vvcurveto
            25 -20 21 -26 -24 -23 -15 -34 -88 94 -57 125 130 87 91 95 vhcurveto
            endchar
          </CharString>
          <CharString index="136">
            rmoveto
            -20 callgsubr
            return
          </CharString>
          <CharString index="137">
            14 29 0 32 return
          </CharString>
          <CharString index="138">
            vlineto
            47 callsubr
            return
          </CharString>
          <CharString index="139">
            19 -17 18 -20 vhcurveto
            0 -5 0 -2 -1 vhcurveto
            -12 -2 -9 -8 -9 -7 -48 -36 rcurveline
            -13 -9 -15 -10 -17 vvcurveto
            -19 18 -22 20 vhcurveto
            4 hlineto
            33 6 67 62 4 10 rrcurveto
            3 5 1 6 5 vvcurveto
            return
          </CharString>
          <CharString index="140">
            65 503 65 return
          </CharString>
          <CharString index="141">
            679 vlineto
            11 0 38 -37 -38 0 -37 -12 vhcurveto
            -679 vlineto
            -11 0 -38 37 38 0 37 12 vhcurveto
            return
          </CharString>
          <CharString index="142">
            -44 -19 -23 -8 -8 -19 23 44 44 19 23 8 8 19 -23 -44 vhcurveto
            return
          </CharString>
          <CharString index="143">
            -211 -21 105 94 return
          </CharString>
          <CharString index="144">
            0 callsubr
            -15 return
          </CharString>
          <CharString index="145">
            165 299 -105 callsubr
            return
          </CharString>
          <CharString index="146">
            46 13 36 37 50 vvcurveto
            30 -10 38 -40 vhcurveto
            return
          </CharString>
          <CharString index="147">
            0 26 callsubr
            return
          </CharString>
          <CharString index="148">
            9 callsubr
            endchar
          </CharString>
          <CharString index="149">
            74 -47 74 15 74 cntrmask 11100000
            return
          </CharString>
          <CharString index="150">
            -5 61 callgsubr
            return
          </CharString>
          <CharString index="151">
            55 74 266 74 return
          </CharString>
          <CharString index="152">
            vlineto
            -18 0 -22 33 -2 vhcurveto
            hintmask 00011000
            59 callsubr
            return
          </CharString>
          <CharString index="153">
            156 -44 74 -74 156 -126 74 return
          </CharString>
          <CharString index="154">
            15 -33 callsubr
            return
          </CharString>
          <CharString index="155">
            -14 callgsubr
            hstem
            return
          </CharString>
          <CharString index="156">
            65 152 65 return
          </CharString>
          <CharString index="157">
            83 callgsubr
            123 -20 hstemhm
            151 74 return
          </CharString>
          <CharString index="158">
            8 -10 -10 7 -13 hhcurveto
            hintmask 11000000
            -7 -1 rlineto
            -18 -3 -12 -17 -17 vvcurveto
            -21 18 -10 14 -11 vhcurveto
            -18 25 36 -34 19 hhcurveto
            21 18 26 17 hvcurveto
            return
          </CharString>
          <CharString index="159">
            -102 callsubr
            endchar
          </CharString>
          <CharString index="160">
            15 0 27 -32 return
          </CharString>
          <CharString index="161">
            -227 65 18 65 445 65 return
          </CharString>
          <CharString index="162">
            24 0 33 hvcurveto
            return
          </CharString>
          <CharString index="163">
            hlineto
            -16 -26 -68 callsubr
            return
          </CharString>
          <CharString index="164">
            349 -21 294 -20 hstem
            return
          </CharString>
          <CharString index="165">
            33 callsubr
            hstemhm
            52 70 253 70 -43 70 return
          </CharString>
          <CharString index="166">
            38 -2 27 -14 -22 vvcurveto
            12 callsubr
            72 callsubr
            return
          </CharString>
          <CharString index="167">
            65 492 65 return
          </CharString>
          <CharString index="168">
            65 callgsubr
            hstemhm
            return
          </CharString>
          <CharString index="169">
            65 68 65 139 65 -23 65 return
          </CharString>
          <CharString index="170">
            84 41 46 40 20 13 -14 -62 vhcurveto
            -230 vlineto
            -9 -35 callsubr
            -21 callsubr
            71 -60 callgsubr
            return
          </CharString>
          <CharString index="171">
            hstem
            56 412 vstem
            468 return
          </CharString>
          <CharString index="172">
            83 callgsubr
            110 65 return
          </CharString>
          <CharString index="173">
            hstemhm
            44 callsubr
            return
          </CharString>
          <CharString index="174">
            485 301 rmoveto
            160 -86 150 -133 vhcurveto
            -207 -100 callsubr
            21 return
          </CharString>
          <CharString index="175">
            38 -37 0 -12 vhcurveto
            -76 hlineto
            -11 -38 0 -37 -38 37 0 12 hvcurveto
            76 81 callsubr
          </CharString>
          <CharString index="176">
            42 rmoveto
            93 vlineto
            13 0 29 -30 -30 0 -29 -13 vhcurveto
            -70 return
          </CharString>
          <CharString index="177">
            -200 102 98 65 return
          </CharString>
          <CharString index="178">
            hlineto
            -20 -17 -17 -20 -21 17 -16 20 hvcurveto
            return
          </CharString>
          <CharString index="179">
            38 -24 45 -74 15 vhcurveto
            return
          </CharString>
          <CharString index="180">
            509 144 rmoveto
            20 -16 17 -21 -20 -17 -17 -20 -39 -8 -42 -33 -47 -37 27 27 -37 vhcurveto
            return
          </CharString>
          <CharString index="181">
            49 callsubr
            286 65 hstemhm
            127 callgsubr
            return
          </CharString>
          <CharString index="182">
            hstemhm
            56 74 263 74 -74 100 return
          </CharString>
          <CharString index="183">
            hlineto
            14 110 rlineto
            39 5 -25 11 -17 hhcurveto
            -33 -4 -32 -11 -1 hvcurveto
            -15 -117 rlineto
            return
          </CharString>
          <CharString index="184">
            hstem
            166 50 94 50 vstem
            310 return
          </CharString>
          <CharString index="185">
            0 61 callsubr
            return
          </CharString>
          <CharString index="186">
            -1 callsubr
            hstemhm
            return
          </CharString>
          <CharString index="187">
            511 rmoveto
            -45 -19 -23 -8 -9 -18 24 43 45 19 23 8 9 18 -24 -43 vhcurveto
            return
          </CharString>
          <CharString index="188">
            hlineto
            82 callgsubr
            hvcurveto
            endchar
          </CharString>
          <CharString index="189">
            74 264 74 return
          </CharString>
          <CharString index="190">
            70 -16 70 hstemhm
            return
          </CharString>
          <CharString index="191">
            65 205 65 0 65 157 65 hstemhm
            85 74 239 74 hintmask 00111000
            472 return
          </CharString>
          <CharString index="192">
            501 33 callgsubr
            21 -20 hstemhm
            hintmask 00100000
            return
          </CharString>
          <CharString index="193">
            hlineto
            19 0 23 -37 return
          </CharString>
          <CharString index="194">
            16 -1 16 -3 35 -8 rrcurveto
            -6 24 28 -6 20 hhcurveto
            41 4 29 6 hvcurveto
            return
          </CharString>
          <CharString index="195">
            hlineto
            -14 -122 rlineto
            -21 16 -17 22 32 4 26 36 4 vhcurveto
            12 98 rlineto
            return
          </CharString>
          <CharString index="196">
            0 40 445 40 hstem
            0 40 return
          </CharString>
          <CharString index="197">
            -62 -21 777 -20 hstem
            return
          </CharString>
          <CharString index="198">
            rmoveto
            11 -7 25 -38 -20 -28 -6 -6 -24 vhcurveto
            -35 -8 -16 -3 -16 -1 return
          </CharString>
          <CharString index="199">
            125 callgsubr
            132 92 return
          </CharString>
          <CharString index="200">
            hlineto
            114 callgsubr
            -17 14 -15 18 hvcurveto
            return
          </CharString>
          <CharString index="201">
            106 74 234 74 return
          </CharString>
          <CharString index="202">
            hlineto
            34 -8 9 -35 vhcurveto
            -29 hlineto
            -25 -6 -1 -21 -13 hvcurveto
            -225 return
          </CharString>
          <CharString index="203">
            74 -15 callsubr
            hvcurveto
            -176 33 rmoveto
            -215 hlineto
            215 return
          </CharString>
          <CharString index="204">
            13 9 4 18 -10 14 rlinecurve
            1 vlineto
            -9 13 -18 4 -13 -9 return
          </CharString>
          <CharString index="205">
            238 -50 callgsubr
            return
          </CharString>
          <CharString index="206">
            12 callgsubr
            70 68 return
          </CharString>
          <CharString index="207">
            rmoveto
            17 -13 0 -8 vhcurveto
            return
          </CharString>
          <CharString index="208">
            53 callsubr
            -23 return
          </CharString>
          <CharString index="209">
            -11 60 callsubr
            return
          </CharString>
          <CharString index="210">
            vvcurveto
            hintmask 11101000
            -41 34 0 6 vhcurveto
            hintmask 11110000
            16 25 6 35 return
          </CharString>
          <CharString index="211">
            rlineto
            -9 -13 0 -2 -21 vvcurveto
            -29 4 -14 38 vhcurveto
            248 return
          </CharString>
          <CharString index="212">
            -20 hstem
            259 60 0 60 0 60 cntrmask 00011100
            495 return
          </CharString>
          <CharString index="213">
            36 callsubr
            33 31 callgsubr
            return
          </CharString>
          <CharString index="214">
            16 -7 -17 0 -9 hhcurveto
            -37 0 -23 -19 hvcurveto
            -45 vlineto
            return
          </CharString>
          <CharString index="215">
            70 callsubr
            301 65 return
          </CharString>
          <CharString index="216">
            -11 49 callsubr
            286 65 return
          </CharString>
          <CharString index="217">
            305 rmoveto
            38 -37 0 -12 vhcurveto
            return
          </CharString>
          <CharString index="218">
            -13 -17 hvcurveto
            -4 vlineto
            return
          </CharString>
          <CharString index="219">
            72 74 232 74 return
          </CharString>
          <CharString index="220">
            65 208 65 return
          </CharString>
          <CharString index="221">
            38 68 38 hstem
            -359 50 94 50 vstem
            -215 return
          </CharString>
          <CharString index="222">
            -40 -26 -14 -37 -31 vvcurveto
            -31 14 -43 47 -25 vhcurveto
            return
          </CharString>
          <CharString index="223">
            vlineto
            -16 0 -19 18 18 0 21 14 vhcurveto
            810 return
          </CharString>
          <CharString index="224">
            hlineto
            47 callsubr
            hvcurveto
            endchar
          </CharString>
          <CharString index="225">
            212 102 vstem
            314 return
          </CharString>
          <CharString index="226">
            -28 0 -15 vhcurveto
            return
          </CharString>
          <CharString index="227">
            38 79 37 -15 36 0 37 -37 38 -33 37 return
          </CharString>
          <CharString index="228">
            hstemhm
            94 74 -36 129 callgsubr
            -37 74 return
          </CharString>
          <CharString index="229">
            -13 -9 -4 -18 9 -14 rlinecurve
            1 hlineto
            8 -13 return
          </CharString>
          <CharString index="230">
            0 134 callsubr
            return
          </CharString>
          <CharString index="231">
            57 57 51 77 80 52 -65 -72 vhcurveto
            endchar
          </CharString>
          <CharString index="232">
            65 110 65 hstem
            94 74 return
          </CharString>
          <CharString index="233">
            -14 -12 -8 -11 -6 return
          </CharString>
          <CharString index="234">
            127 hstem
            199 return
          </CharString>
          <CharString index="235">
            315 571 rlineto
            return
          </CharString>
          <CharString index="236">
            -200 102 93 65 return
          </CharString>
          <CharString index="237">
            18 -14 14 -18 return
          </CharString>
          <CharString index="238">
            -61 -21 776 -20 21 -20 hstemhm
            hintmask 00100000
            return
          </CharString>
          <CharString index="239">
            hlineto
            -18 -14 -10 -12 -12 14 -10 18 hvcurveto
            return
          </CharString>
          <CharString index="240">
            hvcurveto
            1 2 3 4 0 1 1 5 rlinecurve
            return
          </CharString>
          <CharString index="241">
            26 callsubr
            hstemhm
            94 74 return
          </CharString>
          <CharString index="242">
            24 -19 28 -30 vhcurveto
            -3 -3 -1 -3 hhcurveto
            return
          </CharString>
          <CharString index="243">
            vlineto
            17 0 18 -23 -22 0 -19 -16 vhcurveto
            return
          </CharString>
          <CharString index="244">
            92 hstem
            -393 92 77 92 vstem
            -301 return
          </CharString>
          <CharString index="245">
            68 41 -20 hstemhm
            return
          </CharString>
        <CharString name=".notdef">
          173 endchar
        </CharString>
        <CharString name="A">
          12 callgsubr
          hstem
          28 468 vstem
          -106 callgsubr
          endchar
        </CharString>
        <CharString name="AE">
          -28 callsubr
        </CharString>
        <CharString name="AE.dup">
          -28 callsubr
        </CharString>
        <CharString name="AEacute">
          0 65 114 65 40 65 197 65 85 44 callgsubr
          170 60 34 60 107 60 -52 60 hintmask 1011000101000000
          499 69 callsubr
          -115 219 109 1 callgsubr
          -109 197 hlineto
          hintmask 1101000110000000
          107 -54 hlineto
          -13 0 -29 30 30 0 29 13 vhcurveto
          77 vlineto
          -53 callgsubr
          -278 hlineto
          -15 -27 -29 callgsubr
          12 hvcurveto
          -96 -481 rlineto
          -25 -25 -29 callgsubr
          15 hvcurveto
          71 hlineto
          47 callsubr
          33 -26 0 -20 hvcurveto
          23 114 rlineto
          107 -114 hlineto
          -13 119 callgsubr
          26 0 16 hvcurveto
          191 hlineto
          hintmask 0101001101000000
          -30 callsubr
          -235 202 rmoveto
          -94 hlineto
          60 302 rlineto
          34 hlineto
          hintmask 0000110000000000
          106 223 -107 callgsubr
        </CharString>
        <CharString name="Aacute">
          12 callgsubr
          91 44 callgsubr
          28 468 hintmask 11100100
          -106 callgsubr
          hintmask 00011000
          94 315 -107 callgsubr
        </CharString>
        <CharString name="Abreve">
          99 callsubr
          41 -20 84 callgsubr
          hintmask 11100100
          -106 callgsubr
          hintmask 00011000
          38 callsubr
          endchar
        </CharString>
        <CharString name="Abreveacute">
          99 callsubr
          66 68 58 -20 84 callgsubr
          hintmask 11100010
          -106 callgsubr
          hintmask 00011100
          165 299 -53 callsubr
        </CharString>
        <CharString name="Abrevedotbelow">
          70 callsubr
          94 65 401 -20 70 68 41 -20 84 callgsubr
          -284 102 hintmask 01111110
          -106 callgsubr
          38 callsubr
          hintmask 10000001
          -127 -902 rmoveto
          52 callsubr
        </CharString>
        <CharString name="Abrevegrave">
          99 callsubr
          41 -20 45 68 84 callgsubr
          hintmask 11100010
          -106 callgsubr
          hintmask 00011100
          165 299 -52 callgsubr
        </CharString>
        <CharString name="Abrevehookabove">
          99 callsubr
          205 68 84 callgsubr
          hintmask 11100100
          -106 callgsubr
          hintmask 00011000
          38 callsubr
          -79 181 -107 callsubr
        </CharString>
        <CharString name="Abrevetilde">
          99 callsubr
          81 70 -16 70 84 callgsubr
          hintmask 11100010
          -106 callgsubr
          hintmask 00010100
          165 299 rmoveto
          13 -8 18 -25 -29 -4 -29 0 vhcurveto
          -12 -26 -36 0 -50 hhcurveto
          -50 -36 0 12 -26 hvcurveto
          0 -4 29 -29 -23 -10 -15 -17 -77 108 0 70 72 106 0 78 vhcurveto
          -3 161 -34 callgsubr
        </CharString>
        <CharString name="Acaron">
          12 callgsubr
          84 callgsubr
          vstemhm
          -106 callgsubr
          114 256 -83 callsubr
        </CharString>
        <CharString name="Acircumflex">
          12 callgsubr
          84 callgsubr
          vstemhm
          -106 callgsubr
          115 269 -106 callsubr
          endchar
        </CharString>
        <CharString name="Acircumflexacute">
          12 callgsubr
          313 -20 84 callgsubr
          hintmask 11101000
          -106 callgsubr
          hintmask 00010000
          115 269 -31 callsubr
          158 -107 callgsubr
        </CharString>
        <CharString name="Acircumflexdotbelow">
          70 callsubr
          94 65 401 -20 84 callgsubr
          -284 102 hintmask 01111000
          -106 callgsubr
          115 269 -106 callsubr
          hintmask 10000100
          -77 -872 rmoveto
          52 callsubr
        </CharString>
        <CharString name="Acircumflexgrave">
          12 callgsubr
          84 callgsubr
          vstemhm
          -106 callgsubr
          115 269 -85 callsubr
        </CharString>
        <CharString name="Acircumflexhookabove">
          12 callgsubr
          394 -20 84 callgsubr
          hintmask 11101000
          -106 callgsubr
          hintmask 00010000
          115 269 -106 callsubr
          69 194 -107 callsubr
        </CharString>
        <CharString name="Acircumflextilde">
          12 callgsubr
          202 70 -16 70 84 callgsubr
          hintmask 11100100
          -106 callgsubr
          hintmask 00001000
          115 269 -106 callsubr
          47 174 -94 callgsubr
        </CharString>
        <CharString name="Adblgrave">
          12 callgsubr
          84 callgsubr
          vstemhm
          -106 callgsubr
          117 233 -99 callgsubr
        </CharString>
        <CharString name="Adieresis">
          12 callgsubr
          84 callgsubr
          -379 92 107 92 hintmask 11110000
          -106 callgsubr
          hintmask 00001100
          -67 257 -70 callgsubr
        </CharString>
        <CharString name="Adotbelow">
          70 callsubr
          94 65 401 -20 84 callgsubr
          -284 102 hintmask 01111000
          -106 callgsubr
          hintmask 10000100
          38 -603 rmoveto
          52 callsubr
        </CharString>
        <CharString name="Agrave">
          12 callgsubr
          91 44 callgsubr
          28 468 hintmask 11100100
          -106 callgsubr
          hintmask 00011000
          93 263 -100 callgsubr
        </CharString>
        <CharString name="Ahookabove">
          12 callgsubr
          92 94 callgsubr
          28 468 hintmask 11100100
          -106 callgsubr
          hintmask 00011000
          85 372 -107 callsubr
        </CharString>
        <CharString name="Alpha">
          12 callgsubr
          hstem
          28 468 vstem
          -106 callgsubr
          endchar
        </CharString>
        <CharString name="Amacron">
          12 callgsubr
          84 callgsubr
          vstemhm
          -106 callgsubr
          176 264 -89 callsubr
        </CharString>
        <CharString name="Aogonek">
          -46 callgsubr
          endchar
        </CharString>
        <CharString name="Aogonekacute">
          -46 callgsubr
          hintmask 1110000000000000
          94 315 -107 callgsubr
        </CharString>
        <CharString name="Aring">
          0 65 94 65 401 38 68 38 84 callgsubr
          -330 50 94 50 hintmask 11101000
          47 callgsubr
          -15 -27 0 -32 -33 26 0 16 hvcurveto
          109 -43 callgsubr
          21 94 rlineto
          154 hlineto
          hintmask 10000010
          21 -94 rlineto
          -40 callgsubr
          109 hlineto
          hintmask 01001000
          -23 callgsubr
          32 hvcurveto
          -172 192 rmoveto
          -125 hlineto
          26 115 33 154 4 39 rrcurveto
          1 hlineto
          2 -23 10 -48 1 -7 rrcurveto
          hintmask 00110110
          34 243 -47 callsubr
        </CharString>
        <CharString name="Aringacute">
          0 65 94 65 401 38 68 38 76 38 37 -20 84 callgsubr
          -330 50 94 50 hintmask 1110001000000000
          47 callgsubr
          -15 -27 0 -32 -33 26 0 16 hvcurveto
          109 -43 callgsubr
          21 94 rlineto
          154 hlineto
          hintmask 1000000010000000
          21 -94 rlineto
          -40 callgsubr
          109 hlineto
          hintmask 0100001000000000
          -23 callgsubr
          32 hvcurveto
          -172 192 rmoveto
          -125 hlineto
          26 115 33 154 4 39 rrcurveto
          1 hlineto
          2 -23 10 -48 1 -7 rrcurveto
          hintmask 0011110110000000
          34 243 -73 callgsubr
          10 186 -107 callgsubr
        </CharString>
        <CharString name="Atilde">
          12 callgsubr
          60 70 -16 70 84 callgsubr
          hintmask 11100100
          -106 callgsubr
          hintmask 00001000
          162 301 -94 callgsubr
        </CharString>
        <CharString name="B">
          -14 callsubr
        </CharString>
        <CharString name="Beta">
          -14 callsubr
        </CharString>
        <CharString name="C">
          75 callgsubr
          294 76 -74 74 hintmask 11101000
          -59 callsubr
          hintmask 11110000
          -16 callsubr
          endchar
        </CharString>
        <CharString name="Cacute">
          120 callgsubr
          40 74 294 76 -74 74 hintmask 11001010
          -59 callsubr
          hintmask 11001100
          -16 callsubr
          hintmask 00110000
          -87 600 -107 callgsubr
        </CharString>
        <CharString name="Ccaron">
          75 callgsubr
          294 76 -74 74 hintmask 11101000
          -59 callsubr
          hintmask 11110000
          -16 callsubr
          hintmask 00000000
          -67 541 -83 callsubr
        </CharString>
        <CharString name="Ccedilla">
          75 callgsubr
          157 74 24 74 -35 76 -74 74 hintmask 11100010
          -59 callsubr
          hintmask 11110100
          -22 -6 -12 -34 -16 hvcurveto
          19 -23 -45 27 -59 hhcurveto
          -130 -111 -136 -180 -175 104 -134 127 -8 hvcurveto
          -13 45 callsubr
          4 vlineto
          hintmask 00000010
          81 25 58 70 76 vvcurveto
          endchar
        </CharString>
        <CharString name="Ccircumflex">
          75 callgsubr
          294 76 -74 74 hintmask 11101000
          -59 callsubr
          hintmask 11110000
          -16 callsubr
          hintmask 00000000
          -66 554 -106 callsubr
          endchar
        </CharString>
        <CharString name="Cdotaccent">
          75 callgsubr
          125 102 67 76 -74 74 hintmask 11100100
          -59 callsubr
          hintmask 11101000
          -16 callsubr
          hintmask 00010000
          -143 558 rmoveto
          52 callsubr
        </CharString>
        <CharString name="Chi">
          -17 callgsubr
        </CharString>
        <CharString name="D">
          0 65 481 65 hstem
          80 74 257 74 vstem
          -45 callgsubr
          endchar
        </CharString>
        <CharString name="Dcaron">
          49 callgsubr
          80 74 257 74 vstemhm
          -45 callgsubr
          -83 409 -83 callsubr
        </CharString>
        <CharString name="Dcroat">
          -8 callsubr
        </CharString>
        <CharString name="Ddotbelow">
          22 callsubr
          80 74 -4 102 159 74 hintmask 01110100
          -45 callgsubr
          hintmask 10001000
          -159 -450 rmoveto
          52 callsubr
        </CharString>
        <CharString name="Delta">
          0 72 553 -20 hstem
          34 456 vstem
          490 23 rmoveto
          -169 564 rlineto
          38 -11 -22 0 -26 hhcurveto
          -31 -16 -1 -37 -11 hvcurveto
          -166 -548 rlineto
          -2 -6 -2 -6 -4 vvcurveto
          -23 24 0 13 vhcurveto
          382 hlineto
          17 17 0 23 3 hvcurveto
          -91 49 rmoveto
          -274 hlineto
          103 344 rlineto
          27 91 6 27 0 vvcurveto
          2 hlineto
          1 -7 8 -31 24 -80 rrcurveto
          endchar
        </CharString>
        <CharString name="Dlinebelow">
          49 callgsubr
          80 74 257 74 vstemhm
          -45 callgsubr
          -21 -450 -89 callsubr
        </CharString>
        <CharString name="E">
          123 callsubr
          126 74 38 74 -52 74 hintmask 11111010
          -98 callgsubr
          hintmask 10110100
          -96 callgsubr
          hintmask 00000010
          -30 callsubr
          endchar
        </CharString>
        <CharString name="Eacute">
          40 callsubr
          85 -21 131 122 callgsubr
          hintmask 1110011010000000
          -98 callgsubr
          hintmask 1010010100000000
          -96 callgsubr
          hintmask 0000000010000000
          -30 callsubr
          hintmask 0001100000000000
          -132 727 -107 callgsubr
        </CharString>
        <CharString name="Ebreve">
          40 callsubr
          64 68 41 122 callgsubr
          hintmask 1110011010000000
          -98 callgsubr
          hintmask 1010010100000000
          -96 callgsubr
          hintmask 0000000010000000
          -30 callsubr
          hintmask 0001100000000000
          -61 711 -105 callsubr
          endchar
        </CharString>
        <CharString name="Ecaron">
          123 callsubr
          126 74 38 74 -52 74 hintmask 11111010
          -98 callgsubr
          hintmask 10110100
          -96 callgsubr
          hintmask 00000010
          -30 callsubr
          hintmask 00000000
          -112 668 -83 callsubr
        </CharString>
        <CharString name="Ecircumflex">
          123 callsubr
          126 74 38 74 -52 74 hintmask 11111010
          -98 callgsubr
          hintmask 10110100
          -96 callgsubr
          hintmask 00000010
          -30 callsubr
          hintmask 00000000
          -111 681 -106 callsubr
          endchar
        </CharString>
        <CharString name="Ecircumflexacute">
          40 callsubr
          307 122 callgsubr
          hintmask 11101101
          -98 callgsubr
          hintmask 10101010
          -96 callgsubr
          hintmask 00000001
          -30 callsubr
          hintmask 00010000
          -111 681 -31 callsubr
          158 -107 callgsubr
        </CharString>
        <CharString name="Ecircumflexdotbelow">
          -200 102 98 134 callsubr
          44 102 -20 74 38 74 -52 74 hintmask 0111101010000000
          -98 callgsubr
          hintmask 0101100100000000
          -96 callgsubr
          hintmask 0000000010000000
          -30 callsubr
          -111 681 -106 callsubr
          hintmask 1000010000000000
          -77 -872 rmoveto
          52 callsubr
        </CharString>
        <CharString name="Ecircumflexgrave">
          123 callsubr
          126 74 38 74 -52 74 hintmask 11111010
          -98 callgsubr
          hintmask 10110100
          -96 callgsubr
          hintmask 00000010
          -30 callsubr
          hintmask 00000000
          -111 681 -85 callsubr
        </CharString>
        <CharString name="Ecircumflexhookabove">
          40 callsubr
          388 122 callgsubr
          hintmask 11101101
          -98 callgsubr
          hintmask 10101010
          -96 callgsubr
          hintmask 00000001
          -30 callsubr
          hintmask 00010000
          -111 681 -106 callsubr
          69 194 -107 callsubr
        </CharString>
        <CharString name="Ecircumflextilde">
          40 callsubr
          196 70 -16 70 -5 callgsubr
          hintmask 1110011010000000
          -98 callgsubr
          hintmask 1010010100000000
          -96 callgsubr
          hintmask 0000000010000000
          -30 callsubr
          hintmask 0000100000000000
          -111 681 -106 callsubr
          47 174 -38 callgsubr
        </CharString>
        <CharString name="Edblgrave">
          123 callsubr
          126 74 38 74 -52 74 hintmask 11111010
          -98 callgsubr
          hintmask 10110100
          -96 callgsubr
          hintmask 00000010
          -30 callsubr
          hintmask 00000000
          -80 645 -99 callgsubr
        </CharString>
        <CharString name="Edieresis">
          123 callsubr
          -51 92 85 74 -52 92 -2 74 -52 74 hintmask 1111010010000000
          -98 callgsubr
          hintmask 1011000100000000
          -96 callgsubr
          hintmask 0000000010000000
          -30 callsubr
          hintmask 0000101000000000
          -293 669 -70 callgsubr
        </CharString>
        <CharString name="Edotaccent">
          123 callsubr
          44 102 -20 74 38 74 -52 74 hintmask 11110101
          -98 callgsubr
          hintmask 10110010
          -96 callgsubr
          hintmask 00000001
          -30 callsubr
          hintmask 00001000
          -188 685 rmoveto
          52 callsubr
        </CharString>
        <CharString name="Edotbelow">
          -200 102 98 134 callsubr
          44 102 -20 74 38 74 -52 74 hintmask 0111101010000000
          -98 callgsubr
          hintmask 0101100100000000
          -96 callgsubr
          hintmask 0000000010000000
          -30 callsubr
          hintmask 1000010000000000
          -188 -191 rmoveto
          52 callsubr
        </CharString>
        <CharString name="Egrave">
          40 callsubr
          85 -21 131 122 callgsubr
          hintmask 1110011010000000
          -98 callgsubr
          hintmask 1010010100000000
          -96 callgsubr
          hintmask 0000000010000000
          -30 callsubr
          hintmask 0001100000000000
          -133 675 -100 callgsubr
        </CharString>
        <CharString name="Ehookabove">
          40 callsubr
          86 -21 232 122 callgsubr
          hintmask 1110011010000000
          -98 callgsubr
          hintmask 1010010100000000
          -96 callgsubr
          hintmask 0000000010000000
          -30 callsubr
          hintmask 0001100000000000
          -141 784 -107 callsubr
        </CharString>
        <CharString name="Emacron">
          123 callsubr
          126 74 38 74 -52 74 hintmask 11111010
          -98 callgsubr
          hintmask 10110100
          -96 callgsubr
          hintmask 00000010
          -30 callsubr
          hintmask 00000000
          -50 676 -89 callsubr
        </CharString>
        <CharString name="Eng">
          -11 92 -81 -17 callsubr
          -63 74 hstemhm
          94 74 246 74 hintmask 00011000
          488 306 rmoveto
          156 -61 160 -138 -47 -42 -18 -29 -32 vhcurveto
          hintmask 01101000
          28 -1 -9 8 -32 hhcurveto
          -86 callgsubr
          -481 -75 callgsubr
          367 hlineto
          hintmask 10010100
          64 10 47 52 64 hhcurveto
          100 25 -126 -116 -91 0 -109 -38 -33 hvcurveto
          5 -7 -9 3 -10 hhcurveto
          -25 -21 -21 -25 -25 21 -21 25 128 10 168 149 hvcurveto
          endchar
        </CharString>
        <CharString name="Eogonek">
          104 callgsubr
          67 callgsubr
          18 74 -54 74 -52 74 hintmask 0111011001000000
          -98 callgsubr
          hintmask 0001000010000000
          98 callsubr
          hintmask 1100110100000000
          -87 callgsubr
          288 hlineto
          -42 -33 -24 -28 -47 -9 callgsubr
          -72 callsubr
          43 33 36 53 31 hvcurveto
          28 hlineto
          hintmask 0000000001000000
          -30 callsubr
          endchar
        </CharString>
        <CharString name="Eogonekacute">
          104 callgsubr
          85 86 callgsubr
          126 74 18 74 -54 74 -52 74 hintmask 0111000110010000
          -98 callgsubr
          hintmask 0001000000100000
          98 callsubr
          hintmask 1100100101000000
          -87 callgsubr
          288 hlineto
          -42 -33 -24 -28 -47 -9 callgsubr
          -72 callsubr
          43 33 36 53 31 hvcurveto
          28 hlineto
          hintmask 0000000000010000
          -30 callsubr
          hintmask 0000011000000000
          -132 727 -107 callgsubr
        </CharString>
        <CharString name="Epsilon">
          123 callsubr
          126 74 38 74 -52 74 hintmask 11111010
          -98 callgsubr
          hintmask 10110100
          -96 callgsubr
          hintmask 00000010
          -30 callsubr
          endchar
        </CharString>
        <CharString name="Ereversed">
          40 callsubr
          hstemhm
          22 74 -52 74 38 74 126 74 hintmask 11101110
          502 33 rmoveto
          32 119 callsubr
          -29 481 29 hlineto
          16 27 23 callgsubr
          -373 hlineto
          -34 -8 -9 -33 hvcurveto
          -77 -22 callgsubr
          54 238 -197 -126 vlineto
          38 0 19 -37 -37 0 -23 -19 vhcurveto
          -95 vlineto
          -19 0 -23 37 37 0 19 38 vhcurveto
          126 -219 hlineto
          hintmask 10010000
          -260 70 hlineto
          -49 callgsubr
          -23 -19 vhcurveto
          -93 vlineto
          -34 9 -8 33 vhcurveto
          395 hlineto
          16 27 45 callgsubr
        </CharString>
        <CharString name="Eta">
          0 65 callgsubr
          hstem
          130 callgsubr
          vstem
          -90 callsubr
          endchar
        </CharString>
        <CharString name="Eth">
          -8 callsubr
        </CharString>
        <CharString name="Etilde">
          40 callsubr
          54 70 -16 70 -5 callgsubr
          hintmask 1110011010000000
          -98 callgsubr
          hintmask 1010010100000000
          -96 callgsubr
          hintmask 0000000010000000
          -30 callsubr
          hintmask 0000100000000000
          -64 713 -38 callgsubr
        </CharString>
        <CharString name="Euro">
          -11 64 155 64 68 64 154 64 hstem
          116 74 203 74 vstem
          467 20 rmoveto
          91 vlineto
          17 -14 14 -17 vhcurveto
          -12 hlineto
          -16 -13 -12 -15 -2 hvcurveto
          -36 -4 -33 -26 -38 hhcurveto
          -39 -27 33 34 -19 hvcurveto
          -16 28 -10 29 -7 31 rrcurveto
          135 hlineto
          11 10 7 11 2 hvcurveto
          5 22 rlineto
          13 2 -12 11 -14 hhcurveto
          -148 hlineto
          -1 11 0 11 12 vvcurveto
          11 0 11 1 12 vhcurveto
          175 hlineto
          12 10 7 11 2 hvcurveto
          4 22 rlineto
          13 3 -12 11 -15 hhcurveto
          -170 hlineto
          7 30 10 29 16 28 rrcurveto
          34 19 27 33 39 hhcurveto
          38 33 -25 -37 4 hvcurveto
          -15 2 13 -12 16 hhcurveto
          12 hlineto
          17 14 14 17 hvcurveto
          91 vlineto
          17 -14 14 -17 vhcurveto
          -4 hlineto
          -9 -8 -4 -6 -6 hvcurveto
          -10 -11 rlineto
          13 -24 -29 8 -30 hhcurveto
          -63 -51 -44 -55 -32 hvcurveto
          -22 -37 -15 -40 -8 -42 rrcurveto
          -34 96 callgsubr
          30 hlineto
          -1 -12 0 -11 -11 vvcurveto
          -12 0 -11 1 -11 vhcurveto
          -26 96 callgsubr
          38 hlineto
          8 -42 15 -41 22 -37 rrcurveto
          -55 32 51 -44 63 hhcurveto
          30 29 8 14 24 hvcurveto
          10 -12 rlineto
          -6 6 8 -4 9 hhcurveto
          4 hlineto
          17 14 14 17 hvcurveto
          endchar
        </CharString>
        <CharString name="F">
          0 65 208 113 callsubr
          hstem
          100 74 130 74 38 74 cntrmask 11100000
          490 492 rmoveto
          77 vlineto
          -53 callgsubr
          -380 hlineto
          -16 -27 -29 callgsubr
          15 hvcurveto
          32 -481 -32 hlineto
          -16 -27 -29 callgsubr
          15 hvcurveto
          157 -63 callgsubr
          -51 208 130 hlineto
          -38 0 -19 -56 callsubr
          95 vlineto
          -49 callgsubr
          -19 -38 vhcurveto
          -130 208 242 108 callgsubr
        </CharString>
        <CharString name="G">
          109 callsubr
          hstem
          127 callgsubr
          vstem
          -93 callgsubr
          endchar
        </CharString>
        <CharString name="Gacute">
          109 callsubr
          74 44 callgsubr
          127 callgsubr
          hintmask 11100110
          -93 callgsubr
          hintmask 00011000
          -126 530 -107 callgsubr
        </CharString>
        <CharString name="Gamma">
          48 callsubr
          94 callsubr
          vstem
          488 492 rmoveto
          77 vlineto
          -53 callgsubr
          -376 -103 callsubr
          36 -481 -36 -103 callsubr
          165 hlineto
          -68 callgsubr
          -55 481 234 108 callgsubr
        </CharString>
        <CharString name="Gbreve">
          109 callsubr
          53 138 callsubr
          127 callgsubr
          hintmask 11100110
          -93 callgsubr
          hintmask 00011010
          -55 514 -105 callsubr
          endchar
        </CharString>
        <CharString name="Gcaron">
          -11 74 callsubr
          vstemhm
          -93 callgsubr
          -106 471 -83 callsubr
        </CharString>
        <CharString name="Gcedilla">
          36 callsubr
          22 49 callsubr
          286 65 hstem
          127 callgsubr
          vstem
          -93 callgsubr
          -170 -348 -99 callsubr
        </CharString>
        <CharString name="Gcircumflex">
          -11 74 callsubr
          vstemhm
          -93 callgsubr
          -105 484 -106 callsubr
          endchar
        </CharString>
        <CharString name="Gcommaaccent">
          36 callsubr
          22 74 callsubr
          hintmask 00111110
          -93 callgsubr
          hintmask 11000000
          -170 -348 -99 callsubr
        </CharString>
        <CharString name="Gdotaccent">
          109 callsubr
          hstemhm
          37 74 101 102 61 74 hintmask 11110100
          -93 callgsubr
          hintmask 00001000
          -182 488 rmoveto
          52 callsubr
        </CharString>
        <CharString name="H">
          0 65 callgsubr
          hstem
          130 callgsubr
          vstem
          -90 callsubr
          endchar
        </CharString>
        <CharString name="H_uni0303">
          0 65 callgsubr
          54 83 callsubr
          130 callgsubr
          hintmask 11100110
          -90 callsubr
          hintmask 00001000
          -68 723 -94 callgsubr
        </CharString>
        <CharString name="Hbar">
          0 113 callgsubr
          76 64 56 65 hstem
          130 callgsubr
          vstem
          506 32 -55 callsubr
          -24 361 29 hlineto
          18 14 15 17 130 callsubr
          hvcurveto
          -29 56 24 -74 callsubr
          -122 56 callsubr
          24 -56 -208 56 24 -74 callsubr
          -122 -66 callsubr
          -56 -29 93 callsubr
          29 -361 -48 callsubr
          122 -54 callsubr
          220 208 -220 -22 callsubr
          -140 318 rmoveto
          -208 76 208 hlineto
          endchar
        </CharString>
        <CharString name="Hbrevebelow">
          -203 68 41 -20 114 107 callgsubr
          hintmask 00111110
          -90 callsubr
          hintmask 11000000
          -65 -157 -105 callsubr
          endchar
        </CharString>
        <CharString name="Hcircumflex">
          0 107 callgsubr
          vstemhm
          -90 callsubr
          -115 691 -106 callsubr
          endchar
        </CharString>
        <CharString name="Hdieresis">
          78 callsubr
          84 74 -41 92 107 92 -42 74 hintmask 11110010
          -90 callsubr
          hintmask 00001100
          -297 679 -70 callgsubr
        </CharString>
        <CharString name="Hdotbelow">
          -200 102 98 61 callsubr
          84 74 54 102 52 74 hintmask 01111010
          -90 callsubr
          hintmask 10000100
          -192 -181 rmoveto
          52 callsubr
        </CharString>
        <CharString name="I">
          133 callgsubr
          -97 callgsubr
          endchar
        </CharString>
        <CharString name="Iacute">
          -14 callgsubr
          85 44 callgsubr
          225 74 hintmask 11001000
          -97 callgsubr
          hintmask 00110000
          -80 737 -107 callgsubr
        </CharString>
        <CharString name="Ibreve">
          -14 callgsubr
          64 138 callsubr
          225 74 hintmask 11001000
          -97 callgsubr
          hintmask 00110000
          -9 721 -105 callsubr
          endchar
        </CharString>
        <CharString name="Icaron">
          49 callgsubr
          225 74 vstemhm
          -97 callgsubr
          -60 678 -83 callsubr
        </CharString>
        <CharString name="Icircumflex">
          49 callgsubr
          225 74 vstemhm
          -97 callgsubr
          -59 691 -106 callsubr
          endchar
        </CharString>
        <CharString name="Idblgrave">
          49 callgsubr
          225 74 vstemhm
          -97 callgsubr
          -28 655 -99 callgsubr
        </CharString>
        <CharString name="Idieresis">
          49 callgsubr
          117 92 16 74 17 92 hintmask 11110000
          -97 callgsubr
          hintmask 00101000
          -241 679 -70 callgsubr
        </CharString>
        <CharString name="Idieresisacute">
          -14 callgsubr
          230 44 callgsubr
          117 92 16 74 17 92 hintmask 11001100
          -97 callgsubr
          hintmask 00111010
          -241 679 rmoveto
          -101 callsubr
          199 -84 callsubr
          -38 203 -107 callgsubr
        </CharString>
        <CharString name="Idotaccent">
          49 callgsubr
          212 102 -89 74 hintmask 11010000
          -97 callgsubr
          hintmask 00100000
          -136 695 rmoveto
          52 callsubr
        </CharString>
        <CharString name="Idotbelow">
          22 callsubr
          212 102 -89 74 hintmask 01101000
          -97 callgsubr
          hintmask 10010000
          -136 -181 rmoveto
          52 callsubr
        </CharString>
        <CharString name="Igrave">
          -14 callgsubr
          85 44 callgsubr
          225 74 hintmask 11001000
          -97 callgsubr
          hintmask 00110000
          -81 685 -100 callgsubr
        </CharString>
        <CharString name="Ihookabove">
          -14 callgsubr
          86 94 callgsubr
          225 74 hintmask 11001000
          -97 callgsubr
          hintmask 00111000
          -89 794 -107 callsubr
        </CharString>
        <CharString name="Imacron">
          49 callgsubr
          225 74 vstemhm
          -97 callgsubr
          2 686 -89 callsubr
        </CharString>
        <CharString name="Imacron.alt">
          -14 callgsubr
          74 67 hstemhm
          225 74 hintmask 11010000
          -97 callgsubr
          hintmask 00100000
          -86 686 10 callsubr
        </CharString>
        <CharString name="Iogonek">
          -203 54 149 -17 callsubr
          hstemhm
          225 74 -1 74 hintmask 11110000
          18 callsubr
          hintmask 11001000
          38 38 26 33 24 hvcurveto
          -72 callsubr
          47 26 41 40 22 hvcurveto
          109 -4 callgsubr
          hvcurveto
          endchar
        </CharString>
        <CharString name="Iogonekacute">
          -203 54 149 -17 callsubr
          85 44 callgsubr
          225 74 -1 74 hintmask 11100100
          18 callsubr
          hintmask 11000010
          38 38 26 33 24 hvcurveto
          -72 callsubr
          47 26 41 40 22 hvcurveto
          109 -4 callgsubr
          hvcurveto
          hintmask 00011000
          -80 737 -107 callgsubr
        </CharString>
        <CharString name="Iota">
          133 callgsubr
          -97 callgsubr
          endchar
        </CharString>
        <CharString name="Itilde">
          -14 callgsubr
          54 83 callsubr
          225 74 hintmask 11001000
          -97 callgsubr
          hintmask 00010000
          -12 723 -101 callgsubr
        </CharString>
        <CharString name="J">
          102 callsubr
          hstem
          67 93 173 74 vstem
          -42 callsubr
          endchar
        </CharString>
        <CharString name="J_uni030C.cap">
          -11 65 379 -21 105 94 -65 65 hstemhm
          67 93 173 74 hintmask 10011100
          -42 callsubr
          166 -43 6 callsubr
        </CharString>
        <CharString name="Jacute">
          102 callsubr
          85 44 callgsubr
          67 93 173 74 hintmask 11001100
          -42 callsubr
          hintmask 00110000
          -27 191 -107 callgsubr
        </CharString>
        <CharString name="Jcircumflex">
          -11 112 callgsubr
          67 93 173 74 vstemhm
          -42 callsubr
          -6 145 -106 callsubr
          endchar
        </CharString>
        <CharString name="K">
          48 callsubr
          87 60 vstem
          -67 callgsubr
          endchar
        </CharString>
        <CharString name="Kappa">
          48 callsubr
          87 60 vstem
          -67 callgsubr
          endchar
        </CharString>
        <CharString name="Kcedilla">
          72 callgsubr
          hstem
          87 60 vstem
          -67 callgsubr
          -169 -141 -99 callsubr
        </CharString>
        <CharString name="Kcommaaccent">
          64 callgsubr
          87 60 hintmask 00111000
          -67 callgsubr
          hintmask 11000000
          -169 -141 -99 callsubr
        </CharString>
        <CharString name="L">
          48 callsubr
          94 callsubr
          vstem
          -82 callsubr
          endchar
        </CharString>
        <CharString name="L_uni0303">
          -14 callgsubr
          54 83 callsubr
          94 callsubr
          hintmask 11001100
          -82 callsubr
          hintmask 00010000
          -169 713 -101 callgsubr
        </CharString>
        <CharString name="Lacute">
          -14 callgsubr
          85 44 callgsubr
          94 callsubr
          hintmask 11001100
          -82 callsubr
          hintmask 00110000
          -237 727 -107 callgsubr
        </CharString>
        <CharString name="Lambda">
          0 65 560 -20 hstem
          29 466 vstem
          128 callgsubr
          -24 0 -34 vhcurveto
          -117 520 rlineto
          40 -9 -22 0 -21 hhcurveto
          -12 hlineto
          -38 -7 -13 -27 -6 hvcurveto
          -118 -520 rlineto
          -34 -24 -19 callgsubr
          29 0 14 hvcurveto
          111 hlineto
          -68 callgsubr
          -20 hlineto
          64 290 2 10 29 132 4 35 rlinecurve
          1 hlineto
          3 -32 25 -116 6 -29 64 -290 rcurveline
          -20 -100 callsubr
          111 -4 callgsubr
          hvcurveto
          endchar
        </CharString>
        <CharString name="Lcaron">
          0 65 368 -21 105 94 -65 65 hstemhm
          94 callsubr
          hintmask 10011100
          -82 callsubr
          -25 493 6 callsubr
        </CharString>
        <CharString name="Lcedilla">
          72 callgsubr
          hstem
          94 callsubr
          vstem
          -82 callsubr
          -162 -151 -99 callsubr
        </CharString>
        <CharString name="Lcommaaccent">
          64 callgsubr
          94 callsubr
          hintmask 00111100
          -82 callsubr
          hintmask 11000000
          -162 -151 -99 callsubr
        </CharString>
        <CharString name="Ldot">
          0 65 201 102 178 65 hstemhm
          106 74 175 102 -43 74 hintmask 11110100
          -82 callsubr
          -31 275 rmoveto
          28 -23 23 -28 vhcurveto
          hintmask 01001000
          -28 -23 -23 -28 -28 23 -23 28 28 23 23 28 hvcurveto
          endchar
        </CharString>
        <CharString name="Ldotbelow">
          22 callsubr
          106 74 32 102 100 74 hintmask 01110100
          -82 callsubr
          hintmask 10001000
          -174 -191 rmoveto
          52 callsubr
        </CharString>
        <CharString name="Ldotbelowmacron">
          22 callsubr
          106 74 32 102 100 74 vstemhm
          -82 callsubr
          -174 -191 -102 callgsubr
          29 867 -89 callsubr
        </CharString>
        <CharString name="Lslash">
          0 65 180 65 236 65 hstem
          94 callsubr
          vstem
          488 42 rmoveto
          92 vlineto
          19 0 24 -37 -37 0 -24 -19 vhcurveto
          -69 -234 245 vlineto
          200 135 97 callsubr
          -167 -114 rcurveline
          165 -41 callgsubr
          -215 hlineto
          -65 -45 122 callsubr
          18 -4 14 10 32 22 rcurveline
          -195 -36 vlineto
          -11 callgsubr
          endchar
        </CharString>
        <CharString name="M">
          48 callsubr
          68 60 107 60 101 60 vstem
          -61 callsubr
          endchar
        </CharString>
        <CharString name="Mdotbelow">
          22 callsubr
          68 60 84 102 -79 60 101 60 hintmask 01110110
          -61 callsubr
          hintmask 10001000
          -196 -181 rmoveto
          52 callsubr
        </CharString>
        <CharString name="Mu">
          48 callsubr
          68 60 107 60 101 60 vstem
          -61 callsubr
          endchar
        </CharString>
        <CharString name="N">
          48 callsubr
          102 callgsubr
          vstem
          -97 callsubr
          endchar
        </CharString>
        <CharString name="Nacute">
          -14 callgsubr
          85 44 callgsubr
          102 callgsubr
          hintmask 11001100
          -97 callsubr
          hintmask 00110000
          -129 191 -107 callgsubr
        </CharString>
        <CharString name="Ncaron">
          49 callgsubr
          102 callgsubr
          vstemhm
          -97 callsubr
          -109 132 -83 callsubr
        </CharString>
        <CharString name="Ncedilla">
          72 callgsubr
          hstem
          102 callgsubr
          vstem
          -97 callsubr
          -173 -687 -99 callsubr
        </CharString>
        <CharString name="Ncommaaccent">
          64 callgsubr
          102 callgsubr
          hintmask 00111100
          -97 callsubr
          hintmask 11000000
          -173 -687 -99 callsubr
        </CharString>
        <CharString name="Ndotaccent">
          49 callgsubr
          91 60 61 102 59 60 hintmask 11101000
          -97 callsubr
          hintmask 00010000
          -185 138 rmoveto
          52 callsubr
        </CharString>
        <CharString name="Ndotbelow">
          22 callsubr
          91 60 61 102 59 60 hintmask 01110100
          -97 callsubr
          hintmask 10001000
          -185 -727 rmoveto
          52 callsubr
        </CharString>
        <CharString name="Ntilde">
          -14 callgsubr
          54 83 callsubr
          102 callgsubr
          hintmask 11001100
          -97 callsubr
          hintmask 00010000
          -61 177 -101 callgsubr
        </CharString>
        <CharString name="Nu">
          48 callsubr
          102 callgsubr
          vstem
          -97 callsubr
          endchar
        </CharString>
        <CharString name="O">
          -1 callsubr
          hstem
          55 callgsubr
          vstem
          -105 callgsubr
          endchar
        </CharString>
        <CharString name="OE">
          -39 callsubr
        </CharString>
        <CharString name="OE.dup">
          -39 callsubr
        </CharString>
        <CharString name="Oacute">
          120 callgsubr
          56 74 264 74 hintmask 11001100
          -105 callgsubr
          hintmask 00110000
          -24 455 -107 callgsubr
        </CharString>
        <CharString name="Obreve">
          -1 callsubr
          53 68 41 -20 66 callgsubr
          hintmask 11001100
          -105 callgsubr
          hintmask 00110000
          47 439 -105 callsubr
          endchar
        </CharString>
        <CharString name="Ocaron">
          -11 65 503 65 66 callgsubr
          vstemhm
          -105 callgsubr
          -4 396 -83 callsubr
        </CharString>
        <CharString name="Ocircumflex">
          -11 65 503 65 66 callgsubr
          vstemhm
          -105 callgsubr
          -3 409 -106 callsubr
          endchar
        </CharString>
        <CharString name="Ocircumflexacute">
          -1 callsubr
          296 -20 66 callgsubr
          hintmask 11011000
          -105 callgsubr
          hintmask 00100000
          -3 409 -31 callsubr
          158 -107 callgsubr
        </CharString>
        <CharString name="Ocircumflexdotbelow">
          -200 102 87 33 callsubr
          hstemhm
          56 74 82 102 80 74 hintmask 01110100
          -105 callgsubr
          -3 409 -106 callsubr
          hintmask 10001000
          -77 -872 rmoveto
          52 callsubr
        </CharString>
        <CharString name="Ocircumflexgrave">
          -11 65 503 65 66 callgsubr
          vstemhm
          -105 callgsubr
          -3 409 -85 callsubr
        </CharString>
        <CharString name="Ocircumflexhookabove">
          -1 callsubr
          377 -20 66 callgsubr
          hintmask 11011000
          -105 callgsubr
          hintmask 00101000
          -3 409 -106 callsubr
          69 194 -107 callsubr
        </CharString>
        <CharString name="Ocircumflextilde">
          -1 callsubr
          185 70 -16 70 66 callgsubr
          hintmask 11001100
          -105 callgsubr
          hintmask 00010000
          -3 409 -106 callsubr
          47 174 -101 callgsubr
        </CharString>
        <CharString name="Odblgrave">
          -11 65 503 65 66 callgsubr
          vstemhm
          -105 callgsubr
          28 373 -99 callgsubr
        </CharString>
        <CharString name="Odieresis">
          79 callsubr
          56 74 -13 92 107 92 -14 74 hintmask 11100100
          -105 callgsubr
          hintmask 00011000
          -185 397 -70 callgsubr
        </CharString>
        <CharString name="Odotbelow">
          -200 102 87 33 callsubr
          hstemhm
          56 74 82 102 80 74 hintmask 01110100
          -105 callgsubr
          hintmask 10001000
          -80 -463 rmoveto
          52 callsubr
        </CharString>
        <CharString name="Ograve">
          120 callgsubr
          56 74 264 74 hintmask 11001100
          -105 callgsubr
          hintmask 00110000
          -25 403 -100 callgsubr
        </CharString>
        <CharString name="Ohookabove">
          -1 callsubr
          75 -21 232 -20 66 callgsubr
          hintmask 11001100
          -105 callgsubr
          hintmask 00110000
          -33 512 -107 callsubr
        </CharString>
        <CharString name="Ohorn">
          -1 callsubr
          91 -20 75 callsubr
          hintmask 11111000
          -77 callgsubr
          hintmask 11010100
          -58 callgsubr
          endchar
        </CharString>
        <CharString name="Ohornacute">
          -1 callsubr
          74 -21 38 -20 113 -20 75 callsubr
          hintmask 11010110
          -77 callgsubr
          hintmask 11000101
          -58 callgsubr
          hintmask 00101000
          -52 451 -107 callgsubr
        </CharString>
        <CharString name="Ohorndotbelow">
          -200 102 87 33 callsubr
          91 -20 hstemhm
          56 74 82 102 79 74 -74 100 hintmask 01111010
          -77 callgsubr
          hintmask 01101001
          -58 callgsubr
          hintmask 10000100
          -79 -467 rmoveto
          52 callsubr
        </CharString>
        <CharString name="Ohorngrave">
          -1 callsubr
          74 -21 38 -20 113 -20 75 callsubr
          hintmask 11010110
          -77 callgsubr
          hintmask 11000101
          -58 callgsubr
          hintmask 00101000
          -53 399 -100 callgsubr
        </CharString>
        <CharString name="Ohornhookabove">
          -1 callsubr
          75 -21 37 -20 215 -20 75 callsubr
          hintmask 11010110
          -77 callgsubr
          hintmask 11000101
          -58 callgsubr
          hintmask 00101000
          -32 508 -107 callsubr
        </CharString>
        <CharString name="Ohorntilde">
          -1 callsubr
          43 70 -16 70 75 callsubr
          hintmask 11001100
          -77 callgsubr
          hintmask 11001010
          -58 callgsubr
          hintmask 00010000
          16 437 -101 callgsubr
        </CharString>
        <CharString name="Ohungarumlaut">
          -11 65 503 65 66 callgsubr
          vstemhm
          -105 callgsubr
          -165 493 -79 callsubr
        </CharString>
        <CharString name="Omacron">
          -11 65 503 65 66 callgsubr
          vstemhm
          -105 callgsubr
          58 404 -89 callsubr
        </CharString>
        <CharString name="Omega">
          -24 callgsubr
        </CharString>
        <CharString name="Omicron">
          -1 callsubr
          hstem
          55 callgsubr
          vstem
          -105 callgsubr
          endchar
        </CharString>
        <CharString name="Oogonek">
          -1 callsubr
          hstem
          55 callgsubr
          vstem
          -15 callgsubr
          endchar
        </CharString>
        <CharString name="Oogonekacute">
          120 callgsubr
          56 74 264 74 hintmask 11001100
          -15 callgsubr
          hintmask 00110000
          -24 455 -107 callgsubr
        </CharString>
        <CharString name="Orogate">
          55 callgsubr
          vstem
          27 callgsubr
          271 -19 42 -155 4 vhcurveto
          122 vlineto
          130 callsubr
          114 callgsubr
          vhcurveto
          -122 vlineto
          -155 -4 -19 -41 -272 vvcurveto
          -271 19 -41 155 -4 vhcurveto
          -122 135 callgsubr
          122 vlineto
          155 4 19 41 271 vvcurveto
          -74 9 rmoveto
          -68 0 -69 -12 -53 vhcurveto
          -48 -10 -24 -22 -86 hhcurveto
          -86 -23 22 46 -11 hvcurveto
          -12 52 0 80 60 vvcurveto
          63 0 72 12 45 vhcurveto
          51 13 29 12 78 hhcurveto
          77 31 -12 -54 13 hvcurveto
          11 -46 0 -71 -60 vvcurveto
          endchar
        </CharString>
        <CharString name="Oslash">
          -66 -21 76 33 callsubr
          76 -20 hstem
          56 60 292 60 vstem
          -67 callsubr
          endchar
        </CharString>
        <CharString name="Oslash.dup">
          -66 -21 76 33 callsubr
          76 -20 hstem
          56 60 292 60 vstem
          -67 callsubr
          endchar
        </CharString>
        <CharString name="Oslashacute">
          -66 -21 76 33 callsubr
          74 -21 23 -20 128 -20 hstemhm
          56 60 292 60 hintmask 11101011
          -67 callsubr
          hintmask 00010100
          -64 463 -107 callgsubr
        </CharString>
        <CharString name="Otilde">
          -1 callsubr
          43 70 -16 70 66 callgsubr
          hintmask 11001100
          -105 callgsubr
          hintmask 00010000
          44 441 -101 callgsubr
        </CharString>
        <CharString name="P">
          4 callgsubr
        </CharString>
        <CharString name="Phi">
          0 65 93 67 161 65 95 65 hstem
          40 74 111 74 111 74 cntrmask 00001110
          484 305 rmoveto
          72 -77 63 -108 12 vhcurveto
          94 40 -51 callgsubr
          -154 -100 callsubr
          40 -94 hlineto
          -112 -13 -73 -65 -68 vvcurveto
          -72 77 -63 108 -12 vhcurveto
          -94 -40 vlineto
          -15 -28 -70 callsubr
          27 0 16 hvcurveto
          154 hlineto
          -68 callgsubr
          -40 94 hlineto
          112 13 73 65 68 vvcurveto
          -259 -80 rmoveto
          -76 11 -35 38 31 vvcurveto
          35 39 36 72 10 vhcurveto
          185 -80 rmoveto
          -35 -39 -36 -72 -10 vhcurveto
          161 vlineto
          76 -11 35 -38 -31 vvcurveto
          endchar
        </CharString>
        <CharString name="Pi">
          48 callsubr
          130 callgsubr
          vstem
          506 32 -55 callsubr
          -24 481 24 -74 callsubr
          -404 -66 callsubr
          -481 -48 callsubr
          122 -54 callsubr
          481 208 -481 -22 callsubr
          endchar
        </CharString>
        <CharString name="Psi">
          416 65 0 65 0 65 hstem
          75 74 76 74 76 74 cntrmask 11111100
          487 448 rmoveto
          33 -28 0 -10 -63 -11 -53 -59 -31 -1 -88 -75 -22 vhcurveto
          318 34 -51 callgsubr
          -142 -100 callsubr
          34 -318 hlineto
          -75 22 -1 87 34 vvcurveto
          52 -9 58 -64 -11 -28 0 -33 -24 17 -5 11 -4 vhcurveto
          10 -2 0 -37 -17 vvcurveto
          1 -79 32 -99 117 -21 rrcurveto
          -95 -34 vlineto
          -15 -28 -70 callsubr
          27 0 16 hvcurveto
          142 hlineto
          -68 callgsubr
          -34 95 hlineto
          148 26 2 145 39 vvcurveto
          6 0 37 10 3 vhcurveto
          11 3 17 5 24 vvcurveto
          endchar
        </CharString>
        <CharString name="Q">
          -118 -21 128 65 19 65 419 65 hstem
          56 74 151 74 39 74 vstem
          -72 callgsubr
          17 21 0 1 13 vhcurveto
          7 -13 50 -99 4 -6 rrcurveto
          -11 8 13 0 14 hhcurveto
          12 hlineto
          15 18 0 21 6 -2 3 -27 52 hvcurveto
          -33 61 45 20 17 38 8 76 rlinecurve
          6 54 0 67 46 vvcurveto
          -74 1 rmoveto
          -146 -6 -62 -33 -25 vhcurveto
          -45 87 rlineto
          11 -7 -1 0 -21 hhcurveto
          -14 hlineto
          -14 -19 0 -21 -4 0 -2 46 -90 hvcurveto
          -25 hlineto
          -96 -13 34 57 -9 hvcurveto
          -7 47 0 67 46 68 callgsubr
          endchar
        </CharString>
        <CharString name="R">
          -95 callgsubr
          endchar
        </CharString>
        <CharString name="Racute">
          -95 callgsubr
          hintmask 11100000
          11 327 -107 callgsubr
        </CharString>
        <CharString name="Rcaron">
          -95 callgsubr
          hintmask 11100000
          31 268 -83 callsubr
        </CharString>
        <CharString name="Rcedilla">
          -95 callgsubr
          -33 -551 -99 callsubr
        </CharString>
        <CharString name="Rcommaaccent">
          -95 callgsubr
          hintmask 11100000
          -33 -551 -99 callsubr
        </CharString>
        <CharString name="Rdblgrave">
          -95 callgsubr
          hintmask 11100000
          34 245 -99 callgsubr
        </CharString>
        <CharString name="Rdotaccent">
          -55 callgsubr
          hintmask 11110011
          -32 19 29 -16 35 hhcurveto
          62 27 63 43 hvcurveto
          -163 347 rmoveto
          -44 -39 -60 -93 vhcurveto
          -69 208 69 hlineto
          92 40 -59 -45 hvcurveto
          hintmask 11101000
          -45 285 rmoveto
          52 callsubr
        </CharString>
        <CharString name="Rdotbelow">
          -55 callgsubr
          hintmask 11110011
          -32 19 29 -16 35 hhcurveto
          62 27 63 43 hvcurveto
          -163 347 rmoveto
          -44 -39 -60 -93 vhcurveto
          -69 208 69 hlineto
          92 40 -59 -45 hvcurveto
          hintmask 11101000
          -45 -591 rmoveto
          52 callsubr
        </CharString>
        <CharString name="Rdotbelowmacron">
          -55 callgsubr
          hintmask 11111011
          -32 19 29 -16 35 hhcurveto
          62 27 63 43 hvcurveto
          -163 347 rmoveto
          -44 -39 -60 -93 vhcurveto
          -69 208 69 hlineto
          92 40 -59 -45 hvcurveto
          -45 -591 -102 callgsubr
          hintmask 11100000
          138 867 -89 callsubr
        </CharString>
        <CharString name="Rho">
          4 callgsubr
        </CharString>
        <CharString name="S">
          -11 58 callsubr
          hintmask 01110000
          -80 callgsubr
          hintmask 10101000
          -59 callgsubr
          endchar
        </CharString>
        <CharString name="Sacute">
          120 callgsubr
          52 70 253 70 -43 70 hintmask 01001100
          -80 callgsubr
          hintmask 10001010
          -59 callgsubr
          hintmask 00110000
          -102 602 -107 callgsubr
        </CharString>
        <CharString name="Scaron">
          -11 58 callsubr
          hintmask 01110000
          -80 callgsubr
          hintmask 10101000
          -59 callgsubr
          hintmask 00000000
          -82 543 -83 callsubr
        </CharString>
        <CharString name="Scedilla">
          79 callsubr
          52 70 86 70 65 70 -38 70 -43 70 hintmask 01100100
          472 167 rmoveto
          32 -9 40 -31 39 vhcurveto
          -39 47 -47 11 -36 8 -21 5 -73 17 -13 4 rrcurveto
          -45 11 -36 36 44 vvcurveto
          49 47 47 68 115 15 -93 -25 4 vhcurveto
          -30 4 17 -1 16 hhcurveto
          37 0 23 19 hvcurveto
          130 vlineto
          hintmask 01001000
          53 callsubr
          vhcurveto
          hintmask 01100100
          -22 -9 -13 -30 -7 hvcurveto
          40 -54 -59 3 -25 hhcurveto
          -109 -76 -79 -86 -54 29 -37 10 -12 hvcurveto
          41 -44 30 -7 75 -17 rrcurveto
          -3 10 69 -16 3 hhcurveto
          hintmask 10110010
          64 -20 19 -51 -34 vvcurveto
          -52 -43 -56 -74 -41 -40 9 16 -27 vhcurveto
          -46 28 -4 41 -1 19 rrcurveto
          16 -1 -1 20 -35 hhcurveto
          -37 0 -23 -20 hvcurveto
          -129 vlineto
          -15 0 -27 32 22 9 13 30 7 vhcurveto
          35 -24 46 -12 42 -5 rrcurveto
          -26 45 callsubr
          9 vlineto
          hintmask 00000010
          95 15 58 79 81 vvcurveto
          endchar
        </CharString>
        <CharString name="Scircumflex">
          -11 58 callsubr
          hintmask 01110000
          -80 callgsubr
          hintmask 10101000
          -59 callgsubr
          hintmask 00000000
          -81 556 -106 callsubr
          endchar
        </CharString>
        <CharString name="Sdotbelow">
          -200 102 87 33 callsubr
          hstemhm
          52 70 90 102 61 70 -43 70 hintmask 00110100
          -80 callgsubr
          hintmask 01010010
          -59 callgsubr
          hintmask 10001000
          -158 -316 rmoveto
          52 callsubr
        </CharString>
        <CharString name="Sigma">
          0 67 479 65 hstem
          410 74 vstem
          484 42 rmoveto
          79 vlineto
          -49 callgsubr
          -23 -19 vhcurveto
          -54 -267 vlineto
          125 215 rlineto
          9 14 0 2 15 vvcurveto
          -138 233 rlineto
          271 -50 callgsubr
          -53 callgsubr
          -359 hlineto
          -16 -27 0 -33 -4 0 -7 7 -12 hvcurveto
          149 -250 -148 -252 rlineto
          -8 -13 0 -10 0 vvcurveto
          -30 29 0 14 vhcurveto
          359 97 callgsubr
        </CharString>
        <CharString name="T">
          48 callsubr
          26 74 125 74 125 74 cntrmask 00111000
          -57 callsubr
          -51 vlineto
          -45 callsubr
          37 0 23 19 vhcurveto
          endchar
        </CharString>
        <CharString name="T_uni0303">
          -14 callgsubr
          54 83 callsubr
          26 74 0 74 51 74 51 74 0 74 hintmask 1100101010000000
          -57 callsubr
          vlineto
          hintmask 1100011100000000
          -51 hlineto
          -45 callsubr
          vhcurveto
          hintmask 0000000010000000
          37 0 23 19 hvcurveto
          hintmask 0001000000000000
          -60 263 rmoveto
          17 -16 17 -17 -13 -7 -7 -9 -9 vhcurveto
          hintmask 0010000000000000
          -14 -15 -29 -24 -19 hhcurveto
          -10 -4 5 16 -17 hvcurveto
          hintmask 0001000000000000
          12 -12 -20 21 -34 hhcurveto
          -24 -27 -12 -21 -28 hvcurveto
          -47 -37 -2 -10 -10 vvcurveto
          hintmask 0010000000000000
          -17 16 -17 17 13 7 7 9 9 vhcurveto
          hintmask 0001000000000000
          14 15 29 24 19 hhcurveto
          10 4 -5 -16 17 hvcurveto
          hintmask 0010000000000000
          -93 callsubr
        </CharString>
        <CharString name="T_uni0308">
          49 callgsubr
          26 74 0 74 -57 92 16 74 17 92 -58 74 0 74 hintmask 1110010010000000
          -57 callsubr
          vlineto
          hintmask 1101010100000000
          -51 hlineto
          -45 callsubr
          vhcurveto
          hintmask 0000000010000000
          37 0 23 19 hvcurveto
          hintmask 0000101000000000
          -289 219 -70 callgsubr
        </CharString>
        <CharString name="Tau">
          0 42 callgsubr
          hintmask 11101010
          -57 callsubr
          vlineto
          hintmask 11011100
          -51 hlineto
          -45 callsubr
          vhcurveto
          hintmask 00000010
          37 0 23 19 hvcurveto
          endchar
        </CharString>
        <CharString name="Tcaron">
          0 42 callgsubr
          hintmask 11101010
          -57 callsubr
          vlineto
          hintmask 11011100
          -51 hlineto
          -45 callsubr
          vhcurveto
          hintmask 00000010
          37 0 23 19 hvcurveto
          hintmask 00000000
          -108 218 -83 callsubr
        </CharString>
        <CharString name="Tcedilla">
          -211 66 145 -17 callsubr
          hstemhm
          26 74 0 74 14 74 -37 74 24 74 -47 74 0 74 hintmask 0111001001000000
          -57 callsubr
          vlineto
          hintmask 0100101100000000
          -51 -81 callsubr
          51 -27 hlineto
          30 callgsubr
          hintmask 1000010100000000
          12 callsubr
          vhcurveto
          hintmask 0110001010000000
          72 callsubr
          9 51 vlineto
          -66 callgsubr
          -51 481 125 73 callgsubr
          vhcurveto
          hintmask 0000000001000000
          37 0 23 19 hvcurveto
          endchar
        </CharString>
        <CharString name="Tdotbelow">
          22 callsubr
          26 74 0 74 38 102 -89 74 51 74 0 74 hintmask 0111001010000000
          -57 callsubr
          vlineto
          hintmask 0110101100000000
          -51 hlineto
          -45 callsubr
          vhcurveto
          hintmask 0000000010000000
          37 0 23 19 hvcurveto
          hintmask 1000010000000000
          -184 -641 rmoveto
          52 callsubr
        </CharString>
        <CharString name="Theta">
          -11 65 215 73 215 65 hstem
          56 83 246 83 cntrmask 11100000
          -72 callgsubr
          17 callgsubr
          vhcurveto
          -74 1 rmoveto
          -57 0 -71 -9 -48 vhcurveto
          -57 -12 -24 -19 -87 hhcurveto
          -89 -23 21 57 -11 hvcurveto
          -9 48 0 74 51 68 callgsubr
          -38 -25 rmoveto
          49 vlineto
          18 0 25 -37 -24 -11 -11 -20 -2 vhcurveto
          -40 hlineto
          20 -2 -10 11 -25 hhcurveto
          -37 0 -25 -18 hvcurveto
          -49 vlineto
          -18 0 -25 37 24 11 11 20 2 vhcurveto
          40 hlineto
          -20 2 10 -11 25 hhcurveto
          37 0 25 18 hvcurveto
          endchar
        </CharString>
        <CharString name="Thorn">
          0 65 94 113 callgsubr
          37 65 hstem
          106 74 222 74 vstem
          476 334 rmoveto
          83 -64 92 -120 vhcurveto
          -112 37 hlineto
          18 33 0 1 4 hvcurveto
          15 4 8 11 17 vvcurveto
          32 -27 0 -17 vhcurveto
          -142 hlineto
          -17 -27 0 -32 -24 16 -6 8 -2 hvcurveto
          -1 3 33 0 18 hhcurveto
          -481 vlineto
          -18 -33 0 -1 -4 hvcurveto
          -15 -4 -8 -11 -17 vvcurveto
          -32 27 0 17 vhcurveto
          142 hlineto
          17 27 0 32 24 -16 6 -8 2 hvcurveto
          1 -3 -33 0 -18 hhcurveto
          94 113 vlineto
          117 66 90 85 hvcurveto
          -74 hmoveto
          -46 -39 -64 -95 vhcurveto
          -88 220 98 hlineto
          93 31 -68 -42 hvcurveto
          endchar
        </CharString>
        <CharString name="Tlinebelow">
          0 42 callgsubr
          hintmask 11101010
          -57 callsubr
          vlineto
          hintmask 11011100
          -51 hlineto
          -45 callsubr
          vhcurveto
          hintmask 00000010
          37 0 23 19 hvcurveto
          hintmask 00000000
          -46 -641 -89 callsubr
        </CharString>
        <CharString name="U">
          102 callsubr
          hstem
          112 callsubr
          vstem
          -104 callgsubr
          endchar
        </CharString>
        <CharString name="U_uni032F">
          -182 -21 41 68 83 43 callgsubr
          232 74 hintmask 00111100
          -104 callgsubr
          hintmask 11000000
          -83 -749 -57 callgsubr
        </CharString>
        <CharString name="Uacute">
          102 callsubr
          85 -21 131 -20 101 callgsubr
          hintmask 11001100
          -104 callgsubr
          hintmask 00110000
          -154 191 -107 callgsubr
        </CharString>
        <CharString name="Ubreve">
          102 callsubr
          64 68 41 -20 101 callgsubr
          hintmask 11001100
          -104 callgsubr
          hintmask 00110000
          -83 175 -105 callsubr
          endchar
        </CharString>
        <CharString name="Ucaron">
          -11 43 callgsubr
          232 74 vstemhm
          -104 callgsubr
          -134 132 -83 callsubr
        </CharString>
        <CharString name="Ucircumflex">
          -11 43 callgsubr
          232 74 vstemhm
          -104 callgsubr
          -133 145 -106 callsubr
          endchar
        </CharString>
        <CharString name="Udblgrave">
          -11 43 callgsubr
          232 74 vstemhm
          -104 callgsubr
          -102 109 -99 callgsubr
        </CharString>
        <CharString name="Udieresis">
          -11 43 callgsubr
          -29 92 107 92 -30 74 hintmask 11100100
          -104 callgsubr
          hintmask 00011000
          -12 callgsubr
          endchar
        </CharString>
        <CharString name="Udieresisacute">
          102 callsubr
          230 44 callgsubr
          72 74 -29 92 107 92 -30 74 hintmask 11001001
          -104 callgsubr
          hintmask 00110110
          -12 callgsubr
          -38 203 -107 callgsubr
        </CharString>
        <CharString name="Udieresiscaron">
          -11 43 callgsubr
          -29 92 107 92 -30 74 hintmask 11100100
          -104 callgsubr
          hintmask 00011000
          -12 callgsubr
          -18 144 -83 callsubr
        </CharString>
        <CharString name="Udieresisgrave">
          102 callsubr
          230 44 callgsubr
          72 74 -29 92 107 92 -30 74 hintmask 11001001
          -104 callgsubr
          hintmask 00110110
          -12 callgsubr
          -39 151 -100 callgsubr
        </CharString>
        <CharString name="Udotbelow">
          -200 102 87 43 callgsubr
          66 102 64 74 hintmask 01110100
          -104 callgsubr
          hintmask 10001000
          -210 -727 rmoveto
          52 callsubr
        </CharString>
        <CharString name="Ugrave">
          102 callsubr
          85 -21 131 -20 101 callgsubr
          hintmask 11001100
          -104 callgsubr
          hintmask 00110000
          -155 139 -100 callgsubr
        </CharString>
        <CharString name="Uhookabove">
          102 callsubr
          86 -21 232 -20 101 callgsubr
          hintmask 11001100
          -104 callgsubr
          hintmask 00110000
          -163 248 -107 callsubr
        </CharString>
        <CharString name="Uhorn">
          102 callsubr
          102 -20 hstemhm
          72 74 41 74 0 74 42 74 hintmask 11110110
          -77 callsubr
          hintmask 11011010
          -64 callsubr
          endchar
        </CharString>
        <CharString name="Uhornacute">
          102 callsubr
          85 -21 38 -20 113 -65 callgsubr
          -186 125 -107 callgsubr
        </CharString>
        <CharString name="Uhorndotbelow">
          -200 102 87 60 callsubr
          102 -20 hstemhm
          72 74 41 74 -49 102 -53 74 42 74 hintmask 0111100110000000
          -77 callsubr
          hintmask 0110110010000000
          -64 callsubr
          hintmask 1000001000000000
          -213 -793 rmoveto
          52 callsubr
        </CharString>
        <CharString name="Uhorngrave">
          102 callsubr
          85 -21 38 -20 113 -65 callgsubr
          -187 73 -100 callgsubr
        </CharString>
        <CharString name="Uhornhookabove">
          102 callsubr
          86 -21 37 -20 215 -65 callgsubr
          -166 182 -107 callsubr
        </CharString>
        <CharString name="Uhorntilde">
          102 callsubr
          54 83 callsubr
          72 74 41 74 0 74 42 74 hintmask 11001011
          -77 callsubr
          hintmask 11001101
          -64 callsubr
          hintmask 00010000
          -118 111 rmoveto
          17 -16 17 -17 -13 -7 -7 -9 -9 vhcurveto
          hintmask 00100000
          -14 -15 -29 -24 -19 hhcurveto
          -10 -4 5 16 -17 hvcurveto
          hintmask 00010100
          12 -12 -20 21 -34 hhcurveto
          -24 -27 -12 -21 -28 hvcurveto
          -47 -37 -2 -10 -10 vvcurveto
          hintmask 00100000
          -17 16 -17 17 13 7 7 9 9 vhcurveto
          hintmask 00010000
          14 15 29 24 19 hhcurveto
          10 4 -5 -16 17 hvcurveto
          hintmask 00100000
          -93 callsubr
        </CharString>
        <CharString name="Uhungarumlaut">
          -11 43 callgsubr
          232 74 vstemhm
          -104 callgsubr
          -295 229 -79 callsubr
        </CharString>
        <CharString name="Umacron">
          -11 43 callgsubr
          232 74 vstemhm
          -104 callgsubr
          hintmask 00010000
          -72 140 -89 callsubr
        </CharString>
        <CharString name="Uogonek">
          -203 54 138 43 callgsubr
          160 74 -2 74 hintmask 00101000
          524 -18 callgsubr
          -69 callgsubr
          hintmask 11110100
          29 -337 hlineto
          -103 -63 -52 -53 -53 -63 52 103 vhcurveto
          337 29 -51 callgsubr
          -41 callsubr
          -341 hlineto
          -114 74 -86 90 -14 vhcurveto
          -28 -26 -22 -36 -37 -9 callgsubr
          hintmask 10001000
          -72 callsubr
          42 21 38 33 23 hvcurveto
          hintmask 00100100
          85 19 68 84 109 vvcurveto
          -10 callgsubr
          endchar
        </CharString>
        <CharString name="Upsilon">
          0 65 501 56 hstem
          74 74 77 74 77 74 cntrmask 00111000
          487 492 rmoveto
          61 -45 69 -72 -63 -31 -49 -86 -14 vhcurveto
          -1 hlineto
          90 -14 -33 45 -60 hhcurveto
          -72 -45 -69 -61 -33 28 0 9 11 25 0 33 1 hvcurveto
          25 1 5 49 38 hhcurveto
          70 0 -158 -52 hvcurveto
          -291 -34 vlineto
          -15 -28 -70 callsubr
          27 0 16 hvcurveto
          142 hlineto
          -68 callgsubr
          -34 291 hlineto
          52 0 158 70 37 6 -48 -23 1 vhcurveto
          -24 1 8 -12 28 hhcurveto
          9 28 45 callgsubr
        </CharString>
        <CharString name="Uring">
          102 callsubr
          14 38 68 38 hstemhm
          72 74 20 50 94 50 18 74 hintmask 11001001
          -104 callgsubr
          hintmask 00110110
          -214 119 -47 callsubr
        </CharString>
        <CharString name="Utilde">
          102 callsubr
          54 70 -16 70 101 callgsubr
          hintmask 11001100
          -104 callgsubr
          hintmask 00010000
          -86 177 -101 callgsubr
        </CharString>
        <CharString name="V">
          126 callgsubr
          hstem
          18 488 vstem
          506 579 rmoveto
          32 -29 0 -14 vhcurveto
          -105 hlineto
          -15 -28 -70 callsubr
          23 0 34 hvcurveto
          -70 -284 -13 -52 -22 -91 -5 -41 rlinecurve
          -1 hlineto
          -2 22 -7 33 -6 26 -94 387 rcurveline
          34 23 23 callgsubr
          -105 hlineto
          -14 -35 callsubr
          24 0 34 hvcurveto
          128 -516 rlineto
          -39 10 20 0 28 hhcurveto
          26 22 0 36 9 hvcurveto
          129 519 rlineto
          34 24 45 callgsubr
        </CharString>
        <CharString name="W">
          126 callgsubr
          hstem
          12 500 vstem
          -88 callsubr
          endchar
        </CharString>
        <CharString name="Wacute">
          126 callgsubr
          85 44 callgsubr
          12 500 hintmask 11001000
          -88 callsubr
          hintmask 00110000
          -142 191 -107 callgsubr
        </CharString>
        <CharString name="Wcircumflex">
          126 callgsubr
          hstemhm
          12 500 vstemhm
          -88 callsubr
          -121 145 -106 callsubr
          endchar
        </CharString>
        <CharString name="Wdieresis">
          126 callgsubr
          hstemhm
          12 500 -395 92 107 92 hintmask 11100000
          -88 callsubr
          hintmask 00011000
          -303 41 callsubr
        </CharString>
        <CharString name="Wgrave">
          126 callgsubr
          85 44 callgsubr
          12 500 hintmask 11001000
          -88 callsubr
          hintmask 00110000
          -143 139 -100 callgsubr
        </CharString>
        <CharString name="X">
          -17 callgsubr
        </CharString>
        <CharString name="Xi">
          0 63 48 -20 195 63 156 63 -20 63 hstemhm
          33 74 -70 74 -2 74 158 74 -2 74 -70 74 hintmask 0000100001000000
          487 547 rmoveto
          22 vlineto
          -53 callgsubr
          -365 hlineto
          hintmask 0001001000000000
          -34 -9 -8 -35 hvcurveto
          -21 vlineto
          -19 0 -23 37 vhcurveto
          hintmask 0000101001000000
          37 0 23 20 hvcurveto
          302 hlineto
          hintmask 0001000001000000
          -20 -56 callgsubr
          4 -505 rmoveto
          hintmask 1110010110100000
          27 vlineto
          -49 callgsubr
          -21 -27 vhcurveto
          -310 hlineto
          27 0 21 -37 -37 0 -23 -19 vhcurveto
          -26 vlineto
          -34 8 -9 35 vhcurveto
          373 -1 callgsubr
          -76 251 rmoveto
          49 vlineto
          20 0 23 -37 -17 -20 -3 -33 vhcurveto
          -158 hlineto
          32 -20 4 -17 -37 0 -23 -20 vhcurveto
          -49 vlineto
          -20 0 -23 37 17 20 3 33 vhcurveto
          158 hlineto
          -32 20 -4 17 37 0 23 20 vhcurveto
          endchar
        </CharString>
        <CharString name="Y">
          133 callgsubr
          -92 callgsubr
          endchar
        </CharString>
        <CharString name="Yacute">
          -14 callgsubr
          85 44 callgsubr
          225 74 hintmask 11001000
          -92 callgsubr
          hintmask 00110000
          -135 191 -107 callgsubr
        </CharString>
        <CharString name="Ycircumflex">
          49 callgsubr
          225 74 vstemhm
          -92 callgsubr
          -114 145 -106 callsubr
          endchar
        </CharString>
        <CharString name="Ydieresis">
          49 callgsubr
          117 92 16 74 17 92 hintmask 11010000
          -92 callgsubr
          hintmask 00101000
          -296 41 callsubr
        </CharString>
        <CharString name="Ydotbelow">
          22 callsubr
          212 102 -89 74 hintmask 01101000
          -92 callgsubr
          hintmask 10010000
          -191 -727 rmoveto
          52 callsubr
        </CharString>
        <CharString name="Ygrave">
          -14 callgsubr
          85 44 callgsubr
          225 74 hintmask 11001000
          -92 callgsubr
          hintmask 00110000
          -136 139 -100 callgsubr
        </CharString>
        <CharString name="Yhookabove">
          -14 callgsubr
          86 94 callgsubr
          225 74 hintmask 11001000
          -92 callgsubr
          hintmask 00111000
          -144 248 -107 callsubr
        </CharString>
        <CharString name="Ytilde">
          -14 callgsubr
          54 83 callsubr
          225 74 hintmask 11001000
          -92 callgsubr
          hintmask 00010000
          -67 177 -101 callgsubr
        </CharString>
        <CharString name="Z">
          48 callsubr
          60 74 273 74 vstem
          -76 callsubr
          endchar
        </CharString>
        <CharString name="Zacute">
          -14 callgsubr
          85 44 callgsubr
          60 74 273 74 hintmask 11001100
          -76 callsubr
          hintmask 00110000
          -111 727 -107 callgsubr
        </CharString>
        <CharString name="Zcaron">
          49 callgsubr
          60 74 273 74 vstemhm
          -76 callsubr
          -91 668 -83 callsubr
        </CharString>
        <CharString name="Zdotaccent">
          49 callgsubr
          60 74 78 102 93 74 hintmask 11101000
          -76 callsubr
          hintmask 00010000
          -167 685 rmoveto
          52 callsubr
        </CharString>
        <CharString name="Zdotbelow">
          22 callsubr
          60 74 78 102 93 74 hintmask 01110100
          -76 callsubr
          hintmask 10001000
          -167 -191 rmoveto
          52 callsubr
        </CharString>
        <CharString name="Zeta">
          48 callsubr
          60 74 273 74 vstem
          -76 callsubr
          endchar
        </CharString>
        <CharString name="a">
          -23 callsubr
          36 callgsubr
          hintmask 01011100
          -104 callsubr
          hintmask 10000000
          -42 callgsubr
          hintmask 01000000
          -80 callsubr
          hintmask 10101100
          -71 callgsubr
          endchar
        </CharString>
        <CharString name="aacute">
          -23 callsubr
          72 -21 131 -20 36 callgsubr
          hintmask 01010011
          -104 callsubr
          hintmask 10000000
          -42 callgsubr
          hintmask 01000000
          -80 callsubr
          hintmask 10100011
          -71 callgsubr
          hintmask 00001100
          23 367 -107 callgsubr
        </CharString>
        <CharString name="abreve">
          -23 callsubr
          62 68 41 -20 36 callgsubr
          hintmask 01010011
          -104 callsubr
          hintmask 10000000
          -42 callgsubr
          hintmask 01000000
          -80 callsubr
          hintmask 10100011
          -71 callgsubr
          hintmask 00001100
          94 362 -105 callsubr
          endchar
        </CharString>
        <CharString name="abreveacute">
          -23 callsubr
          63 68 66 68 58 -20 36 callgsubr
          hintmask 0101000110000000
          -104 callsubr
          hintmask 1000000000000000
          -42 callgsubr
          hintmask 0100000000000000
          -80 callsubr
          hintmask 1010000110000000
          -71 callgsubr
          hintmask 0000111000000000
          94 363 -53 callsubr
        </CharString>
        <CharString name="abrevedotbelow">
          129 callsubr
          -60 49 callsubr
          92 65 62 138 callsubr
          48 74 90 102 33 74 hintmask 0010100101000000
          -104 callsubr
          hintmask 0100000000000000
          -42 callgsubr
          hintmask 0010000000000000
          -80 callsubr
          hintmask 0101011101000000
          -71 callgsubr
          94 362 -105 callsubr
          hintmask 1000000010000000
          -127 -728 rmoveto
          52 callsubr
        </CharString>
        <CharString name="abrevegrave">
          -23 callsubr
          63 68 41 -20 45 68 36 callgsubr
          hintmask 0101000110000000
          -104 callsubr
          hintmask 1000000000000000
          -42 callgsubr
          hintmask 0100000000000000
          -80 callsubr
          hintmask 1010000110000000
          -71 callgsubr
          hintmask 0000111000000000
          94 363 -52 callgsubr
        </CharString>
        <CharString name="abrevehookabove">
          -23 callsubr
          63 68 205 68 36 callgsubr
          hintmask 01010011
          -104 callsubr
          hintmask 10000000
          -42 callgsubr
          hintmask 01000000
          -80 callsubr
          hintmask 10100011
          -71 callgsubr
          hintmask 00001100
          94 363 -105 callsubr
          -79 181 -107 callsubr
        </CharString>
        <CharString name="abrevetilde">
          -23 callsubr
          63 68 81 70 -16 70 36 callgsubr
          hintmask 0101000110000000
          -104 callsubr
          hintmask 1000000000000000
          -42 callgsubr
          hintmask 0100000000000000
          -80 callsubr
          hintmask 1010000110000000
          -71 callgsubr
          hintmask 0000101000000000
          94 363 -4 callsubr
          hintmask 0000010000000000
          -14 -15 -29 -24 -19 hhcurveto
          -10 -4 5 16 -17 hvcurveto
          hintmask 0000001000000000
          12 -12 -20 21 -34 hhcurveto
          -24 -27 -12 -21 -28 hvcurveto
          -47 -37 -2 -10 -10 vvcurveto
          hintmask 0000010000000000
          -17 16 -17 17 13 7 7 9 9 vhcurveto
          hintmask 0000001000000000
          14 15 29 24 19 hhcurveto
          10 4 -5 -16 17 hvcurveto
          hintmask 0000010000000000
          -93 callsubr
        </CharString>
        <CharString name="acaron">
          -23 callsubr
          36 callgsubr
          hintmask 01011100
          -104 callsubr
          hintmask 10000000
          -42 callgsubr
          hintmask 01000000
          -80 callsubr
          hintmask 10101100
          -71 callgsubr
          hintmask 00000000
          50 351 -75 callsubr
        </CharString>
        <CharString name="acircumflex">
          -23 callsubr
          36 callgsubr
          hintmask 01011100
          -104 callsubr
          hintmask 10000000
          -42 callgsubr
          hintmask 01000000
          -80 callsubr
          hintmask 10101100
          -71 callgsubr
          hintmask 00000000
          50 325 -82 callgsubr
          endchar
        </CharString>
        <CharString name="acircumflexacute">
          -23 callsubr
          302 -20 -10 callsubr
          44 329 -31 callsubr
          158 -107 callgsubr
        </CharString>
        <CharString name="acircumflexdotbelow">
          129 callsubr
          -60 49 callsubr
          92 65 hstemhm
          48 74 90 102 33 74 hintmask 00101101
          -104 callsubr
          hintmask 01000000
          -42 callgsubr
          hintmask 00100000
          -80 callsubr
          hintmask 01010101
          -71 callgsubr
          50 325 -82 callgsubr
          hintmask 10000010
          -83 -691 rmoveto
          52 callsubr
        </CharString>
        <CharString name="acircumflexgrave">
          -23 callsubr
          36 callgsubr
          hintmask 01011100
          -104 callsubr
          hintmask 10000000
          -42 callgsubr
          hintmask 01000000
          -80 callsubr
          hintmask 10101100
          -71 callgsubr
          hintmask 00000000
          44 329 -85 callsubr
        </CharString>
        <CharString name="acircumflexhookabove">
          -23 callsubr
          383 -20 -10 callsubr
          44 329 -106 callsubr
          69 194 -107 callsubr
        </CharString>
        <CharString name="acircumflextilde">
          -23 callsubr
          191 70 -16 70 36 callgsubr
          hintmask 01010011
          -104 callsubr
          hintmask 10000000
          -42 callgsubr
          hintmask 01000000
          -80 callsubr
          hintmask 10100011
          -71 callgsubr
          hintmask 00000100
          44 329 -106 callsubr
          47 174 -34 callgsubr
        </CharString>
        <CharString name="acute">
          511 33 callgsubr
          hstem
          370 584 -107 callgsubr
        </CharString>
        <CharString name="acute.cap">
          515 33 callgsubr
          hstem
          370 588 -107 callgsubr
        </CharString>
        <CharString name="acute.dup">
          511 33 callgsubr
          hstem
          370 584 -107 callgsubr
        </CharString>
        <CharString name="acute.ts1">
          85 callsubr
          408 573 rmoveto
          19 -16 20 -21 vhcurveto
          hintmask 11000000
          -6 -1 -13 -2 -13 -7 -13 -5 rlinecurve
          -72 -29 -30 -13 rlineto
          -15 -6 -16 -6 -19 vvcurveto
          -23 15 -21 24 vhcurveto
          6 1 6 2 6 3 24 9 rcurveline
          104 43 rlineto
          16 7 14 9 19 vvcurveto
          endchar
        </CharString>
        <CharString name="adblgrave">
          -23 callsubr
          36 callgsubr
          hintmask 01011100
          -104 callsubr
          hintmask 10000000
          -42 callgsubr
          hintmask 01000000
          -80 callsubr
          hintmask 10101100
          -71 callgsubr
          hintmask 00000100
          75 279 -99 callgsubr
        </CharString>
        <CharString name="adieresis">
          -23 callsubr
          71 92 hstemhm
          48 74 10 92 77 92 -46 74 hintmask 0101010010000000
          -104 callsubr
          hintmask 1000000000000000
          -42 callgsubr
          hintmask 0100000000000000
          -80 callsubr
          hintmask 1010010010000000
          -71 callgsubr
          hintmask 0000101010000000
          -123 339 rmoveto
          -101 callsubr
          169 hmoveto
          26 -21 20 -25 vhcurveto
          hintmask 0000000100000000
          -25 -21 -20 -26 hvcurveto
          hintmask 0000100010000000
          -25 21 -21 25 vhcurveto
          hintmask 0000000100000000
          25 21 21 25 hvcurveto
          endchar
        </CharString>
        <CharString name="adotbelow">
          129 callsubr
          -60 49 callsubr
          92 65 hstemhm
          48 74 90 102 33 74 hintmask 00101101
          -104 callsubr
          hintmask 01000000
          -42 callgsubr
          hintmask 00100000
          -80 callsubr
          hintmask 01010101
          -71 callgsubr
          hintmask 10000010
          -33 -366 rmoveto
          52 callsubr
        </CharString>
        <CharString name="ae">
          -44 callsubr
        </CharString>
        <CharString name="ae.dup">
          -44 callsubr
        </CharString>
        <CharString name="aeacute">
          -5 65 62 65 2 64 0 64 57 65 72 44 callgsubr
          31 60 -4 61 -57 62 58 61 -40 62 149 61 -60 60 hintmask 1010100000010100
          504 109 rmoveto
          17 -13 13 -17 -23 -5 -19 -10 -2 vhcurveto
          -26 -8 -17 -24 -26 hhcurveto
          -44 -47 52 77 -8 hvcurveto
          168 hlineto
          33 9 8 34 141 -58 67 -68 hvcurveto
          hintmask 0001100010100000
          -26 -41 -9 -60 -39 hvcurveto
          39 -23 -36 30 -56 hhcurveto
          -57 -60 -18 -57 -27 20 -20 27 19 13 12 4 4 hvcurveto
          9 13 0 5 22 vvcurveto
          1 7 9 0 7 hhcurveto
          hintmask 0100000100010000
          45 32 -31 -62 hvcurveto
          -31 vlineto
          -103 -1 -98 -41 -86 vvcurveto
          hintmask 1001100010010100
          -56 39 -71 78 42 58 20 46 28 vhcurveto
          -13 9 40 -53 63 hhcurveto
          84 32 92 22 hvcurveto
          -61 144 rmoveto
          -149 hlineto
          65 9 36 56 39 hhcurveto
          hintmask 1101000001101000
          28 31 -30 -91 6 hvcurveto
          -211 -66 rmoveto
          -1 -12 0 -15 -19 vvcurveto
          -31 0 -11 -20 -18 vhcurveto
          -15 -16 -25 -6 -17 hhcurveto
          -41 -21 36 26 hvcurveto
          hintmask 0100000000010000
          53 106 11 35 1 vhcurveto
          hintmask 0000011000000000
          138 397 -107 callgsubr
        </CharString>
        <CharString name="agrave">
          -23 callsubr
          72 -21 131 -20 36 callgsubr
          hintmask 01010011
          -104 callsubr
          hintmask 10000000
          -42 callgsubr
          hintmask 01000000
          -80 callsubr
          hintmask 10100011
          -71 callgsubr
          hintmask 00001100
          22 315 -100 callgsubr
        </CharString>
        <CharString name="ahookabove">
          -23 callsubr
          22 -21 232 -20 36 callgsubr
          hintmask 01010011
          -104 callsubr
          hintmask 10000000
          -42 callgsubr
          hintmask 01000000
          -80 callsubr
          hintmask 10100011
          -71 callgsubr
          hintmask 00001100
          14 373 -107 callsubr
        </CharString>
        <CharString name="amacron">
          -23 callsubr
          83 67 -10 callsubr
          105 338 -89 callsubr
        </CharString>
        <CharString name="ampersand">
          -11 65 312 65 126 65 hstem
          101 60 82 60 124 60 vstem
          490 398 rmoveto
          37 callsubr
          vhcurveto
          -84 hlineto
          -15 -27 0 -32 -24 14 -7 17 -2 hvcurveto
          -24 -66 -30 -85 -28 -50 -14 23 -37 60 -20 47 rrcurveto
          73 76 30 51 61 vvcurveto
          66 -26 73 -68 -58 -50 -53 -94 -55 13 -63 15 -43 vhcurveto
          -14 -16 -37 -36 -13 -16 rrcurveto
          -27 -33 -10 -39 -35 vvcurveto
          -79 48 -71 75 56 40 36 32 27 vhcurveto
          -38 34 39 -30 45 hhcurveto
          68 27 71 45 34 -30 0 0 -28 -2 -27 -6 hvcurveto
          -32 -2 -14 -20 -19 hhcurveto
          -35 -34 39 17 -13 hvcurveto
          33 58 20 54 3 7 52 137 rcurveline
          30 -15 callsubr
          hvcurveto
          -247 84 rmoveto
          -29 -16 -30 -50 -58 vhcurveto
          -16 55 0 46 9 vvcurveto
          53 24 29 23 35 0 -75 0 vhcurveto
          -7 -374 rmoveto
          -26 -20 -29 -28 -36 hhcurveto
          -38 -11 55 33 40 8 22 45 44 hvcurveto
          13 -27 48 -84 20 -29 rrcurveto
          endchar
        </CharString>
        <CharString name="anglearc">
          101 -21 452 -20 hstem
          343 74 vstem
          487 117 rmoveto
          14 -8 13 -12 6 vhcurveto
          -72 36 rlineto
          15 38 7 41 41 vvcurveto
          41 -7 41 -15 38 vhcurveto
          72 36 rlineto
          12 6 8 13 14 vvcurveto
          20 -17 17 -20 -6 -6 -1 -3 -5 vhcurveto
          -71 -36 -5 9 -6 9 -7 8 rlinecurve
          8 -7 -10 6 -12 hhcurveto
          -20 -17 -17 -20 -9 3 -8 5 -6 hvcurveto
          10 -13 -239 -120 rlineto
          -12 -6 -8 -13 -14 vvcurveto
          -14 8 -13 12 -6 vhcurveto
          239 -120 -10 -13 rlineto
          -5 -6 -3 -8 -9 vvcurveto
          -20 17 -17 20 12 10 6 8 7 vhcurveto
          7 8 6 9 5 9 71 -36 rcurveline
          -3 5 6 -1 6 hhcurveto
          20 17 17 20 hvcurveto
          -144 189 rmoveto
          -30 -5 -29 -9 -28 vhcurveto
          -173 87 173 87 rlineto
          9 -28 5 -29 -30 vvcurveto
          endchar
        </CharString>
        <CharString name="angleleft">
          131 callsubr
          449 -45 rmoveto
          21 -18 19 -12 18 vhcurveto
          -56 94 -63 89 -57 93 rrcurveto
          -4 5 -6 7 6 vvcurveto
          3 2 3 2 2 vhcurveto
          9 15 37 57 138 215 16 25 rlineto
          5 9 7 10 11 vvcurveto
          20 -17 18 -20 vhcurveto
          hintmask 11000000
          -7 -1 -27 -3 -22 -50 -18 -29 rlinecurve
          -59 -91 -61 -89 -55 -93 rrcurveto
          -7 -11 -7 -10 -13 vvcurveto
          -3 vlineto
          4 -21 19 -23 13 -19 85 -133 rcurveline
          96 -150 rlineto
          -17 12 10 -21 24 hhcurveto
          20 17 19 18 hvcurveto
          endchar
        </CharString>
        <CharString name="angleright">
          131 callsubr
          375 308 rmoveto
          3 vlineto
          -4 21 -20 25 -15 21 -179 280 rcurveline
          17 -12 -8 20 -24 hhcurveto
          hintmask 11000000
          -7 -1 rlineto
          -18 -2 -13 -17 -17 vvcurveto
          -18 13 -14 9 -14 vhcurveto
          151 -236 31 -48 4 -6 7 -8 1 -7 rlinecurve
          -1 vlineto
          -6 -8 -9 -3 -5 vhcurveto
          -65 -97 -61 -102 -65 -98 rrcurveto
          -6 -10 -8 -10 -13 vvcurveto
          -17 14 -21 24 33 20 52 28 19 vhcurveto
          176 276 rlineto
          7 11 7 10 13 vvcurveto
          endchar
        </CharString>
        <CharString name="aogonek">
          110 callgsubr
          309 65 36 callgsubr
          hintmask 00111100
          -104 callsubr
          hintmask 11000000
          -42 callgsubr
          8 -12 12 -7 14 -5 rrcurveto
          -39 -25 -36 -46 -47 -9 callgsubr
          -72 callsubr
          hvcurveto
          hintmask 00100000
          43 40 36 53 31 vhcurveto
          28 55 callsubr
          -172 108 rmoveto
          -23 0 -21 -40 -20 vhcurveto
          hintmask 01001100
          -71 callgsubr
          endchar
        </CharString>
        <CharString name="aogonekacute">
          110 callgsubr
          309 65 72 -21 131 -20 36 callgsubr
          hintmask 00110011
          -104 callsubr
          hintmask 11000000
          -42 callgsubr
          8 -12 12 -7 14 -5 rrcurveto
          -39 -25 -36 -46 -47 -9 callgsubr
          -72 callsubr
          hvcurveto
          hintmask 00100000
          43 40 36 53 31 vhcurveto
          28 55 callsubr
          -172 108 rmoveto
          -23 0 -21 -40 -20 vhcurveto
          hintmask 01000011
          -71 callgsubr
          hintmask 00001100
          23 367 -107 callgsubr
        </CharString>
        <CharString name="aring">
          -23 callsubr
          55 38 68 38 hstemhm
          48 74 44 50 94 50 -13 74 hintmask 0101001001000000
          -104 callsubr
          hintmask 1000000000000000
          -42 callgsubr
          hintmask 0100000000000000
          -80 callsubr
          hintmask 1010001001000000
          -71 callgsubr
          hintmask 0000110110000000
          -37 349 -47 callsubr
        </CharString>
        <CharString name="aringacute">
          -23 callsubr
          55 38 68 38 76 38 37 -20 hstemhm
          48 74 44 50 94 50 -13 74 hintmask 0101000010010000
          -104 callsubr
          hintmask 1000000000000000
          -42 callgsubr
          hintmask 0100000000000000
          -80 callsubr
          hintmask 1010000010010000
          -71 callgsubr
          hintmask 0000111101100000
          -37 349 -73 callgsubr
          10 186 -107 callgsubr
        </CharString>
        <CharString name="asciicircum">
          437 543 rmoveto
          -163 79 -7 3 -9 0 -7 -3 rlinecurve
          -163 -79 -35 -17 24 -52 34 15 rlinecurve
          151 65 151 -65 35 -15 24 52 -35 17 rlinecurve
          endchar
        </CharString>
        <CharString name="asciitilde">
          438 334 rmoveto
          17 -16 17 -17 -13 -7 -7 -9 -9 vhcurveto
          -14 -15 -29 -24 -19 hhcurveto
          -10 -4 5 16 -17 hvcurveto
          12 -12 -20 21 -34 hhcurveto
          -24 -27 -12 -21 -28 hvcurveto
          -47 -37 -2 -10 -10 vvcurveto
          -17 16 -17 17 13 7 7 9 9 vhcurveto
          14 15 29 24 19 hhcurveto
          10 4 -5 -16 17 hvcurveto
          -93 callsubr
        </CharString>
        <CharString name="asciitilde.low">
          438 90 rmoveto
          17 -16 17 -17 -13 -7 -7 -9 -9 vhcurveto
          -14 -15 -29 -24 -19 hhcurveto
          -10 -4 5 16 -17 hvcurveto
          12 -12 -20 21 -34 hhcurveto
          -24 -27 -12 -21 -28 hvcurveto
          -47 -37 -2 -10 -10 vvcurveto
          -17 16 -17 17 13 7 7 9 9 vhcurveto
          14 15 29 24 19 hhcurveto
          10 4 -5 -16 17 hvcurveto
          -93 callsubr
        </CharString>
        <CharString name="asterisk">
          111 -21 431 -20 hstem
          127 70 30 70 89 70 vstem
          456 215 rmoveto
          20 -14 8 -6 3 vhcurveto
          -109 59 106 57 rlineto
          23 12 0 16 6 vvcurveto
          19 -15 16 -20 -9 -5 -3 -3 -5 vhcurveto
          -108 -64 rlineto
          2 25 1 65 27 vvcurveto
          8 0 35 -35 -35 0 -35 -8 -27 1 -65 2 -25 vhcurveto
          -103 61 rlineto
          7 -13 -2 2 -9 hhcurveto
          -20 -15 -16 -19 -12 5 -12 18 -10 hvcurveto
          106 -56 -106 -57 rlineto
          -23 -12 0 -17 -5 vvcurveto
          -19 15 -16 20 9 5 3 3 5 vhcurveto
          108 64 rlineto
          -2 -25 -1 -65 -27 vvcurveto
          -8 0 -35 35 35 0 35 8 27 -1 65 -2 25 vhcurveto
          92 -55 rlineto
          -15 24 2 0 9 hhcurveto
          20 15 16 19 hvcurveto
          endchar
        </CharString>
        <CharString name="asterisk.math">
          114 -21 428 -20 hstem
          230 67 vstem
          455 217 rmoveto
          24 -23 11 -26 13 vhcurveto
          -25 13 -29 20 -24 8 rrcurveto
          2 vlineto
          32 11 39 28 30 15 rrcurveto
          17 7 9 12 16 vvcurveto
          17 -12 16 -18 2 vhcurveto
          -2 hlineto
          -17 -14 -10 -9 -13 hvcurveto
          -28 -16 -28 -19 -29 -15 rrcurveto
          21 1 21 1 21 vhcurveto
          34 vlineto
          7 1 7 7 vvcurveto
          25 -14 15 -21 -19 -17 -15 -24 vhcurveto
          -39 4 -40 -40 vvcurveto
          -29 15 -28 19 -28 16 rrcurveto
          9 -13 -14 10 -17 hhcurveto
          -2 hlineto
          -18 -2 -12 -16 -17 vvcurveto
          -24 23 -11 26 -13 vhcurveto
          25 -13 29 -20 24 -8 rrcurveto
          -2 vlineto
          -32 -11 -39 -28 -30 -15 rrcurveto
          -17 -7 -9 -12 -16 vvcurveto
          -17 12 -16 18 -2 vhcurveto
          2 hlineto
          17 14 10 9 13 hvcurveto
          28 16 28 19 29 15 rrcurveto
          -40 -4 -40 -39 vvcurveto
          -24 17 -15 19 21 14 15 25 vhcurveto
          7 -1 7 7 vvcurveto
          34 vlineto
          -1 21 -1 21 21 vvcurveto
          29 -15 28 -19 28 -16 rrcurveto
          -9 13 14 -10 17 hhcurveto
          2 hlineto
          18 2 12 16 17 vvcurveto
          endchar
        </CharString>
        <CharString name="at">
          -5 65 46 65 269 65 46 65 hstem
          44 60 85 60 85 60 cntrmask 00001110
          480 83 rmoveto
          30 -30 0 -10 -18 -3 0 -13 -14 vhcurveto
          -23 -24 -36 -17 -40 hhcurveto
          -105 -96 105 140 147 100 99 100 43 33 -26 -37 14 hvcurveto
          8 -13 -21 9 -25 hhcurveto
          -82 -64 -88 -111 -118 69 -82 76 50 96 43 172 64 0 231 -176 -137 -123 -132 -178 -177 121 -134 141 90 84 58 30 hvcurveto
          -60 223 rmoveto
          -81 -44 -54 -41 -46 -40 59 75 81 44 54 41 46 40 -59 -75 vhcurveto
          endchar
        </CharString>
        <CharString name="atilde">
          -23 callsubr
          55 70 -16 70 36 callgsubr
          hintmask 01010011
          -104 callsubr
          hintmask 10000000
          -42 callgsubr
          hintmask 01000000
          -80 callsubr
          hintmask 10100011
          -71 callgsubr
          hintmask 00000100
          91 367 -34 callgsubr
        </CharString>
        <CharString name="b">
          -5 25 callgsubr
          179 -76 callgsubr
          -503 hlineto
          -20 0 -23 37 37 0 23 20 vhcurveto
          14 callgsubr
          70 callgsubr
        </CharString>
        <CharString name="backslash">
          90 callsubr
          58 408 vstem
          466 -45 rmoveto
          8 -4 8 -1 3 vhcurveto
          -328 691 rlineto
          11 -5 -9 18 -24 hhcurveto
          -18 -19 -15 -23 -8 4 -8 1 -3 hvcurveto
          327 -690 rlineto
          -21 10 12 -9 17 hhcurveto
          18 19 15 23 hvcurveto
          endchar
        </CharString>
        <CharString name="baht">
          78 callsubr
          89 74 59 64 -63 64 100 74 -53 74 hintmask 00100110
          482 168 rmoveto
          59 -37 69 -90 25 vhcurveto
          76 26 30 59 49 vvcurveto
          74 -61 82 -111 vhcurveto
          -2 64 hlineto
          18 -15 14 -17 114 callgsubr
          vhcurveto
          hintmask 10111000
          -1 -64 rlineto
          -159 -100 callsubr
          26 -481 -26 -100 callsubr
          hintmask 10000100
          160 -64 hlineto
          78 callgsubr
          hintmask 10001001
          -1 64 rlineto
          23 hlineto
          114 59 91 77 hvcurveto
          -95 286 rmoveto
          -33 -23 -60 -78 -10 vhcurveto
          hintmask 11110110
          1 195 rlineto
          80 -1 20 -60 -31 vvcurveto
          -164 -104 rmoveto
          -60 196 60 hlineto
          185 -376 rmoveto
          -48 -37 -57 -84 vhcurveto
          220 11 vlineto
          hintmask 11010101
          82 28 -71 -44 hvcurveto
          -185 -105 rmoveto
          -60 220 60 hlineto
          endchar
        </CharString>
        <CharString name="bar">
          90 callsubr
          225 75 vstem
          300 -34 rmoveto
          34 callsubr
          endchar
        </CharString>
        <CharString name="bigcircle">
          89 callsubr
          445 40 vstem
          -54 callgsubr
          endchar
        </CharString>
        <CharString name="blanksymbol">
          -5 25 callgsubr
          61 vlineto
          110 93 rlineto
          7 5 5 9 10 vvcurveto
          18 -15 14 -17 -8 -7 -3 -4 -6 vhcurveto
          -69 -59 rlineto
          35 -76 callgsubr
          -74 hlineto
          -75 -63 rlineto
          -7 -6 -4 -8 -10 vvcurveto
          103 callgsubr
          8 7 3 4 6 vhcurveto
          33 28 rlineto
          -345 vlineto
          -20 0 -23 37 37 0 23 20 vhcurveto
          14 callgsubr
          70 callgsubr
        </CharString>
        <CharString name="braceleft">
          95 callgsubr
          -50 rmoveto
          31 -28 1 -8 vhcurveto
          -134 2 0 36 27 vvcurveto
          160 vlineto
          19 0 49 -56 30 vhcurveto
          56 32 0 48 19 vvcurveto
          160 vlineto
          25 0 38 131 2 vhcurveto
          12 27 0 32 33 -26 0 -18 -25 -67 -2 -26 -50 hvcurveto
          -58 -30 0 -49 -19 vvcurveto
          -160 vlineto
          -24 0 -44 -133 -2 vhcurveto
          -10 -27 -1 -31 -32 27 -1 9 hvcurveto
          134 -3 0 -42 -25 vvcurveto
          -160 vlineto
          -26 2 -46 63 -30 vhcurveto
          -22 45 66 -2 24 hhcurveto
          18 26 45 callgsubr
        </CharString>
        <CharString name="braceright">
          95 callgsubr
          305 rmoveto
          32 -27 1 -9 vhcurveto
          -134 3 0 42 25 vvcurveto
          160 vlineto
          26 -2 46 -63 30 vhcurveto
          22 -45 -66 2 -24 hhcurveto
          -18 -26 0 -33 -31 28 -1 8 hvcurveto
          134 -2 0 -36 -27 vvcurveto
          -160 vlineto
          -19 0 -49 56 -30 vhcurveto
          -56 -32 0 -48 -19 vvcurveto
          -160 vlineto
          -25 0 -38 -131 -2 vhcurveto
          -12 119 callgsubr
          26 0 18 25 67 2 26 50 hvcurveto
          58 30 0 49 19 vvcurveto
          160 vlineto
          24 0 44 133 2 vhcurveto
          10 27 1 31 hvcurveto
          endchar
        </CharString>
        <CharString name="bracketleft">
          -83 65 647 65 hstem
          218 74 vstem
          484 -50 rmoveto
          32 -28 0 -14 vhcurveto
          -150 647 150 -39 callgsubr
          33 32 -28 0 -14 hvcurveto
          -182 hlineto
          -33 -9 -8 -34 hvcurveto
          -693 vlineto
          -33 8 -9 34 vhcurveto
          182 hlineto
          15 27 45 callgsubr
        </CharString>
        <CharString name="bracketright">
          -83 65 647 65 hstem
          232 74 vstem
          306 -41 rmoveto
          693 vlineto
          -53 callgsubr
          -182 -96 callsubr
          150 -647 -150 -96 callsubr
          182 97 callgsubr
        </CharString>
        <CharString name="breve">
          501 68 41 -20 hstem
          441 579 -105 callsubr
          endchar
        </CharString>
        <CharString name="breve.cap">
          494 68 41 -20 hstem
          441 572 -105 callsubr
          endchar
        </CharString>
        <CharString name="breve.ts1">
          501 69 42 -20 21 -20 hstemhm
          hintmask 10100000
          461 579 rmoveto
          16 -9 18 -22 -33 10 -30 -6 -30 vhcurveto
          -6 -29 -29 -1 -30 hhcurveto
          -62 hlineto
          -36 -47 1 13 -13 hvcurveto
          -4 4 -1 6 -3 5 rrcurveto
          hintmask 11000000
          9 -6 -11 4 -10 hhcurveto
          -3 -2 0 -1 -3 hvcurveto
          -17 -3 -8 -14 -15 vvcurveto
          -70 96 -8 61 vhcurveto
          18 14 1 9 hhcurveto
          28 hlineto
          70 102 4 73 hvcurveto
          endchar
        </CharString>
        <CharString name="brokenbar">
          90 callsubr
          225 75 vstem
          300 373 rmoveto
          272 vlineto
          11 0 38 -37 -38 0 -37 -12 vhcurveto
          -272 vlineto
          -18 18 -14 20 19 18 14 18 vhcurveto
          -407 vmoveto
          272 vlineto
          18 -18 14 -19 -20 -18 -14 -18 vhcurveto
          -272 vlineto
          -11 0 -38 37 38 0 37 12 vhcurveto
          endchar
        </CharString>
        <CharString name="bullet">
          84 288 hstem
          119 288 74 callgsubr
          endchar
        </CharString>
        <CharString name="c">
          43 callsubr
          hstem
          71 74 216 93 vstem
          -62 callsubr
          -122 98 -99 123 143 31 99 15 hvcurveto
          endchar
        </CharString>
        <CharString name="cacute">
          121 callgsubr
          71 74 216 93 hintmask 11001100
          -62 callsubr
          -122 98 -99 123 143 31 99 15 hvcurveto
          hintmask 00110000
          -69 475 -107 callgsubr
        </CharString>
        <CharString name="caron">
          397 568 -75 callsubr
        </CharString>
        <CharString name="caron.cap">
          390 529 -83 callsubr
        </CharString>
        <CharString name="caron.ts1">
          495 -21 144 -20 hstem
          449 575 rmoveto
          20 -14 23 -21 -13 -12 -8 -6 -11 vhcurveto
          -105 -51 rlineto
          -2 -3 -4 -2 -4 hhcurveto
          -2 hlineto
          -10 2 -10 7 -9 5 -79 38 rcurveline
          7 -13 -14 10 -15 hhcurveto
          0 -5 0 -2 -1 vhcurveto
          -17 -3 -12 -25 -15 vvcurveto
          -23 29 -8 25 -11 vhcurveto
          38 -18 39 -16 37 -18 rrcurveto
          -3 6 6 -3 7 hhcurveto
          10 10 6 4 10 hvcurveto
          41 19 72 32 rlineto
          18 8 27 8 24 vvcurveto
          endchar
        </CharString>
        <CharString name="ccaron">
          43 callsubr
          hstemhm
          71 74 216 93 vstemhm
          -62 callsubr
          -122 98 -99 123 143 31 99 15 hvcurveto
          -42 459 -75 callsubr
        </CharString>
        <CharString name="ccedilla">
          43 callsubr
          hstemhm
          71 74 61 93 -28 74 16 93 -85 74 hintmask 11110100
          -62 callsubr
          hvcurveto
          hintmask 00001010
          -115 87 -95 113 -10 vhcurveto
          -20 vlineto
          30 callgsubr
          -38 -97 0 -38 -36 -26 0 -33 vhcurveto
          hintmask 00010010
          -21 14 -12 20 97 140 0 104 vhcurveto
          hintmask 00001000
          72 callsubr
          6 vlineto
          98 21 23 75 13 vvcurveto
          endchar
        </CharString>
        <CharString name="ccircumflex">
          43 callsubr
          hstemhm
          71 74 216 93 vstemhm
          -62 callsubr
          -122 98 -99 123 143 31 99 15 hvcurveto
          -42 433 -82 callgsubr
          endchar
        </CharString>
        <CharString name="cdotaccent">
          43 callsubr
          66 102 hstemhm
          71 74 94 102 20 93 hintmask 11010100
          -62 callsubr
          -122 98 -99 123 143 31 99 15 hvcurveto
          hintmask 00101000
          -125 447 rmoveto
          52 callsubr
        </CharString>
        <CharString name="cedilla">
          10 callgsubr
        </CharString>
        <CharString name="cedilla.dup">
          10 callgsubr
        </CharString>
        <CharString name="cent">
          374 65 hstem
          71 74 112 64 40 93 vstem
          466 109 rmoveto
          21 -15 9 -22 -13 -14 0 -22 -9 vhcurveto
          -6 -13 -14 -35 -52 -7 rrcurveto
          312 vlineto
          18 -1 20 -2 1 -1 1 -9 rlinecurve
          -34 3 27 -10 16 hhcurveto
          27 20 20 27 67 -82 7 -51 1 hvcurveto
          56 vlineto
          17 -15 15 -17 -18 -14 -15 -17 vhcurveto
          -60 vlineto
          -137 -22 -49 -118 -79 vvcurveto
          -110 80 -91 106 -17 vhcurveto
          -62 vlineto
          78 callgsubr
          60 vlineto
          118 13 27 86 14 vvcurveto
          -209 -43 rmoveto
          -65 18 -47 60 72 vvcurveto
          44 23 86 89 22 vhcurveto
          endchar
        </CharString>
        <CharString name="cent.oldstyle">
          -5 65 -62 65 309 65 -63 65 hstemhm
          71 74 50 93 -17 93 -31 74 -46 93 hintmask 1000000000000000
          466 109 rmoveto
          21 -15 9 -22 -13 -14 0 -22 -9 vhcurveto
          -15 -7 -17 -42 -70 hhcurveto
          hintmask 0100001000000000
          -10 -9 1 2 -9 hvcurveto
          68 310 rlineto
          hintmask 0000000010000000
          20 -2 1 -1 1 -9 rrcurveto
          hintmask 0000000100000000
          -34 3 27 -10 16 hhcurveto
          hintmask 0010000010000000
          27 20 20 27 54 -53 15 -48 4 hvcurveto
          hintmask 0000001000000000
          11 51 rlineto
          hintmask 0101110100000000
          20 5 -16 19 -20 hhcurveto
          -15 -13 -11 -15 -3 hvcurveto
          -14 -62 rlineto
          -160 -9 -57 -129 -85 vvcurveto
          -87 50 -76 74 -36 vhcurveto
          -16 -74 rlineto
          -20 -5 16 -19 20 hhcurveto
          15 13 11 14 3 hvcurveto
          15 69 rlineto
          hintmask 1010100000000000
          -2 12 12 -1 12 hhcurveto
          143 31 99 15 hvcurveto
          -193 263 rmoveto
          -62 -284 rlineto
          -40 28 -26 47 53 vvcurveto
          47 26 93 102 16 vhcurveto
          endchar
        </CharString>
        <CharString name="centigrade">
          -10 33 callsubr
          hstem
          1 74 -74 123 -74 74 cntrmask 00111000
          493 172 rmoveto
          27 -19 6 -19 -22 -14 -10 -29 vhcurveto
          -31 -3 -16 -80 -57 hhcurveto
          -51 -32 72 47 -13 hvcurveto
          -14 43 -4 47 45 vvcurveto
          77 15 86 48 58 vhcurveto
          15 12 18 13 20 hhcurveto
          70 -4 -106 -33 13 hvcurveto
          -16 6 14 -4 16 hhcurveto
          30 6 19 19 hvcurveto
          148 vlineto
          23 -11 15 -21 -20 -12 -15 -18 -5 vhcurveto
          22 -24 -31 11 -32 hhcurveto
          -148 -34 -228 -94 -116 45 -195 139 93 61 95 87 hvcurveto
          -369 378 rmoveto
          36 -30 26 -39 vhcurveto
          -28 -6 -26 -22 -32 vvcurveto
          -37 30 -26 39 vhcurveto
          28 6 26 22 33 vvcurveto
          -49 2 rmoveto
          -1 -6 -5 -6 -6 -1 rrcurveto
          -2 hlineto
          -6 -5 5 5 hvcurveto
          1 6 5 6 6 1 rrcurveto
          2 hlineto
          6 5 -5 -5 hvcurveto
          endchar
        </CharString>
        <CharString name="circumflex">
          397 542 -82 callgsubr
          endchar
        </CharString>
        <CharString name="circumflex.cap">
          391 542 -106 callsubr
          endchar
        </CharString>
        <CharString name="circumflex.dup">
          397 542 -82 callgsubr
          endchar
        </CharString>
        <CharString name="colon">
          0 127 177 136 callgsubr
          367 29 callsubr
          -304 vmoveto
          53 callgsubr
        </CharString>
        <CharString name="colonmonetary">
          557 65 hstemhm
          40 74 143 64 87 76 -74 74 hintmask 10101000
          484 169 rmoveto
          34 -27 0 -10 -5 -30 0 -26 -2 vhcurveto
          -5 -81 -49 -28 -35 -9 rrcurveto
          492 vlineto
          33 -11 43 -31 13 -85 rrcurveto
          -25 4 25 0 8 hhcurveto
          37 0 23 19 hvcurveto
          139 51 callgsubr
          vhcurveto
          hintmask 01110000
          -22 -6 -12 -34 -16 hvcurveto
          -18 14 -30 20 -39 8 rrcurveto
          57 vlineto
          18 -15 14 -17 114 callgsubr
          vhcurveto
          -55 vlineto
          -120 -15 -97 -130 -169 vvcurveto
          -168 96 -131 121 -16 vhcurveto
          -55 vlineto
          78 callgsubr
          56 vlineto
          94 17 69 76 84 vvcurveto
          -227 -111 rmoveto
          -78 20 -65 99 128 vvcurveto
          133 67 96 76 19 vhcurveto
          endchar
        </CharString>
        <CharString name="comma">
          -118 -21 139 127 callsubr
          148 vstem
          347 26 rmoveto
          58 -37 43 -47 -39 -25 -30 -33 -37 27 -27 37 7 7 1 1 2 vhcurveto
          -5 -22 -18 -38 -51 -17 rrcurveto
          -9 -3 -18 -6 -22 vvcurveto
          -15 15 -18 19 32 103 53 112 vhcurveto
          endchar
        </CharString>
        <CharString name="copyleft">
          89 callsubr
          125 40 280 40 vstem
          -54 callgsubr
          -85 hmoveto
          95 -59 73 -69 -31 -24 -15 -10 -12 vhcurveto
          18 -9 -3 7 -11 hhcurveto
          -17 0 -15 -8 hvcurveto
          -74 vlineto
          -10 0 -12 19 5 13 0 13 2 vhcurveto
          66 10 45 5 11 hhcurveto
          46 45 -55 -79 -76 -43 -57 -48 -6 -56 1 64 -4 hvcurveto
          14 -1 -16 0 -3 hhcurveto
          -5 -14 0 -18 -50 47 -46 60 70 58 73 96 hvcurveto
          endchar
        </CharString>
        <CharString name="copyright">
          89 callsubr
          280 40 125 40 vstem
          -54 callgsubr
          -125 -73 rmoveto
          18 -14 0 -5 -3 -16 0 -14 -1 vhcurveto
          -64 -4 -56 -1 -6 hhcurveto
          -48 -43 57 76 79 45 55 46 11 45 -5 -66 10 hvcurveto
          -13 2 13 0 5 hhcurveto
          19 0 12 10 hvcurveto
          74 vlineto
          8 0 14 -17 -11 -4 -6 -18 -8 vhcurveto
          10 -12 -24 14 -31 hhcurveto
          -69 -59 -72 -95 -96 58 -72 70 60 47 45 50 hvcurveto
          endchar
        </CharString>
        <CharString name="currency">
          153 74 -72 -20 250 74 19 -21 hstemhm
          110 74 157 74 hintmask 00101100
          421 146 rmoveto
          27 27 -26 26 -8 9 -20 20 rcurveline
          13 23 8 26 29 vvcurveto
          29 -8 26 -13 23 vhcurveto
          19 19 8 8 27 27 -27 26 rlinecurve
          -26 27 -27 -26 -8 -9 -19 -19 rcurveline
          14 -23 -27 8 -28 hhcurveto
          -29 -27 -8 -14 -23 hvcurveto
          hintmask 01011000
          -20 20 -8 8 -27 27 -26 -26 rlinecurve
          -27 -27 27 -26 8 -9 20 -20 rcurveline
          -13 -23 -8 -26 -29 vvcurveto
          -29 8 -26 13 -23 vhcurveto
          -20 -20 -8 -8 -27 -27 27 -26 rlinecurve
          26 -27 27 26 8 9 20 20 rcurveline
          hintmask 10000100
          -14 23 27 -8 29 hhcurveto
          28 27 8 14 23 hvcurveto
          hintmask 01000000
          20 -20 7 -8 27 -27 26 26 rlinecurve
          -80 160 rmoveto
          hintmask 10101100
          -43 -35 -36 -43 -44 -35 36 43 43 35 36 44 43 35 -36 -43 vhcurveto
          endchar
        </CharString>
        <CharString name="cwm">
          -107 endchar
        </CharString>
        <CharString name="cwmascender">
          -107 endchar
        </CharString>
        <CharString name="cwmcapital">
          -107 endchar
        </CharString>
        <CharString name="d">
          -7 callsubr
          endchar
        </CharString>
        <CharString name="dagger">
          395 71 239 -20 hstemhm
          222 81 -41 81 hintmask 10010000
          460 430 91 callsubr
          rrcurveto
          18 1 22 13 71 vhcurveto
          hintmask 11100000
          4 21 9 53 35 vvcurveto
          8 0 35 -40 -41 0 -34 -9 -20 3 -33 11 -56 vhcurveto
          12 -71 1 -22 -18 vvcurveto
          54 callgsubr
          -2 -23 0 -8 -13 -53 rrcurveto
          -12 -56 0 -11 -49 vvcurveto
          -160 15 -178 8 -72 vhcurveto
          hintmask 00010000
          -19 2 1 -6 14 hhcurveto
          5 10 0 12 2 hvcurveto
          hintmask 00100000
          18 141 6 141 141 vvcurveto
          50 0 10 -12 56 vhcurveto
          -13 53 0 8 -2 23 rrcurveto
          hintmask 10010000
          87 callsubr
          endchar
        </CharString>
        <CharString name="daggerdbl">
          -61 71 -23 70 -23 71 hstemhm
          222 81 -41 81 cntrmask 11100000
          hintmask 11101000
          460 477 91 callsubr
          1 16 1 17 10 43 rrcurveto
          hintmask 11110000
          11 46 4 31 22 vvcurveto
          41 -34 0 -6 -16 -25 -6 -35 -29 8 -35 7 -32 vhcurveto
          10 -48 1 -12 1 -19 54 callgsubr
          -1 -16 -1 -17 -10 -43 rrcurveto
          -11 -46 -4 -31 -22 103 callsubr
          29 -8 35 -7 32 hvcurveto
          -10 48 -1 12 -1 19 rrcurveto
          hintmask 11101000
          87 callsubr
          -455 vmoveto
          20 -18 15 -22 -29 -22 -5 -10 -41 vhcurveto
          -27 -6 -8 0 -17 -2 1 18 1 17 14 56 rrcurveto
          hintmask 11110000
          7 33 4 31 19 vvcurveto
          41 -34 0 -6 -16 -25 -6 -35 -21 3 -26 13 -56 vhcurveto
          8 -34 2 -16 1 -21 -24 2 -2 0 -40 10 rrcurveto
          8 -34 -20 3 -22 hhcurveto
          -28 -13 -17 -18 -19 16 -16 25 24 25 4 9 38 hvcurveto
          30 8 5 0 20 2 -1 -18 -1 -17 -14 -56 rrcurveto
          -7 -33 -4 -31 -19 103 callsubr
          21 -3 26 -13 56 hvcurveto
          -8 34 -2 16 -1 21 rrcurveto
          hintmask 11101000
          24 -2 2 0 41 -10 rrcurveto
          -7 27 24 -4 24 hhcurveto
          26 16 16 19 hvcurveto
          endchar
        </CharString>
        <CharString name="dblbracketleft">
          -82 75 627 75 hstem
          142 75 88 75 vstem
          496 -44 rmoveto
          20 -8 17 -28 vhcurveto
          -80 627 80 hlineto
          30 6 19 19 19 -8 18 -27 hvcurveto
          -284 hlineto
          -29 -6 -20 -19 hvcurveto
          -697 vlineto
          -19 3 -22 32 vhcurveto
          284 hlineto
          29 6 19 19 hvcurveto
          -191 37 rmoveto
          -88 627 88 hlineto
          endchar
        </CharString>
        <CharString name="dblbracketright">
          -82 75 627 75 hstem
          144 75 88 75 vstem
          382 -41 rmoveto
          697 vlineto
          19 -6 20 -29 vhcurveto
          -283 hlineto
          -29 -6 -19 -19 -20 8 -17 28 hvcurveto
          79 -627 -79 hlineto
          -28 -8 -17 -20 -19 6 -19 29 hvcurveto
          283 hlineto
          32 3 22 19 hvcurveto
          -75 34 rmoveto
          -88 627 88 hlineto
          endchar
        </CharString>
        <CharString name="dblgrave.ts1">
          85 callsubr
          238 523 rmoveto
          27 -55 27 -26 20 vhcurveto
          51 callsubr
          175 hmoveto
          27 -55 27 -26 20 vhcurveto
          hintmask 00100000
          51 callsubr
          endchar
        </CharString>
        <CharString name="dblverticalbar">
          90 callsubr
          189 -34 rmoveto
          34 callsubr
          222 hmoveto
          34 callsubr
          endchar
        </CharString>
        <CharString name="dcaron">
          -5 65 -60 83 callgsubr
          81 94 -65 65 hstemhm
          34 74 248 74 hintmask 01101110
          -19 callsubr
          hintmask 10000010
          5 callsubr
          hintmask 10101110
          25 callsubr
          240 270 rmoveto
          44 -28 32 -35 -29 -19 -22 -25 -28 20 -20 28 vhcurveto
          hintmask 00110000
          5 5 1 2 hhcurveto
          -4 -16 -13 -29 -39 -12 rrcurveto
          -6 -3 -14 -4 -17 vvcurveto
          -11 11 -13 15 24 77 39 84 vhcurveto
          endchar
        </CharString>
        <CharString name="dcroat">
          -5 65 -60 83 callgsubr
          21 64 25 65 hstemhm
          34 74 248 74 hintmask 01111110
          -26 callgsubr
          392 49 hlineto
          18 14 14 18 130 callsubr
          hvcurveto
          -49 48 -73 callsubr
          -25 -146 hlineto
          114 callgsubr
          103 callgsubr
          hvcurveto
          146 -63 hlineto
          19 -22 -40 23 -53 hhcurveto
          -111 -96 -96 -125 hvcurveto
          hintmask 10000010
          5 callsubr
          hintmask 10100110
          25 callsubr
          endchar
        </CharString>
        <CharString name="ddotbelow">
          129 callsubr
          -60 62 callgsubr
          34 74 104 102 42 74 hintmask 00111101
          -19 callsubr
          hintmask 01000001
          -123 90 -97 108 45 43 17 36 36 vhcurveto
          hintmask 00100000
          -31 0 -17 42 vhcurveto
          76 -15 callsubr
          hvcurveto
          -160 163 rmoveto
          hintmask 01010101
          25 callsubr
          hintmask 10000010
          -42 -414 rmoveto
          52 callsubr
        </CharString>
        <CharString name="degree">
          319 74 144 74 hstem
          117 74 143 74 vstem
          408 465 rmoveto
          81 -65 65 -80 -81 -65 -65 -81 -80 65 -66 81 80 65 66 80 vhcurveto
          -74 hmoveto
          -39 -32 -33 -39 -40 -32 33 39 40 32 32 40 39 32 -32 -40 vhcurveto
          endchar
        </CharString>
        <CharString name="diameter">
          91 74 282 74 hstem
          47 74 282 74 vstem
          487 494 rmoveto
          20 -17 17 -20 -10 -9 -4 -7 -7 vhcurveto
          -38 -38 rlineto
          25 -35 -43 14 -46 hhcurveto
          -119 -96 -96 -119 -46 15 -43 24 -35 hvcurveto
          -38 -39 rlineto
          -7 -7 -4 -9 -10 vvcurveto
          -20 17 -17 20 10 9 4 7 7 vhcurveto
          39 39 rlineto
          -25 35 42 -14 46 hhcurveto
          119 96 96 119 46 -14 43 -25 35 hvcurveto
          38 38 rlineto
          7 7 4 9 10 vvcurveto
          -84 -188 rmoveto
          -78 -63 -63 -78 -25 -24 7 11 -21 vhcurveto
          192 193 rlineto
          12 -21 7 -24 -25 vvcurveto
          -71 122 rmoveto
          -192 -193 rlineto
          -12 21 -7 24 26 vvcurveto
          78 63 63 78 26 24 -7 -12 20 vhcurveto
          endchar
        </CharString>
        <CharString name="died">
          4 -21 311 68 187 -20 hstem
          225 74 vstem
          496 327 rmoveto
          20 -9 16 -25 vhcurveto
          -10 hlineto
          -14 -14 -1 -14 hhcurveto
          -111 155 hlineto
          26 -20 6 -18 -24 -13 -15 -23 vhcurveto
          -7 1 -7 -6 vvcurveto
          -129 -110 vlineto
          -10 -11 1 -10 hhcurveto
          -17 hlineto
          -18 -21 -5 -29 -21 10 -15 25 hvcurveto
          10 hlineto
          14 13 1 14 hhcurveto
          111 -271 hlineto
          -24 6 -16 32 32 4 21 19 vhcurveto
          271 110 vlineto
          10 11 -1 10 hhcurveto
          17 hlineto
          18 21 5 29 hvcurveto
          endchar
        </CharString>
        <CharString name="dieresis">
          510 92 hstem
          132 92 77 92 vstem
          -28 callgsubr
          endchar
        </CharString>
        <CharString name="dieresis.cap">
          117 92 107 92 vstem
          7 callsubr
          endchar
        </CharString>
        <CharString name="dieresis.dup">
          510 92 hstem
          132 92 77 92 vstem
          -28 callgsubr
          endchar
        </CharString>
        <CharString name="dieresis.ts1">
          511 102 hstem
          211 561 rmoveto
          135 callsubr
          -24 -3 -20 -21 -25 vvcurveto
          -24 19 -28 30 28 25 21 29 vhcurveto
          204 hmoveto
          135 callsubr
          -25 -3 -19 -21 -25 vvcurveto
          -24 19 -28 30 28 25 22 28 vhcurveto
          endchar
        </CharString>
        <CharString name="discount">
          22 -21 31 116 401 116 30 -20 hstem
          125 117 40 117 vstem
          466 653 rmoveto
          5 vlineto
          20 -17 17 -20 vhcurveto
          0 -4 0 -3 -1 vhcurveto
          -19 -3 -9 -17 -8 -16 -309 -575 rcurveline
          -8 -14 -11 -15 -16 vvcurveto
          -20 17 -17 21 vhcurveto
          2 hlineto
          35 2 33 86 24 46 262 486 rcurveline
          5 10 7 10 2 12 rrcurveto
          -224 -46 71 callgsubr
          157 -517 71 callgsubr
          endchar
        </CharString>
        <CharString name="divide">
          26 127 116 75 116 127 hstem
          198 127 cntrmask 11100000
          487 306 29 callgsubr
          -162 217 29 callsubr
          -434 vmoveto
          53 callgsubr
        </CharString>
        <CharString name="divorced">
          -45 -21 157 70 291 70 157 -20 hstem
          96 72 57 74 57 72 cntrmask 00001110
          734 308 rmoveto
          107 -75 107 -116 vhcurveto
          -11 hlineto
          -114 -12 -62 -103 -100 vvcurveto
          -107 75 -109 118 vhcurveto
          10 hlineto
          113 12 62 105 100 vvcurveto
          -566 -1 rmoveto
          106 -75 109 -118 vhcurveto
          -10 hlineto
          -113 -12 -62 -104 -100 vvcurveto
          -106 73 -109 117 vhcurveto
          11 hlineto
          115 13 62 102 101 vvcurveto
          131 -340 rmoveto
          673 vlineto
          27 -15 12 -22 -5 -4 -1 -1 -4 vhcurveto
          -16 -3 -8 -14 -15 vvcurveto
          -673 vlineto
          -30 18 -8 21 20 15 13 20 vhcurveto
          365 343 rmoveto
          -5 0 -6 -1 -5 vhcurveto
          -57 -4 -39 -76 -72 hhcurveto
          -3 hlineto
          -70 -47 77 68 65 40 74 72 7 hvcurveto
          6 hlineto
          71 47 -75 -67 hvcurveto
          -568 -4 rmoveto
          -68 -47 -77 -70 vhcurveto
          -3 hlineto
          -71 -37 74 60 -8 hvcurveto
          4 -1 5 4 vvcurveto
          66 46 78 74 vhcurveto
          6 hlineto
          67 -7 44 -71 -68 vvcurveto
          endchar
        </CharString>
        <CharString name="dlinebelow">
          -7 callsubr
          hintmask 00000000
          96 -414 -89 callsubr
        </CharString>
        <CharString name="dollar">
          -62 -21 80 65 -64 65 210 89 0 89 98 65 80 -20 hstemhm
          58 68 104 65 103 68 hintmask 1100111111000000
          466 173 rmoveto
          61 -39 89 -132 26 vhcurveto
          200 vlineto
          38 -6 40 -17 14 -41 rrcurveto
          -6 -5 -8 -8 -21 vvcurveto
          -31 25 -16 21 13 34 7 44 63 -40 85 -131 11 vhcurveto
          38 51 callgsubr
          -33 0 -27 -16 vhcurveto
          -37 vlineto
          -108 -15 -64 -72 -77 vvcurveto
          -49 31 -89 141 -25 vhcurveto
          -225 vlineto
          -36 6 -43 18 -15 52 rrcurveto
          6 5 9 12 18 vvcurveto
          26 -21 20 -25 -16 -31 -8 -43 -72 46 -87 126 -12 vhcurveto
          -37 vlineto
          -16 0 -27 33 32 0 27 15 vhcurveto
          38 vlineto
          101 15 70 76 85 vvcurveto
          -236 189 rmoveto
          -56 11 -48 34 48 vvcurveto
          36 32 44 72 13 vhcurveto
          168 -380 rmoveto
          hintmask 0011000011000000
          -46 -39 -46 -64 -13 vhcurveto
          210 vlineto
          63 -14 40 -43 -48 vvcurveto
          endchar
        </CharString>
        <CharString name="dollar.oldstyle">
          -62 -21 35 65 -21 65 -63 65 488 65 79 -20 hstemhm
          47 69 -68 68 12 69 -35 65 -33 69 -2 68 -32 65 0 68 -22 68 -64 65 hintmask 0000000000001000
          477 173 rmoveto
          65 -43 50 -53 31 vhcurveto
          -9 5 -10 4 0 vvcurveto
          200 vlineto
          14 -9 19 -19 -13 -9 -12 -10 -17 vvcurveto
          hintmask 0000000000000100
          -25 18 -20 29 vhcurveto
          hintmask 0000000000001010
          27 19 19 31 66 -48 68 -66 12 hvcurveto
          57 vlineto
          hintmask 0000010000010000
          23 -14 13 -19 vhcurveto
          hintmask 0000100001001000
          -19 -13 -14 -20 hvcurveto
          -45 -70 46 vlineto
          hintmask 0000010010000000
          18 -12 15 -18 vhcurveto
          hintmask 0000000101000000
          -31 -4 -21 -19 hvcurveto
          -45 vlineto
          -17 -21 -4 -14 -8 vhcurveto
          -45 -29 -34 -43 -55 vvcurveto
          -62 51 -67 63 -16 vhcurveto
          -221 vlineto
          hintmask 0000001010000000
          -14 12 -20 21 15 12 13 9 17 vvcurveto
          26 -20 20 -26 -26 -22 -19 -32 -65 39 -55 57 -29 vhcurveto
          hintmask 0000000001000000
          8 -5 11 -3 0 vvcurveto
          -55 vlineto
          hintmask 1000000000100000
          -23 10 -17 22 vhcurveto
          hintmask 0100000001000000
          17 16 14 21 hvcurveto
          hintmask 0001000001000000
          46 vlineto
          hintmask 0010000000010000
          -2 10 14 0 10 hhcurveto
          hintmask 0001000000001000
          14 9 1 1 13 hvcurveto
          hintmask 0100000000001000
          -46 vlineto
          hintmask 1100000000010100
          -19 12 -16 20 18 15 15 19 vhcurveto
          66 vlineto
          hintmask 0000000001000001
          0 32 14 18 15 vhcurveto
          38 30 27 48 49 vvcurveto
          -180 175 rmoveto
          -70 19 rlineto
          183 vlineto
          hintmask 0000100100101000
          36 1 rlineto
          13 21 -1 0 hvcurveto
          -135 -160 rmoveto
          -21 16 -25 20 33 vvcurveto
          hintmask 0000000001001010
          29 23 22 23 16 vhcurveto
          246 -356 rmoveto
          -31 -19 -30 -27 -18 vhcurveto
          154 vlineto
          24 -19 22 -24 -32 vvcurveto
          -111 -106 rmoveto
          hintmask 0010000000010000
          0 -22 -3 -14 vhcurveto
          hintmask 0001000001001000
          -13 -21 2 0 hvcurveto
          228 vlineto
          70 -20 rlineto
          endchar
        </CharString>
        <CharString name="dong">
          -64 64 hstem
          490 61 rmoveto
          31 -25 0 -15 vhcurveto
          -42 373 47 hlineto
          17 13 13 17 17 -13 14 -17 hvcurveto
          -47 -1 rlineto
          46 vlineto
          31 -7 9 -32 vhcurveto
          -73 hlineto
          -13 -27 0 -30 -32 26 0 14 hvcurveto
          42 -23 -139 hlineto
          -17 -13 -14 -17 -17 13 -13 17 hvcurveto
          139 -60 hlineto
          18 -21 -38 22 -50 hhcurveto
          -106 -91 -91 -119 -117 86 -92 102 43 41 16 34 34 hvcurveto
          -29 0 -16 40 vhcurveto
          72 hlineto
          14 26 0 30 hvcurveto
          -93 vmoveto
          130 callsubr
          vhcurveto
          -394 hlineto
          -17 -15 -14 -18 -18 15 -14 17 hvcurveto
          394 hlineto
          18 14 14 18 hvcurveto
          -152 248 rmoveto
          -51 -43 -77 -71 -65 -56 64 83 84 61 64 70 57 47 -49 -52 vhcurveto
          endchar
        </CharString>
        <CharString name="dotaccent">
          505 102 hstem
          118 callsubr
          556 rmoveto
          52 callsubr
        </CharString>
        <CharString name="dotaccent.alt">
          470 102 hstem
          118 callsubr
          521 rmoveto
          52 callsubr
        </CharString>
        <CharString name="dotaccent.cap">
          118 callsubr
          535 rmoveto
          52 callsubr
        </CharString>
        <CharString name="dotlessi">
          41 callgsubr
          hstem
          238 74 vstem
          -92 callsubr
          endchar
        </CharString>
        <CharString name="dotlessj">
          -60 callsubr
          endchar
        </CharString>
        <CharString name="e">
          18 callgsubr
          hstem
          53 78 257 76 vstem
          -103 callgsubr
          endchar
        </CharString>
        <CharString name="eacute">
          18 callgsubr
          72 44 callgsubr
          53 78 257 76 hintmask 11100110
          -103 callgsubr
          hintmask 00011000
          -18 331 -107 callgsubr
        </CharString>
        <CharString name="ebreve">
          18 callgsubr
          62 138 callsubr
          53 78 257 76 hintmask 11100110
          -103 callgsubr
          hintmask 00011000
          53 326 -105 callsubr
          endchar
        </CharString>
        <CharString name="ecaron">
          -33 callgsubr
          9 315 -75 callsubr
        </CharString>
        <CharString name="ecircumflex">
          -33 callgsubr
          9 289 -82 callgsubr
          endchar
        </CharString>
        <CharString name="ecircumflexacute">
          18 callgsubr
          302 -20 5 callgsubr
          3 293 -31 callsubr
          158 -107 callgsubr
        </CharString>
        <CharString name="ecircumflexdotbelow">
          -200 102 93 15 callgsubr
          hstemhm
          53 78 81 102 74 76 hintmask 01111010
          -103 callgsubr
          9 289 -82 callgsubr
          hintmask 10000100
          -83 -691 rmoveto
          52 callsubr
        </CharString>
        <CharString name="ecircumflexgrave">
          -33 callgsubr
          3 293 -85 callsubr
        </CharString>
        <CharString name="ecircumflexhookabove">
          18 callgsubr
          383 -20 5 callgsubr
          3 293 -106 callsubr
          69 194 -107 callsubr
        </CharString>
        <CharString name="ecircumflextilde">
          18 callgsubr
          191 83 callsubr
          53 78 257 76 hintmask 11100110
          -103 callgsubr
          hintmask 00001000
          3 293 -106 callsubr
          47 174 -94 callgsubr
        </CharString>
        <CharString name="edblgrave">
          -33 callgsubr
          34 243 -99 callgsubr
        </CharString>
        <CharString name="edieresis">
          18 callgsubr
          71 92 hstemhm
          53 78 1 92 77 92 -5 76 hintmask 11101001
          -103 callgsubr
          hintmask 00010110
          -164 303 -36 callgsubr
        </CharString>
        <CharString name="edotaccent">
          18 callgsubr
          66 102 hstemhm
          53 78 81 102 74 76 hintmask 11101010
          -103 callgsubr
          hintmask 00010100
          -74 303 rmoveto
          52 callsubr
        </CharString>
        <CharString name="edotbelow">
          -200 102 93 15 callgsubr
          hstemhm
          53 78 81 102 74 76 hintmask 01111010
          -103 callgsubr
          hintmask 10000100
          -74 -402 rmoveto
          52 callsubr
        </CharString>
        <CharString name="egrave">
          18 callgsubr
          72 44 callgsubr
          53 78 257 76 hintmask 11100110
          -103 callgsubr
          hintmask 00011000
          -19 279 -100 callgsubr
        </CharString>
        <CharString name="ehookabove">
          18 callgsubr
          22 94 callgsubr
          53 78 257 76 hintmask 11100110
          -103 callgsubr
          hintmask 00011000
          -27 337 -107 callsubr
        </CharString>
        <CharString name="eight">
          -13 callsubr
        </CharString>
        <CharString name="eight.taboldstyle">
          -13 callsubr
        </CharString>
        <CharString name="ellipsis">
          0 127 hstem
          24 127 48 127 48 127 cntrmask 01110000
          151 63 29 callsubr
          175 hmoveto
          -20 callgsubr
          175 hmoveto
          53 callgsubr
        </CharString>
        <CharString name="emacron">
          18 callgsubr
          83 67 5 callgsubr
          64 302 -89 callsubr
        </CharString>
        <CharString name="emdash">
          268 75 64 callsubr
          305 rmoveto
          -40 callsubr
        </CharString>
        <CharString name="emdash.alt">
          48 callgsubr
        </CharString>
        <CharString name="endash">
          268 75 64 callsubr
          305 rmoveto
          -40 callsubr
        </CharString>
        <CharString name="eng">
          -196 59 137 31 callgsubr
          131 74 188 74 hintmask 00011100
          467 65 rmoveto
          227 vlineto
          99 -49 45 -82 -47 -46 -17 -33 -38 vhcurveto
          hintmask 01101000
          28 -1 17 -41 -89 callgsubr
          -301 -75 callgsubr
          173 hlineto
          hintmask 11010100
          98 76 35 49 49 14 -24 -59 vhcurveto
          -223 vlineto
          -101 0 -123 -67 -21 -16 -17 -20 -21 16 -16 21 61 35 39 57 20 vhcurveto
          20 57 5 74 71 vvcurveto
          endchar
        </CharString>
        <CharString name="eogonek">
          -203 54 145 64 23 callsubr
          hstem
          207 59 vstem
          -13 callgsubr
          endchar
        </CharString>
        <CharString name="eogonekacute">
          -203 54 145 64 23 callsubr
          72 44 callgsubr
          207 59 hintmask 11110010
          -13 callgsubr
          hintmask 00001100
          -18 331 -107 callgsubr
        </CharString>
        <CharString name="equal">
          192 75 77 75 hstem
          37 450 vstem
          487 381 29 callgsubr
          -151 vmoveto
          37 -36 0 -11 vhcurveto
          -356 hlineto
          -11 -36 0 -37 -38 39 0 14 hvcurveto
          344 hlineto
          14 39 0 38 hvcurveto
          endchar
        </CharString>
        <CharString name="ereversed">
          18 callgsubr
          hstem
          53 76 257 78 vstem
          464 218 rmoveto
          119 -95 102 -122 -129 -65 -96 -116 -38 22 0 20 vhcurveto
          292 hlineto
          -95 -20 -84 -34 -58 hhcurveto
          -11 -64 0 57 -24 hvcurveto
          22 -9 -13 0 -14 hhcurveto
          -22 -15 -9 -21 -24 45 -90 134 128 104 99 124 hvcurveto
          -78 35 rmoveto
          -257 hlineto
          75 7 41 46 70 hhcurveto
          57 63 -39 -82 19 hvcurveto
          endchar
        </CharString>
        <CharString name="estimated">
          -4 65 228 64 202 65 hstem
          31 75 301 75 vstem
          482 111 rmoveto
          25 -22 4 -16 -31 4 -19 -22 -22 vhcurveto
          -29 -25 -44 -9 -36 hhcurveto
          -109 -75 124 93 hvcurveto
          11 334 vlineto
          25 17 8 30 hvcurveto
          7 vlineto
          75 -15 83 -51 60 vhcurveto
          43 -37 -54 25 -57 hhcurveto
          -163 -74 -183 -128 -140 81 -173 167 63 77 14 56 42 hvcurveto
          10 12 11 17 16 vvcurveto
          -75 242 rmoveto
          -299 hlineto
          86 6 60 116 94 hhcurveto
          94 45 -109 -93 hvcurveto
          endchar
        </CharString>
        <CharString name="eth">
          -5 65 313 65 175 -20 hstem
          44 callsubr
          vstem
          469 232 rmoveto
          35 0 99 -79 99 vhcurveto
          -20 25 -23 23 -25 19 40 16 rcurveline
          14 6 10 13 15 vvcurveto
          17 -15 14 -18 -6 -5 -1 -2 -5 vhcurveto
          -85 -35 -29 14 -31 10 -31 6 rlinecurve
          5 -24 -19 1 -11 hhcurveto
          -33 -12 -24 -12 -8 2 -21 33 -1 hvcurveto
          23 -1 23 -4 14 -3 -28 -12 rcurveline
          -14 -5 -10 -13 -15 vvcurveto
          -17 14 -14 19 5 6 1 2 4 vhcurveto
          90 37 9 -6 8 -5 8 -6 rlinecurve
          18 -13 21 -18 20 -26 rrcurveto
          7 -21 -22 4 -22 hhcurveto
          -112 -95 -98 -125 -123 95 -97 112 65 54 32 40 34 hvcurveto
          54 63 0 65 37 vvcurveto
          -74 -13 rmoveto
          -79 -55 -80 -78 -72 -61 72 91 88 64 62 68 81 53 -80 -74 vhcurveto
          endchar
        </CharString>
        <CharString name="etilde">
          18 callgsubr
          55 83 callsubr
          53 78 257 76 hintmask 11100110
          -103 callgsubr
          hintmask 00001000
          50 331 -94 callgsubr
        </CharString>
        <CharString name="eturned">
          4 callsubr
        </CharString>
        <CharString name="exclam">
          0 102 104 -21 437 -20 hstem
          211 102 vstem
          313 565 rmoveto
          53 -43 4 -8 -9 -42 -4 -53 vhcurveto
          7 -261 2 -71 rlineto
          -30 1 1 -18 40 hhcurveto
          40 1 17 34 1 hvcurveto
          4 171 rlineto
          1 52 4 54 52 vvcurveto
          -514 vmoveto
          52 callsubr
        </CharString>
        <CharString name="exclamdown">
          -212 -21 437 -20 103 102 hstem
          211 102 vstem
          313 338 -102 callgsubr
          -514 vmoveto
          -7 261 -2 71 rlineto
          30 -1 -1 18 -40 hhcurveto
          -40 -1 -17 -34 -1 hvcurveto
          -4 -171 rlineto
          -1 -52 -4 -54 -52 vvcurveto
          -53 43 -4 8 9 42 4 53 vhcurveto
          endchar
        </CharString>
        <CharString name="f">
          -16 callgsubr
          301 117 hlineto
          14 -71 callsubr
          -15 hvcurveto
          -117 46 hlineto
          73 61 1 30 vhcurveto
          -27 3 21 -16 21 hhcurveto
          19 26 14 32 hvcurveto
          endchar
        </CharString>
        <CharString name="five">
          -11 84 callsubr
          190 -3 callgsubr
        </CharString>
        <CharString name="five.taboldstyle">
          -196 84 callsubr
          5 -3 callgsubr
        </CharString>
        <CharString name="florin">
          -16 callgsubr
          301 117 hlineto
          14 -71 callsubr
          -15 hvcurveto
          -117 46 hlineto
          73 61 1 30 vhcurveto
          -27 3 21 -16 21 hhcurveto
          19 26 14 32 hvcurveto
          endchar
        </CharString>
        <CharString name="four">
          0 65 103 65 392 105 callsubr
          200 rmoveto
          37 callsubr
          vhcurveto
          -74 349 95 callsubr
          -356 104 callsubr
          -103 -60 -96 callsubr
          180 hlineto
          14 -71 callsubr
          -15 hvcurveto
          -60 103 96 callsubr
          341 rlineto
          endchar
        </CharString>
        <CharString name="four.taboldstyle">
          -183 65 118 65 377 105 callsubr
          -38 callsubr
          -74 334 95 callsubr
          -341 104 callsubr
          -118 -60 -96 callsubr
          180 hlineto
          14 -71 callsubr
          -15 hvcurveto
          -60 118 96 callsubr
          326 rlineto
          endchar
        </CharString>
        <CharString name="fraction">
          457 591 rmoveto
          24 callsubr
          128 callsubr
          3 6 1 6 6 vvcurveto
          endchar
        </CharString>
        <CharString name="fraction.alt">
          -107 195 591 rmoveto
          24 callsubr
          128 callsubr
          3 6 1 6 6 vvcurveto
          endchar
        </CharString>
        <CharString name="g">
          13 callgsubr
          hstemhm
          65 74 -62 62 -62 74 cntrmask 00000111
          hintmask 11011111
          6 callgsubr
          -9 -16 -10 -26 -26 vvcurveto
          -42 21 -28 2 -2 vhcurveto
          -68 -42 -3 -65 -15 vvcurveto
          -88 106 -60 127 126 107 60 88 143 -184 0 -29 vhcurveto
          -71 hlineto
          hintmask 10111111
          -8 -13 0 3 -8 hvcurveto
          -16 -4 0 12 -11 hvcurveto
          -83 callgsubr
          -98 -73 41 43 37 32 41 51 4 vhcurveto
          60 hlineto
          90 109 0 -83 hvcurveto
          endchar
        </CharString>
        <CharString name="gacute">
          13 callgsubr
          75 -21 131 -20 17 callsubr
          hintmask 0000100010000000
          509 384 -86 callsubr
          hintmask 0000011000000000
          -99 665 -107 callgsubr
        </CharString>
        <CharString name="gbreve">
          13 callgsubr
          65 68 41 -20 17 callsubr
          hintmask 0000100010000000
          509 384 -86 callsubr
          hintmask 0000011000000000
          -28 660 -105 callsubr
          endchar
        </CharString>
        <CharString name="gcaron">
          -48 callgsubr
          649 -75 callsubr
        </CharString>
        <CharString name="gcedilla">
          13 callgsubr
          32 94 105 -20 17 callsubr
          hintmask 0000111010000000
          290 643 rmoveto
          11 -11 13 -15 -24 -77 -39 -84 -44 28 -32 35 29 19 22 25 28 -20 20 -28 vhcurveto
          -5 -5 -1 -2 hhcurveto
          4 16 13 29 39 12 rrcurveto
          6 3 14 4 17 vvcurveto
          219 -259 -86 callsubr
          endchar
        </CharString>
        <CharString name="gcircumflex">
          -48 callgsubr
          623 -82 callgsubr
          endchar
        </CharString>
        <CharString name="gcommaaccent">
          13 callgsubr
          32 94 105 -20 17 callsubr
          hintmask 0000111010000000
          290 643 rmoveto
          11 -11 13 -15 -24 -77 -39 -84 -44 28 -32 35 29 19 22 25 28 -20 20 -28 vhcurveto
          -5 -5 -1 -2 hhcurveto
          4 16 13 29 39 12 rrcurveto
          6 3 14 4 17 vvcurveto
          219 -259 -86 callsubr
          endchar
        </CharString>
        <CharString name="gdotaccent">
          13 callgsubr
          69 102 hstemhm
          29 62 -26 74 -62 62 -62 74 -51 74 2 102 49 74 32 62 hintmask 0000100100000000
          6 callgsubr
          hintmask 0001000010000000
          -9 -16 -10 -26 -26 vvcurveto
          hintmask 1100001000100100
          -42 21 -28 2 -2 vhcurveto
          -68 -42 -3 -65 -15 vvcurveto
          -88 106 -60 127 126 107 60 88 143 -184 0 -29 vhcurveto
          -71 hlineto
          hintmask 0010000001000000
          -8 -13 0 3 -8 hvcurveto
          -16 -4 0 12 -11 hvcurveto
          hintmask 1001100010001000
          -83 callgsubr
          vhcurveto
          hintmask 0010001000100100
          -98 -73 41 43 37 32 41 51 4 hvcurveto
          60 hlineto
          90 109 0 -83 hvcurveto
          hintmask 0000010000010000
          -155 637 rmoveto
          52 callsubr
        </CharString>
        <CharString name="germandbls">
          -34 callsubr
        </CharString>
        <CharString name="germandbls.dup">
          -34 callsubr
        </CharString>
        <CharString name="gnaborretni">
          -102 102 204 -20 103 102 hstemhm
          62 74 -20 93 -73 74 -4 74 -74 82 -81 74 6 82 0 93 hintmask 1010000011000000
          298 338 -102 callgsubr
          164 -443 rmoveto
          34 -24 15 -23 -25 -21 -20 -26 -18 8 -11 0 vhcurveto
          -21 -19 -40 -8 -30 -2 -4 160 rcurveline
          -1 71 rlineto
          hintmask 0000001000000000
          -1 13 rlineto
          hintmask 0100000100000000
          8 28 0 23 15 116 callgsubr
          hintmask 0000100000000000
          -66 -29 -46 -61 -40 vhcurveto
          hintmask 1001000010000000
          115 callsubr
          28 -16 30 -6 26 -2 rrcurveto
          hintmask 0000000100000000
          -1 -36 rlineto
          -53 35 -4 6 7 34 4 53 vhcurveto
          hintmask 0000000001000000
          -1 35 rlineto
          hintmask 0000010000100000
          64 5 111 20 96 vvcurveto
          -251 84 rmoveto
          -1 -82 rlineto
          hintmask 0000100000000000
          -1 -57 rlineto
          hintmask 1000010000000000
          -33 5 -40 14 39 vvcurveto
          25 17 11 15 11 vhcurveto
          17 11 14 12 12 11 rrcurveto
          endchar
        </CharString>
        <CharString name="grave">
          511 33 callgsubr
          hstem
          369 532 -100 callgsubr
        </CharString>
        <CharString name="grave.cap">
          515 33 callgsubr
          hstem
          369 536 -100 callgsubr
        </CharString>
        <CharString name="grave.ts1">
          85 callsubr
          331 523 rmoveto
          16 -12 7 -17 9 vhcurveto
          -24 9 -83 34 rlineto
          5 -13 -15 9 -15 hhcurveto
          hintmask 11000000
          -6 -1 rlineto
          -18 -3 -12 -17 -17 vvcurveto
          -31 34 -7 22 -9 vhcurveto
          84 -34 rlineto
          -5 13 13 -8 14 hhcurveto
          23 12 26 17 hvcurveto
          endchar
        </CharString>
        <CharString name="greater">
          73 -21 507 -20 64 callsubr
          306 rmoveto
          20 -14 9 -8 5 vhcurveto
          -336 215 rlineto
          -7 3 -9 1 0 vvcurveto
          -18 -20 -15 -23 -20 13 -9 10 -7 hvcurveto
          282 -179 -293 -188 rlineto
          -4 -3 -8 -6 -19 vvcurveto
          -25 22 -13 15 5 5 2 2 6 vhcurveto
          336 215 rlineto
          12 8 11 7 20 vvcurveto
          endchar
        </CharString>
        <CharString name="guarani">
          -10 65 151 65 286 65 hstem
          37 74 99 64 101 74 vstem
          496 239 rmoveto
          32 119 callsubr
          -120 7 callgsubr
          -8 -75 -31 -69 -60 -7 rrcurveto
          501 vlineto
          49 -5 42 -47 10 -72 rrcurveto
          -15 2 2 -18 33 hhcurveto
          37 0 23 19 hvcurveto
          139 vlineto
          101 callsubr
          -6 -15 -28 -13 vhcurveto
          -21 17 -33 22 -47 4 rrcurveto
          53 vlineto
          18 -15 14 -17 114 callgsubr
          vhcurveto
          -61 vlineto
          -98 -32 -75 -121 -155 vvcurveto
          -158 76 -120 97 -31 vhcurveto
          -61 vlineto
          78 callgsubr
          54 vlineto
          50 4 35 27 16 16 rrcurveto
          -26 10 -11 27 37 0 23 19 vhcurveto
          164 vlineto
          131 callgsubr
          hvcurveto
          -286 -168 rmoveto
          -55 35 -44 87 112 vvcurveto
          113 44 86 55 36 vhcurveto
          endchar
        </CharString>
        <CharString name="guillemotleft">
          478 19 callgsubr
          -162 hmoveto
          17 -8 7 -7 6 vhcurveto
          -188 163 188 163 rlineto
          7 6 8 7 17 vvcurveto
          21 -11 11 -11 -5 -3 -1 -8 -10 vhcurveto
          -215 -186 rlineto
          -6 -6 -8 -7 -17 vvcurveto
          -12 5 -10 6 -6 vhcurveto
          218 -188 rlineto
          -8 10 3 -1 5 hhcurveto
          11 11 11 21 hvcurveto
          endchar
        </CharString>
</ttFont>
